<svg width="32" height="33" viewBox="0 0 32 33" fill="none" xmlns="http://www.w3.org/2000/svg">
<rect y="0.190918" width="32" height="32" rx="16" fill="#454893"/>
<path d="M14.3523 15.0159C15.4971 14.4687 16.0947 13.6407 16.0947 12.3518C16.0947 9.81014 14.2011 9.19092 12.0158 9.19092H6V21.9497H12.185C14.5035 21.9497 16.6815 20.8373 16.6815 18.2452C16.6815 16.6431 15.9219 15.4587 14.3523 15.0159ZM8.80449 11.369H11.4362C12.4478 11.369 13.3586 11.6534 13.3586 12.827C13.3586 13.9107 12.6494 14.3463 11.6486 14.3463H8.80449V11.369ZM11.8034 19.7824H8.80449V16.2687H11.861C13.0958 16.2687 13.877 16.7836 13.877 18.0904C13.877 19.3792 12.9446 19.7824 11.8034 19.7824ZM24.7098 11.117H19.5364V9.86054H24.7098V11.117ZM26.7366 17.464C26.7366 14.7315 25.1382 12.4526 22.2401 12.4526C19.4248 12.4526 17.5132 14.5695 17.5132 17.3416C17.5132 20.2181 19.324 22.1909 22.2401 22.1909C24.447 22.1909 25.8762 21.1973 26.5638 19.084H24.3246C24.0834 19.8724 23.0897 20.2901 22.3193 20.2901C20.8325 20.2901 20.0512 19.4188 20.0512 17.9392H26.715C26.7258 17.788 26.7366 17.626 26.7366 17.464ZM20.0548 16.3407C20.1376 15.1275 20.9441 14.3679 22.1609 14.3679C23.4353 14.3679 24.0762 15.1167 24.1842 16.3407H20.0548Z" fill="white"/>
</svg>
