<svg width="195" height="55" viewBox="0 0 195 55" fill="none" xmlns="http://www.w3.org/2000/svg">
<g filter="url(#filter0_ii_875_321)">
<rect width="195" height="55" rx="27.5" fill="#EF8723"/>
<path d="M42.6968 15.5417L43.3114 16.1563C44.1582 17.0042 44.0301 18.5073 43.0228 19.5136L30.3489 32.1875L26.2426 33.6896C25.727 33.8792 25.2249 33.6334 25.1228 33.1427C25.0883 32.9648 25.1046 32.7807 25.1697 32.6115L26.7009 28.4698L39.3395 15.8302C40.3468 14.824 41.8499 14.6938 42.6968 15.5417ZM29.7957 16.8021C29.9325 16.8021 30.068 16.8291 30.1944 16.8814C30.3207 16.9338 30.4356 17.0105 30.5323 17.1072C30.629 17.2039 30.7058 17.3188 30.7581 17.4452C30.8105 17.5715 30.8374 17.707 30.8374 17.8438C30.8374 17.9806 30.8105 18.116 30.7581 18.2424C30.7058 18.3688 30.629 18.4836 30.5323 18.5804C30.4356 18.6771 30.3207 18.7538 30.1944 18.8062C30.068 18.8585 29.9325 18.8855 29.7957 18.8855H25.6291C25.0765 18.8855 24.5466 19.1049 24.1559 19.4956C23.7652 19.8863 23.5457 20.4163 23.5457 20.9688V33.4688C23.5457 34.0213 23.7652 34.5512 24.1559 34.9419C24.5466 35.3326 25.0765 35.5521 25.6291 35.5521H38.1291C38.6816 35.5521 39.2115 35.3326 39.6022 34.9419C39.9929 34.5512 40.2124 34.0213 40.2124 33.4688V29.3021C40.2124 29.0259 40.3221 28.7609 40.5175 28.5656C40.7129 28.3702 40.9778 28.2605 41.2541 28.2605C41.5303 28.2605 41.7953 28.3702 41.9906 28.5656C42.186 28.7609 42.2957 29.0259 42.2957 29.3021V33.4688C42.2957 34.5739 41.8567 35.6337 41.0753 36.4151C40.2939 37.1965 39.2341 37.6355 38.1291 37.6355H25.6291C24.524 37.6355 23.4642 37.1965 22.6828 36.4151C21.9014 35.6337 21.4624 34.5739 21.4624 33.4688V20.9688C21.4624 19.8637 21.9014 18.8039 22.6828 18.0225C23.4642 17.2411 24.524 16.8021 25.6291 16.8021H29.7957Z" fill="white"/>
<path d="M55.0114 32V20.3636H57.4716V25.4943H57.625L61.8125 20.3636H64.7614L60.4432 25.5739L64.8125 32H61.8693L58.6818 27.2159L57.4716 28.6932V32H55.0114ZM69.2997 32.1705C68.4171 32.1705 67.6539 31.983 67.0099 31.608C66.3698 31.2292 65.8755 30.7027 65.527 30.0284C65.1785 29.3504 65.0043 28.5644 65.0043 27.6705C65.0043 26.7689 65.1785 25.9811 65.527 25.3068C65.8755 24.6288 66.3698 24.1023 67.0099 23.7273C67.6539 23.3485 68.4171 23.1591 69.2997 23.1591C70.1823 23.1591 70.9437 23.3485 71.5838 23.7273C72.2277 24.1023 72.724 24.6288 73.0724 25.3068C73.4209 25.9811 73.5952 26.7689 73.5952 27.6705C73.5952 28.5644 73.4209 29.3504 73.0724 30.0284C72.724 30.7027 72.2277 31.2292 71.5838 31.608C70.9437 31.983 70.1823 32.1705 69.2997 32.1705ZM69.3111 30.2955C69.7126 30.2955 70.0478 30.1818 70.3168 29.9545C70.5857 29.7235 70.7884 29.4091 70.9247 29.0114C71.0649 28.6136 71.1349 28.161 71.1349 27.6534C71.1349 27.1458 71.0649 26.6932 70.9247 26.2955C70.7884 25.8977 70.5857 25.5833 70.3168 25.3523C70.0478 25.1212 69.7126 25.0057 69.3111 25.0057C68.9058 25.0057 68.5649 25.1212 68.2884 25.3523C68.0156 25.5833 67.8092 25.8977 67.669 26.2955C67.5327 26.6932 67.4645 27.1458 67.4645 27.6534C67.4645 28.161 67.5327 28.6136 67.669 29.0114C67.8092 29.4091 68.0156 29.7235 68.2884 29.9545C68.5649 30.1818 68.9058 30.2955 69.3111 30.2955ZM77.5895 26.9545V32H75.169V23.2727H77.4759V24.8125H77.5781C77.7713 24.3049 78.0952 23.9034 78.5497 23.608C79.0043 23.3087 79.5554 23.1591 80.2031 23.1591C80.8092 23.1591 81.3376 23.2917 81.7884 23.5568C82.2391 23.822 82.5895 24.2008 82.8395 24.6932C83.0895 25.1818 83.2145 25.7652 83.2145 26.4432V32H80.794V26.875C80.7978 26.3409 80.6615 25.9242 80.3849 25.625C80.1084 25.322 79.7277 25.1705 79.2429 25.1705C78.9171 25.1705 78.6293 25.2405 78.3793 25.3807C78.133 25.5208 77.9399 25.7254 77.7997 25.9943C77.6634 26.2595 77.5933 26.5795 77.5895 26.9545ZM89.7642 23.2727V25.0909H84.5085V23.2727H89.7642ZM85.7017 21.1818H88.1222V29.3182C88.1222 29.5417 88.1563 29.7159 88.2244 29.8409C88.2926 29.9621 88.3873 30.0473 88.5085 30.0966C88.6335 30.1458 88.7775 30.1705 88.9403 30.1705C89.054 30.1705 89.1676 30.161 89.2812 30.142C89.3949 30.1193 89.482 30.1023 89.5426 30.0909L89.9233 31.892C89.8021 31.9299 89.6316 31.9735 89.4119 32.0227C89.1922 32.0758 88.9252 32.108 88.6108 32.1193C88.0275 32.142 87.5161 32.0644 87.0767 31.8864C86.6411 31.7083 86.3021 31.4318 86.0597 31.0568C85.8172 30.6818 85.6979 30.2083 85.7017 29.6364V21.1818ZM93.8295 32.1648C93.2727 32.1648 92.7765 32.0682 92.3409 31.875C91.9053 31.678 91.5606 31.3883 91.3068 31.0057C91.0568 30.6193 90.9318 30.1383 90.9318 29.5625C90.9318 29.0777 91.0208 28.6705 91.1989 28.3409C91.3769 28.0114 91.6193 27.7462 91.9261 27.5455C92.233 27.3447 92.5814 27.1932 92.9716 27.0909C93.3655 26.9886 93.7784 26.9167 94.2102 26.875C94.7178 26.822 95.1269 26.7727 95.4375 26.7273C95.7481 26.678 95.9735 26.6061 96.1136 26.5114C96.2538 26.4167 96.3239 26.2765 96.3239 26.0909V26.0568C96.3239 25.697 96.2102 25.4186 95.983 25.2216C95.7595 25.0246 95.4413 24.9261 95.0284 24.9261C94.5928 24.9261 94.2462 25.0227 93.9886 25.2159C93.7311 25.4053 93.5606 25.6439 93.4773 25.9318L91.2386 25.75C91.3523 25.2197 91.5758 24.7614 91.9091 24.375C92.2424 23.9848 92.6723 23.6856 93.1989 23.4773C93.7292 23.2652 94.3428 23.1591 95.0398 23.1591C95.5246 23.1591 95.9886 23.2159 96.4318 23.3295C96.8788 23.4432 97.2746 23.6193 97.6193 23.858C97.9678 24.0966 98.2424 24.4034 98.4432 24.7784C98.6439 25.1496 98.7443 25.5947 98.7443 26.1136V32H96.4489V30.7898H96.3807C96.2405 31.0625 96.053 31.303 95.8182 31.5114C95.5833 31.7159 95.3011 31.8769 94.9716 31.9943C94.642 32.108 94.2614 32.1648 93.8295 32.1648ZM94.5227 30.4943C94.8788 30.4943 95.1932 30.4242 95.4659 30.2841C95.7386 30.1402 95.9527 29.947 96.108 29.7045C96.2633 29.4621 96.3409 29.1875 96.3409 28.8807V27.9545C96.2652 28.0038 96.161 28.0492 96.0284 28.0909C95.8996 28.1288 95.7538 28.1648 95.5909 28.1989C95.428 28.2292 95.2652 28.2576 95.1023 28.2841C94.9394 28.3068 94.7917 28.3277 94.6591 28.3466C94.375 28.3883 94.1269 28.4545 93.9148 28.5455C93.7027 28.6364 93.5379 28.7595 93.4205 28.9148C93.303 29.0663 93.2443 29.2557 93.2443 29.483C93.2443 29.8125 93.3636 30.0644 93.6023 30.2386C93.8447 30.4091 94.1515 30.4943 94.5227 30.4943ZM102.815 29.4886L102.821 26.5852H103.173L105.969 23.2727H108.747L104.991 27.6591H104.418L102.815 29.4886ZM100.622 32V20.3636H103.043V32H100.622ZM106.077 32L103.509 28.1989L105.122 26.4886L108.912 32H106.077ZM114.577 23.2727V25.0909H109.321V23.2727H114.577ZM110.514 21.1818H112.935V29.3182C112.935 29.5417 112.969 29.7159 113.037 29.8409C113.105 29.9621 113.2 30.0473 113.321 30.0966C113.446 30.1458 113.59 30.1705 113.753 30.1705C113.866 30.1705 113.98 30.161 114.094 30.142C114.207 30.1193 114.295 30.1023 114.355 30.0909L114.736 31.892C114.615 31.9299 114.444 31.9735 114.224 32.0227C114.005 32.0758 113.738 32.108 113.423 32.1193C112.84 32.142 112.329 32.0644 111.889 31.8864C111.454 31.7083 111.115 31.4318 110.872 31.0568C110.63 30.6818 110.51 30.2083 110.514 29.6364V21.1818ZM116.153 32V23.2727H118.574V32H116.153ZM117.369 22.1477C117.009 22.1477 116.701 22.0284 116.443 21.7898C116.189 21.5473 116.062 21.2576 116.062 20.9205C116.062 20.5871 116.189 20.3011 116.443 20.0625C116.701 19.8201 117.009 19.6989 117.369 19.6989C117.729 19.6989 118.036 19.8201 118.29 20.0625C118.547 20.3011 118.676 20.5871 118.676 20.9205C118.676 21.2576 118.547 21.5473 118.29 21.7898C118.036 22.0284 117.729 22.1477 117.369 22.1477ZM124.49 32.1705C123.592 32.1705 122.82 31.9886 122.172 31.625C121.528 31.2576 121.032 30.7386 120.683 30.0682C120.335 29.3939 120.161 28.5966 120.161 27.6761C120.161 26.7784 120.335 25.9905 120.683 25.3125C121.032 24.6345 121.522 24.1061 122.155 23.7273C122.791 23.3485 123.537 23.1591 124.393 23.1591C124.969 23.1591 125.505 23.2519 126.001 23.4375C126.501 23.6193 126.937 23.8939 127.308 24.2614C127.683 24.6288 127.975 25.0909 128.183 25.6477C128.392 26.2008 128.496 26.8485 128.496 27.5909V28.2557H121.126V26.7557H126.217C126.217 26.4072 126.142 26.0985 125.99 25.8295C125.839 25.5606 125.628 25.3504 125.359 25.1989C125.094 25.0436 124.786 24.9659 124.433 24.9659C124.066 24.9659 123.74 25.0511 123.456 25.2216C123.176 25.3883 122.956 25.6136 122.797 25.8977C122.638 26.178 122.556 26.4905 122.553 26.8352V28.2614C122.553 28.6932 122.632 29.0663 122.791 29.3807C122.954 29.6951 123.183 29.9375 123.479 30.108C123.774 30.2784 124.125 30.3636 124.53 30.3636C124.799 30.3636 125.045 30.3258 125.268 30.25C125.492 30.1742 125.683 30.0606 125.842 29.9091C126.001 29.7576 126.123 29.572 126.206 29.3523L128.445 29.5C128.331 30.0379 128.098 30.5076 127.746 30.9091C127.397 31.3068 126.946 31.6174 126.393 31.8409C125.844 32.0606 125.21 32.1705 124.49 32.1705ZM130.075 32V23.2727H132.422V24.7955H132.513C132.672 24.2538 132.939 23.8447 133.314 23.5682C133.689 23.2879 134.121 23.1477 134.609 23.1477C134.731 23.1477 134.861 23.1553 135.001 23.1705C135.142 23.1856 135.265 23.2064 135.371 23.233V25.3807C135.257 25.3466 135.1 25.3163 134.899 25.2898C134.698 25.2633 134.515 25.25 134.348 25.25C133.992 25.25 133.674 25.3277 133.393 25.483C133.117 25.6345 132.897 25.8466 132.734 26.1193C132.575 26.392 132.496 26.7064 132.496 27.0625V32H130.075ZM140.193 32.1705C139.295 32.1705 138.523 31.9886 137.875 31.625C137.231 31.2576 136.735 30.7386 136.386 30.0682C136.038 29.3939 135.864 28.5966 135.864 27.6761C135.864 26.7784 136.038 25.9905 136.386 25.3125C136.735 24.6345 137.225 24.1061 137.858 23.7273C138.494 23.3485 139.241 23.1591 140.097 23.1591C140.672 23.1591 141.208 23.2519 141.705 23.4375C142.205 23.6193 142.64 23.8939 143.011 24.2614C143.386 24.6288 143.678 25.0909 143.886 25.6477C144.095 26.2008 144.199 26.8485 144.199 27.5909V28.2557H136.83V26.7557H141.92C141.92 26.4072 141.845 26.0985 141.693 25.8295C141.542 25.5606 141.331 25.3504 141.062 25.1989C140.797 25.0436 140.489 24.9659 140.136 24.9659C139.769 24.9659 139.443 25.0511 139.159 25.2216C138.879 25.3883 138.659 25.6136 138.5 25.8977C138.341 26.178 138.259 26.4905 138.256 26.8352V28.2614C138.256 28.6932 138.335 29.0663 138.494 29.3807C138.657 29.6951 138.886 29.9375 139.182 30.108C139.477 30.2784 139.828 30.3636 140.233 30.3636C140.502 30.3636 140.748 30.3258 140.972 30.25C141.195 30.1742 141.386 30.0606 141.545 29.9091C141.705 29.7576 141.826 29.572 141.909 29.3523L144.148 29.5C144.034 30.0379 143.801 30.5076 143.449 30.9091C143.1 31.3068 142.65 31.6174 142.097 31.8409C141.547 32.0606 140.913 32.1705 140.193 32.1705ZM155.078 28.2841V23.2727H157.499V32H155.175V30.4148H155.084C154.887 30.9261 154.559 31.3371 154.101 31.6477C153.646 31.9583 153.091 32.1136 152.436 32.1136C151.853 32.1136 151.339 31.9811 150.896 31.7159C150.453 31.4508 150.107 31.0739 149.857 30.5852C149.61 30.0966 149.485 29.5114 149.482 28.8295V23.2727H151.902V28.3977C151.906 28.9129 152.044 29.3201 152.317 29.6193C152.589 29.9186 152.955 30.0682 153.413 30.0682C153.705 30.0682 153.978 30.0019 154.232 29.8693C154.485 29.733 154.69 29.5322 154.845 29.267C155.004 29.0019 155.082 28.6742 155.078 28.2841ZM161.855 26.9545V32H159.435V23.2727H161.741V24.8125H161.844C162.037 24.3049 162.361 23.9034 162.815 23.608C163.27 23.3087 163.821 23.1591 164.469 23.1591C165.075 23.1591 165.603 23.2917 166.054 23.5568C166.505 23.822 166.855 24.2008 167.105 24.6932C167.355 25.1818 167.48 25.7652 167.48 26.4432V32H165.06V26.875C165.063 26.3409 164.927 25.9242 164.651 25.625C164.374 25.322 163.993 25.1705 163.509 25.1705C163.183 25.1705 162.895 25.2405 162.645 25.3807C162.399 25.5208 162.205 25.7254 162.065 25.9943C161.929 26.2595 161.859 26.5795 161.855 26.9545ZM176.649 25.7614L174.433 25.8977C174.395 25.7083 174.314 25.5379 174.189 25.3864C174.064 25.2311 173.899 25.108 173.695 25.017C173.494 24.9223 173.253 24.875 172.973 24.875C172.598 24.875 172.282 24.9545 172.024 25.1136C171.767 25.2689 171.638 25.4773 171.638 25.7386C171.638 25.947 171.721 26.1231 171.888 26.267C172.054 26.411 172.34 26.5265 172.746 26.6136L174.325 26.9318C175.174 27.1061 175.806 27.3864 176.223 27.7727C176.64 28.1591 176.848 28.6667 176.848 29.2955C176.848 29.8674 176.679 30.3693 176.342 30.8011C176.009 31.233 175.551 31.5701 174.967 31.8125C174.388 32.0511 173.719 32.1705 172.962 32.1705C171.806 32.1705 170.886 31.9299 170.2 31.4489C169.518 30.964 169.119 30.3049 169.001 29.4716L171.382 29.3466C171.454 29.6989 171.628 29.9678 171.905 30.1534C172.181 30.3352 172.536 30.4261 172.967 30.4261C173.392 30.4261 173.732 30.3447 173.99 30.1818C174.251 30.0152 174.384 29.8011 174.388 29.5398C174.384 29.3201 174.291 29.1402 174.109 29C173.928 28.8561 173.647 28.7462 173.268 28.6705L171.757 28.3693C170.905 28.1989 170.27 27.9034 169.854 27.483C169.441 27.0625 169.234 26.5265 169.234 25.875C169.234 25.3144 169.386 24.8314 169.689 24.4261C169.996 24.0208 170.426 23.7083 170.979 23.4886C171.536 23.2689 172.187 23.1591 172.933 23.1591C174.036 23.1591 174.903 23.392 175.536 23.858C176.172 24.3239 176.543 24.9583 176.649 25.7614Z" fill="white"/>
</g>
<defs>
<filter id="filter0_ii_875_321" x="0" y="-4" width="195" height="62" filterUnits="userSpaceOnUse" color-interpolation-filters="sRGB">
<feFlood flood-opacity="0" result="BackgroundImageFix"/>
<feBlend mode="normal" in="SourceGraphic" in2="BackgroundImageFix" result="shape"/>
<feColorMatrix in="SourceAlpha" type="matrix" values="0 0 0 0 0 0 0 0 0 0 0 0 0 0 0 0 0 0 127 0" result="hardAlpha"/>
<feOffset dy="4"/>
<feGaussianBlur stdDeviation="1.5"/>
<feComposite in2="hardAlpha" operator="arithmetic" k2="-1" k3="1"/>
<feColorMatrix type="matrix" values="0 0 0 0 0.933333 0 0 0 0 0.683958 0 0 0 0 0.443333 0 0 0 1 0"/>
<feBlend mode="normal" in2="shape" result="effect1_innerShadow_875_321"/>
<feColorMatrix in="SourceAlpha" type="matrix" values="0 0 0 0 0 0 0 0 0 0 0 0 0 0 0 0 0 0 127 0" result="hardAlpha"/>
<feOffset dy="-4"/>
<feGaussianBlur stdDeviation="2"/>
<feComposite in2="hardAlpha" operator="arithmetic" k2="-1" k3="1"/>
<feColorMatrix type="matrix" values="0 0 0 0 0.775 0 0 0 0 0.386487 0 0 0 0 0.0129166 0 0 0 1 0"/>
<feBlend mode="normal" in2="effect1_innerShadow_875_321" result="effect2_innerShadow_875_321"/>
</filter>
</defs>
</svg>
