<svg width="48" height="48" viewBox="0 0 48 48" fill="none" xmlns="http://www.w3.org/2000/svg">
<g clip-path="url(#clip0_847_302)">
<path d="M8.44339 8.44402C11.1494 5.73802 15.2234 5.51002 19.3094 6.80002C20.9415 7.33 22.5134 8.02983 23.9994 8.88802C25.6054 7.97602 27.1794 7.27802 28.6894 6.80002C32.7774 5.50802 36.8494 5.73802 39.5554 8.44402C42.2614 11.15 42.4914 15.224 41.1994 19.31C40.6694 20.9421 39.9696 22.5141 39.1114 24C40.0234 25.606 40.7214 27.18 41.1994 28.69C42.4914 32.776 42.2614 36.85 39.5554 39.556C36.8514 42.262 32.7754 42.492 28.6894 41.2C27.0573 40.6701 25.4853 39.9702 23.9994 39.112C22.3934 40.024 20.8194 40.722 19.3094 41.2C15.2234 42.49 11.1494 42.26 8.44339 39.556C5.73739 36.85 5.50939 32.776 6.79939 28.69C7.27739 27.178 7.97539 25.606 8.88739 24C8.02917 22.5141 7.32934 20.9421 6.79939 19.31C5.50939 15.224 5.73939 11.15 8.44339 8.44402ZM11.4214 27.818C11.1099 28.4935 10.84 29.1875 10.6134 29.896C9.54139 33.29 10.0734 35.528 11.2734 36.728C12.4714 37.928 14.7094 38.458 18.1034 37.386C18.7694 37.176 19.4634 36.906 20.1834 36.578C18.5361 35.3218 16.9765 33.9546 15.5154 32.486C14.0462 31.0249 12.6783 29.4653 11.4214 27.818ZM36.5794 27.818C35.3225 29.4653 33.9546 31.0249 32.4854 32.486C31.0243 33.9553 29.4647 35.3231 27.8174 36.58C28.5354 36.906 29.2294 37.176 29.8954 37.386C33.2914 38.458 35.5274 37.926 36.7274 36.728C37.9274 35.528 38.4594 33.292 37.3874 29.896C37.1609 29.1868 36.891 28.4922 36.5794 27.816V27.818ZM23.9994 21C23.2037 21 22.4407 21.3161 21.8781 21.8787C21.3155 22.4413 20.9994 23.2044 20.9994 24C20.9994 24.7957 21.3155 25.5587 21.8781 26.1213C22.4407 26.684 23.2037 27 23.9994 27C24.795 27 25.5581 26.684 26.1207 26.1213C26.6833 25.5587 26.9994 24.7957 26.9994 24C26.9994 23.2044 26.6833 22.4413 26.1207 21.8787C25.5581 21.3161 24.795 21 23.9994 21ZM29.8954 10.614C29.1862 10.8406 28.4916 11.1104 27.8154 11.422C29.4636 12.6779 31.0239 14.045 32.4854 15.514C33.9546 16.9751 35.3224 18.5348 36.5794 20.182C36.9074 19.464 37.1754 18.77 37.3854 18.104C38.4594 14.708 37.9274 12.472 36.7274 11.272C35.5274 10.072 33.2914 9.54202 29.8954 10.614ZM11.2714 11.274C10.0714 12.472 9.54139 14.708 10.6134 18.104C10.8234 18.77 11.0934 19.464 11.4214 20.184C12.6014 18.624 13.9674 17.062 15.5154 15.514C16.9759 14.0455 18.5348 12.6784 20.1814 11.422C19.5059 11.1105 18.8119 10.8407 18.1034 10.614C14.7094 9.54202 12.4714 10.074 11.2714 11.274Z" fill="white"/>
</g>
<defs>
<clipPath id="clip0_847_302">
<rect width="48" height="48" fill="white"/>
</clipPath>
</defs>
</svg>
