<svg width="36" height="36" viewBox="0 0 36 36" fill="none" xmlns="http://www.w3.org/2000/svg">
<path d="M2.44339 2.44402C5.14939 -0.261977 9.22339 -0.489977 13.3094 0.800023C14.9415 1.33 16.5134 2.02983 17.9994 2.88802C19.6054 1.97602 21.1794 1.27802 22.6894 0.800023C26.7774 -0.491978 30.8494 -0.261977 33.5554 2.44402C36.2614 5.15002 36.4914 9.22402 35.1994 13.31C34.6694 14.9421 33.9696 16.5141 33.1114 18C34.0234 19.606 34.7214 21.18 35.1994 22.69C36.4914 26.776 36.2614 30.85 33.5554 33.556C30.8514 36.262 26.7754 36.492 22.6894 35.2C21.0573 34.6701 19.4853 33.9702 17.9994 33.112C16.3934 34.024 14.8194 34.722 13.3094 35.2C9.22339 36.49 5.14939 36.26 2.44339 33.556C-0.26261 30.85 -0.49061 26.776 0.79939 22.69C1.27739 21.178 1.97539 19.606 2.88739 18C2.02917 16.5141 1.32934 14.9421 0.79939 13.31C-0.49061 9.22402 -0.26061 5.15002 2.44339 2.44402ZM5.42139 21.818C5.10988 22.4935 4.84004 23.1875 4.61339 23.896C3.54139 27.29 4.07339 29.528 5.27339 30.728C6.47139 31.928 8.70939 32.458 12.1034 31.386C12.7694 31.176 13.4634 30.906 14.1834 30.578C12.5361 29.3218 10.9765 27.9546 9.51539 26.486C8.04617 25.0249 6.67833 23.4653 5.42139 21.818ZM30.5794 21.818C29.3225 23.4653 27.9546 25.0249 26.4854 26.486C25.0243 27.9553 23.4647 29.3231 21.8174 30.58C22.5354 30.906 23.2294 31.176 23.8954 31.386C27.2914 32.458 29.5274 31.926 30.7274 30.728C31.9274 29.528 32.4594 27.292 31.3874 23.896C31.1609 23.1868 30.891 22.4922 30.5794 21.816V21.818ZM17.9994 15C17.2037 15 16.4407 15.3161 15.8781 15.8787C15.3155 16.4413 14.9994 17.2044 14.9994 18C14.9994 18.7957 15.3155 19.5587 15.8781 20.1213C16.4407 20.684 17.2037 21 17.9994 21C18.795 21 19.5581 20.684 20.1207 20.1213C20.6833 19.5587 20.9994 18.7957 20.9994 18C20.9994 17.2044 20.6833 16.4413 20.1207 15.8787C19.5581 15.3161 18.795 15 17.9994 15ZM23.8954 4.61402C23.1862 4.84061 22.4916 5.11045 21.8154 5.42202C23.4636 6.67785 25.0239 8.04505 26.4854 9.51402C27.9546 10.9751 29.3224 12.5348 30.5794 14.182C30.9074 13.464 31.1754 12.77 31.3854 12.104C32.4594 8.70802 31.9274 6.47202 30.7274 5.27202C29.5274 4.07202 27.2914 3.54202 23.8954 4.61402ZM5.27139 5.27402C4.07139 6.47202 3.54139 8.70802 4.61339 12.104C4.82339 12.77 5.09339 13.464 5.42139 14.184C6.60139 12.624 7.96739 11.062 9.51539 9.51402C10.9759 8.04554 12.5348 6.67837 14.1814 5.42202C13.5059 5.11052 12.8119 4.84068 12.1034 4.61402C8.70939 3.54202 6.47139 4.07402 5.27139 5.27402Z" fill="white"/>
</svg>
