<svg width="44" height="37" viewBox="0 0 44 37" fill="none" xmlns="http://www.w3.org/2000/svg">
<mask id="mask0_730_4117" style="mask-type:luminance" maskUnits="userSpaceOnUse" x="0" y="0" width="44" height="37">
<path d="M22 34H5C4.20435 34 3.44129 33.6839 2.87868 33.1213C2.31607 32.5587 2 31.7956 2 31V5C2 4.20435 2.31607 3.44129 2.87868 2.87868C3.44129 2.31607 4.20435 2 5 2H39C39.7956 2 40.5587 2.31607 41.1213 2.87868C41.6839 3.44129 42 4.20435 42 5V17.059" stroke="white" stroke-width="4" stroke-linecap="round" stroke-linejoin="round"/>
<path d="M2 5C2 4.20435 2.31607 3.44129 2.87868 2.87868C3.44129 2.31607 4.20435 2 5 2H39C39.7957 2 40.5587 2.31607 41.1213 2.87868C41.6839 3.44129 42 4.20435 42 5V14H2V5Z" fill="white" stroke="white" stroke-width="4"/>
<path d="M6 8C6 6.89543 6.89543 6 8 6C9.10457 6 10 6.89543 10 8C10 9.10457 9.10457 10 8 10C6.89543 10 6 9.10457 6 8Z" fill="black"/>
<path d="M12 8C12 6.89543 12.8954 6 14 6C15.1046 6 16 6.89543 16 8C16 9.10457 15.1046 10 14 10C12.8954 10 12 9.10457 12 8Z" fill="black"/>
<path d="M35 31C36.6569 31 38 29.6569 38 28C38 26.3431 36.6569 25 35 25C33.3431 25 32 26.3431 32 28C32 29.6569 33.3431 31 35 31Z" stroke="white" stroke-width="4"/>
<path d="M34.9995 35V31M34.9995 25V21M28.9375 31.5L32.4015 29.5M37.5975 26.5L41.0615 24.5M28.9375 24.5L32.4015 26.5M37.5975 29.5L41.0615 31.5" stroke="white" stroke-width="4" stroke-linecap="round" stroke-linejoin="round"/>
</mask>
<g mask="url(#mask0_730_4117)">
<path d="M-2 -6H46V42H-2V-6Z" fill="white"/>
</g>
</svg>
