<svg width="32" height="33" viewBox="0 0 32 33" fill="none" xmlns="http://www.w3.org/2000/svg">
<rect y="0.190918" width="32" height="32" rx="16" fill="#454893"/>
<path d="M8.73333 22.1909C8.25667 22.1909 7.84876 22.0319 7.5096 21.714C7.16987 21.3955 7 21.0128 7 20.5659V10.8159C7 10.369 7.16987 9.98663 7.5096 9.66867C7.84876 9.35017 8.25667 9.19092 8.73333 9.19092H22.6C23.0767 9.19092 23.4849 9.35017 23.8246 9.66867C24.1638 9.98663 24.3333 10.369 24.3333 10.8159V20.5659C24.3333 21.0128 24.1638 21.3955 23.8246 21.714C23.4849 22.0319 23.0767 22.1909 22.6 22.1909H8.73333ZM15.6667 16.3612C15.7389 16.3612 15.8146 16.3509 15.8937 16.3304C15.9735 16.3103 16.0494 16.28 16.1217 16.2394L22.2533 12.644C22.3689 12.5763 22.4556 12.4918 22.5133 12.3905C22.5711 12.2887 22.6 12.1769 22.6 12.055C22.6 11.7841 22.4772 11.581 22.2317 11.4456C21.9861 11.3102 21.7333 11.317 21.4733 11.4659L15.6667 14.8784L9.86 11.4659C9.6 11.317 9.34722 11.3134 9.10167 11.4554C8.85611 11.5978 8.73333 11.7977 8.73333 12.055C8.73333 12.1904 8.76222 12.3088 8.82 12.41C8.87778 12.5119 8.96444 12.5899 9.08 12.644L15.2117 16.2394C15.2839 16.28 15.3599 16.3103 15.4396 16.3304C15.5188 16.3509 15.5944 16.3612 15.6667 16.3612Z" fill="white"/>
</svg>
