<svg width="33" height="32" viewBox="0 0 33 32" fill="none" xmlns="http://www.w3.org/2000/svg">
<path d="M17.999 25.697C17.999 25.697 15.4211 23.2707 14.5535 21.7091C14.062 20.8591 13.6927 19.9432 13.4565 18.9889L16.8727 19.9586C16.8727 19.9586 20.2097 17.9521 20.4642 17.8597C20.7186 17.7674 21.6655 14.6191 21.6655 14.6191C21.6655 14.6191 23.9388 18.2292 24.3226 19.8201L24.7939 21.7721C24.7939 21.7721 26.9922 22.8425 30.2791 21.0752C30.2791 21.0752 31.4137 20.4666 32.2688 21.9568C33.1239 23.447 32.2229 24.2865 31.4596 24.7315C30.6962 25.1765 28.5647 26.503 23.334 25.336C22.9093 25.7117 22.4513 26.0475 21.9658 26.3393C21.7614 26.3602 24.8607 27.6909 27.2216 27.3635C29.5825 27.0361 30.3959 26.4106 30.9507 26.5701C31.5054 26.7296 32.8945 27.502 32.6192 28.7614C32.3439 30.0207 30.4626 32.0524 24.9316 31.1163C19.0001 30.1088 17.1856 28.4088 15.2626 26.8724C12.6139 24.7735 9.84 19.9502 10.1737 14.9717C10.2917 12.434 11.0577 9.96987 12.3977 7.81693C13.7377 5.66399 15.6065 3.89498 17.8238 2.68059C17.8238 2.68059 15.346 0.83777 12.9392 2.18945C10.5324 3.54114 9.07249 5.56866 7.66261 7.82706C6.25273 10.0855 4.88456 11.8107 1.52671 9.92595C-1.83114 8.04115 1.339 7.57099 1.73527 7.68853C2.13154 7.80607 3.7041 9.94694 4.85953 8.54908C6.01497 7.15122 9.23517 2.6722 9.23517 2.6722C9.23517 2.6722 11.8047 -0.14871 15.1375 0.0150029C18.4703 0.178716 19.4923 1.62275 19.4923 1.62275C19.4923 1.62275 23.0128 0.0653745 25.8659 0.0066056C28.7191 -0.0521632 32.1228 0.266869 32.6525 1.54299C33.1823 2.81912 32.4356 4.45205 31.3678 4.53181C30.3 4.61156 25.5698 3.16753 23.797 4.42686C23.6764 4.82771 23.6395 5.24932 23.6885 5.66521C24.4425 5.40166 25.2281 5.24071 26.0244 5.18666C27.4468 5.06492 31.3261 5.70299 32.0811 6.89936C32.8319 7.31913 33.1489 9.20813 31.2885 10.1652C29.9168 9.7198 28.4909 9.46557 27.0506 9.40962C24.5478 9.28788 20.1638 12.2767 20.0053 13.7921C19.8468 15.3075 19.6841 16.6676 19.6841 16.6676L15.9592 18.6909L11.9423 17.0999C11.9423 17.0999 13.0811 20.9871 14.1864 22.4395C15.2518 23.7478 16.5434 24.8513 17.999 25.697Z" fill="#6C6FC3"/>
</svg>
