<svg width="32" height="33" viewBox="0 0 32 33" fill="none" xmlns="http://www.w3.org/2000/svg">
<rect y="0.190918" width="32" height="32" rx="16" fill="#454893"/>
<path d="M12.0154 8.45453C12.6156 8.65784 13.1865 8.93889 13.7137 9.2905C14.4582 9.10021 15.2238 9.00462 15.9923 9.00598C16.7859 9.00598 17.5515 9.10508 18.2692 9.2897C18.7962 8.93843 19.3669 8.65765 19.9667 8.45453C20.5238 8.26511 21.3174 7.95822 21.7889 8.4801C22.1086 8.83495 22.1885 9.42956 22.2453 9.88351C22.3092 10.3902 22.3244 11.0504 22.1565 11.7057C22.7983 12.5345 23.1851 13.5231 23.1851 14.6004C23.1851 16.2324 22.3012 17.6494 20.9929 18.6308C20.3633 19.0972 19.6649 19.4628 18.9229 19.7146C19.094 20.1062 19.1891 20.5393 19.1891 20.9941V23.3917C19.1891 23.6037 19.1049 23.807 18.955 23.9568C18.8051 24.1067 18.6018 24.1909 18.3899 24.1909H13.5946C13.3827 24.1909 13.1794 24.1067 13.0295 23.9568C12.8796 23.807 12.7954 23.6037 12.7954 23.3917V22.5997C12.0322 22.6932 11.392 22.6101 10.8478 22.3791C10.2787 22.1378 9.88232 21.7637 9.58421 21.4057C9.30129 21.0668 8.9928 20.3028 8.54684 20.1541C8.44724 20.121 8.35515 20.0685 8.27582 19.9997C8.19649 19.931 8.13148 19.8473 8.08451 19.7534C7.98963 19.5638 7.97396 19.3443 8.04094 19.1431C8.10792 18.942 8.25207 18.7757 8.44167 18.6808C8.63127 18.5859 8.85079 18.5702 9.05194 18.6372C9.58421 18.8147 9.93107 19.1983 10.1684 19.5068C10.5521 20.0023 10.8637 20.6496 11.4711 20.9078C11.7213 21.0141 12.0881 21.0836 12.662 21.0053L12.7954 20.9781C12.797 20.5432 12.8875 20.1132 13.0616 19.7146C12.3196 19.4628 11.6212 19.0972 10.9916 18.6308C9.68331 17.6494 8.79939 16.2332 8.79939 14.6004C8.79939 13.5247 9.18541 12.5369 9.82557 11.7089C9.65774 11.0535 9.67212 10.3918 9.73606 9.88431L9.74006 9.85394C9.7984 9.3888 9.86633 8.84134 10.1924 8.4801C10.6639 7.95822 11.4584 8.26591 12.0146 8.45533L12.0154 8.45453Z" fill="white"/>
</svg>
