<svg width="42" height="42" viewBox="0 0 42 42" fill="none" xmlns="http://www.w3.org/2000/svg">
<path d="M5.25 12.25C5.25 11.2835 6.0335 10.5 7 10.5H35C35.9665 10.5 36.75 11.2835 36.75 12.25C36.75 13.2165 35.9665 14 35 14H7C6.0335 14 5.25 13.2165 5.25 12.25ZM5.25 21C5.25 20.0335 6.0335 19.25 7 19.25H35C35.9665 19.25 36.75 20.0335 36.75 21C36.75 21.9665 35.9665 22.75 35 22.75H7C6.0335 22.75 5.25 21.9665 5.25 21ZM5.25 29.75C5.25 28.7835 6.0335 28 7 28H35C35.9665 28 36.75 28.7835 36.75 29.75C36.75 30.7165 35.9665 31.5 35 31.5H7C6.0335 31.5 5.25 30.7165 5.25 29.75Z" fill="#24254E"/>
</svg>
