<svg width="25" height="25" viewBox="0 0 25 25" fill="none" xmlns="http://www.w3.org/2000/svg">
<path d="M22.6968 1.5417L23.3114 2.15629C24.1582 3.0042 24.0301 4.50733 23.0228 5.51358L10.3489 18.1875L6.24261 19.6896C5.72699 19.8792 5.2249 19.6334 5.12282 19.1427C5.08832 18.9648 5.10456 18.7807 5.16969 18.6115L6.70094 14.4698L19.3395 1.83024C20.3468 0.823995 21.8499 0.693787 22.6968 1.5417ZM9.79574 2.80212C9.93253 2.80212 10.068 2.82906 10.1944 2.88141C10.3207 2.93376 10.4356 3.01049 10.5323 3.10722C10.629 3.20394 10.7058 3.31878 10.7581 3.44516C10.8105 3.57154 10.8374 3.70699 10.8374 3.84379C10.8374 3.98058 10.8105 4.11603 10.7581 4.24241C10.7058 4.3688 10.629 4.48363 10.5323 4.58036C10.4356 4.67708 10.3207 4.75381 10.1944 4.80616C10.068 4.85851 9.93253 4.88545 9.79574 4.88545H5.62907C5.07653 4.88545 4.54663 5.10495 4.15593 5.49565C3.76523 5.88635 3.54574 6.41625 3.54574 6.96879V19.4688C3.54574 20.0213 3.76523 20.5512 4.15593 20.9419C4.54663 21.3326 5.07653 21.5521 5.62907 21.5521H18.1291C18.6816 21.5521 19.2115 21.3326 19.6022 20.9419C19.9929 20.5512 20.2124 20.0213 20.2124 19.4688V15.3021C20.2124 15.0259 20.3221 14.7609 20.5175 14.5655C20.7129 14.3702 20.9778 14.2605 21.2541 14.2605C21.5303 14.2605 21.7953 14.3702 21.9906 14.5655C22.186 14.7609 22.2957 15.0259 22.2957 15.3021V19.4688C22.2957 20.5739 21.8567 21.6337 21.0753 22.4151C20.2939 23.1965 19.2341 23.6355 18.1291 23.6355H5.62907C4.524 23.6355 3.46419 23.1965 2.68279 22.4151C1.90139 21.6337 1.4624 20.5739 1.4624 19.4688V6.96879C1.4624 5.86372 1.90139 4.80391 2.68279 4.02251C3.46419 3.24111 4.524 2.80212 5.62907 2.80212H9.79574Z" fill="white"/>
</svg>
