<svg width="32" height="33" viewBox="0 0 32 33" fill="none" xmlns="http://www.w3.org/2000/svg">
<rect y="0.190918" width="32" height="32" rx="16" fill="#454893"/>
<path d="M11 11.1909C12.1046 11.1909 13 10.2955 13 9.19092C13 8.08635 12.1046 7.19092 11 7.19092C9.89543 7.19092 9 8.08635 9 9.19092C9 10.2955 9.89543 11.1909 11 11.1909Z" fill="white"/>
<path d="M14.4885 12.4562V23.19H17.8565V17.8819C17.8565 16.4813 18.1228 15.1248 19.8779 15.1248C21.6088 15.1248 21.6302 16.7262 21.6302 17.9703V23.1909H25V17.3045C25 14.413 24.3709 12.1909 20.9555 12.1909C19.3158 12.1909 18.2166 13.0814 17.7672 13.924H17.7216V12.4562H14.4885ZM9 12.4562H12.3734V23.19H9V12.4562Z" fill="white"/>
</svg>
