<svg width="32" height="33" viewBox="0 0 32 33" fill="none" xmlns="http://www.w3.org/2000/svg">
<rect y="0.190918" width="32" height="32" rx="16" fill="#454893"/>
<path d="M16.1879 7.19092C12.4143 7.19092 9 10.084 9 14.5585C9 17.4157 11.2013 20.7761 15.5949 24.6485C15.9363 24.945 16.4485 24.945 16.7899 24.6485C21.1745 20.7761 23.3758 17.4157 23.3758 14.5585C23.3758 10.084 19.9616 7.19092 16.1879 7.19092ZM16.1879 16.1758C15.1996 16.1758 14.3909 15.3672 14.3909 14.3788C14.3909 13.3905 15.1996 12.5818 16.1879 12.5818C17.1762 12.5818 17.9849 13.3905 17.9849 14.3788C17.9849 15.3672 17.1762 16.1758 16.1879 16.1758Z" fill="white"/>
</svg>
