<svg width="207" height="74" viewBox="0 0 207 74" fill="none" xmlns="http://www.w3.org/2000/svg">
<g clip-path="url(#clip0_730_2244)">
<path d="M63.3351 46.4214C60.2675 46.4974 57.2892 45.3743 55.0204 43.286C53.9433 42.3081 53.0818 41.112 52.4921 39.7754C51.9024 38.4388 51.5977 36.9918 51.5977 35.5283C51.5977 34.0649 51.9024 32.6178 52.4921 31.2813C53.0818 29.9447 53.9433 28.7486 55.0204 27.7707C57.3344 25.7476 60.2916 24.6343 63.3511 24.6343C66.4106 24.6343 69.3678 25.7476 71.6817 27.7707C72.7544 28.7513 73.6119 29.9483 74.1987 31.2845C74.7855 32.6207 75.0887 34.0664 75.0887 35.5283C75.0887 36.9903 74.7855 38.4359 74.1987 39.7721C73.6119 41.1083 72.7544 42.3054 71.6817 43.286C69.4063 45.3844 66.4141 46.5085 63.3351 46.4214ZM60.7 38.1789C61.4282 38.8292 62.3665 39.1882 63.3383 39.1882C64.3101 39.1882 65.2483 38.8292 65.9766 38.1789C66.6335 37.4687 66.9989 36.5329 66.9989 35.5607C66.9989 34.5885 66.6335 33.6526 65.9766 32.9424C65.2502 32.2881 64.3112 31.9266 63.3383 31.9266C62.3653 31.9266 61.4263 32.2881 60.7 32.9424C60.0388 33.6504 59.6705 34.5871 59.6705 35.5607C59.6705 36.5342 60.0388 37.4709 60.7 38.1789Z" fill="#6C6FC3"/>
<path d="M92.4816 16.968H100.553V45.8459H92.4816V43.997C91.0873 45.6175 89.1387 46.4278 86.6358 46.4278C85.2864 46.4736 83.9433 46.2221 82.6996 45.6907C81.456 45.1594 80.3417 44.3608 79.434 43.3505C77.6321 41.1607 76.6455 38.4023 76.6455 35.5541C76.6455 32.7058 77.6321 29.9475 79.434 27.7576C80.3402 26.7442 81.4538 25.9422 82.6974 25.4075C83.9411 24.8728 85.285 24.6181 86.6358 24.661C89.1387 24.661 91.0873 25.4734 92.4816 27.0982V16.968ZM85.7851 38.3016C86.5497 39.0205 87.5551 39.4201 88.5993 39.4201C89.6435 39.4201 90.649 39.0205 91.4135 38.3016C91.963 37.7541 92.3365 37.0519 92.4851 36.2866C92.6338 35.5214 92.5508 34.7286 92.2469 34.0117C91.9431 33.2949 91.4325 32.6872 90.7818 32.2681C90.1311 31.849 89.3705 31.6379 88.5993 31.6623C87.8388 31.6631 87.0952 31.8891 86.4606 32.3126C85.8259 32.7361 85.328 33.3384 85.0285 34.045C84.729 34.7515 84.6411 35.5314 84.7756 36.2879C84.91 37.0445 85.261 37.7446 85.7851 38.3016Z" fill="#6C6FC3"/>
<path d="M111.151 38.1335C111.846 39.5084 113.339 40.1958 115.628 40.1958C116.974 40.2008 118.282 39.7451 119.338 38.9028L124.621 43.1049C122.442 45.3374 119.357 46.4515 115.366 46.4472C111.644 46.4472 108.659 45.4236 106.412 43.3764C105.317 42.4151 104.447 41.2211 103.862 39.8801C103.277 38.539 102.992 37.0839 103.028 35.6188C102.995 34.1502 103.272 32.6913 103.84 31.3392C104.408 29.9871 105.254 28.7728 106.322 27.7771C108.577 25.665 111.565 24.5382 114.637 24.6417C117.659 24.5324 120.601 25.6391 122.817 27.7189C124.163 29.0439 125.136 30.7063 125.637 32.5362C126.138 34.3661 126.15 36.2978 125.67 38.1335H111.151ZM111.017 33.2203H118.347C117.856 31.574 116.679 30.7508 114.816 30.7508C112.953 30.7508 111.689 31.574 111.023 33.2203H111.017Z" fill="#6C6FC3"/>
<path d="M77.4507 60.0103C78.1149 61.3353 79.4435 61.9978 81.516 61.9978C82.7603 61.9921 83.9618 61.5434 84.9037 60.7324L89.7197 64.7803C87.7269 66.9268 84.9126 68 81.2768 68C77.8758 68 75.1479 67.0129 73.0931 65.0387C72.0805 64.0809 71.282 62.9209 70.7497 61.6343C70.2174 60.3477 69.9634 58.9635 70.0042 57.5723C69.9668 56.1745 70.2152 54.7837 70.7344 53.4848C71.2535 52.1859 72.0326 51.006 73.024 50.0173C74.0154 49.0285 75.1984 48.2515 76.5008 47.7337C77.8032 47.2159 79.1977 46.9682 80.5993 47.0056C81.9812 46.9596 83.3577 47.199 84.6426 47.7086C85.9274 48.2182 87.0928 48.987 88.0656 49.9669C89.0342 50.9455 89.7934 52.1101 90.2969 53.3902C90.8005 54.6702 91.038 56.039 90.9951 57.4134C90.9956 58.2844 90.8885 59.1522 90.6762 59.9971L77.4507 60.0103ZM77.3311 55.2801H84.0269C83.8726 54.5585 83.4594 53.918 82.8649 53.4788C82.2705 53.0396 81.5357 52.8321 80.7986 52.8951C80.0353 52.8428 79.2768 53.0501 78.647 53.4833C78.0172 53.9165 77.5533 54.55 77.3311 55.2801Z" fill="#EF8723"/>
<path d="M93 68V39H101V68H93Z" fill="#EF8723"/>
<path d="M118 45.738C117.206 45.6186 116.395 45.776 115.703 46.1835C115.439 46.3525 115.224 46.5869 115.078 46.8637C114.932 47.1406 114.86 47.4504 114.87 47.763H118V54.8844H114.87V68H107.357V54.8844H105V47.763H107.357C107.357 44.8469 108.261 42.6126 110.067 41.0601C111.874 39.5076 114.513 38.8325 117.986 39.035L118 45.738Z" fill="#EF8723"/>
<path d="M127.451 60.0103C128.115 61.3353 129.443 61.9978 131.516 61.9978C132.758 61.9917 133.957 61.5429 134.897 60.7324L139.72 64.7803C137.727 66.9268 134.913 68 131.277 68C127.876 68 125.146 67.0129 123.086 65.0387C122.077 64.0786 121.282 62.9179 120.751 61.6318C120.22 60.3456 119.965 58.9627 120.004 57.5723C119.965 56.174 120.212 54.7824 120.73 53.4826C121.249 52.1828 122.028 51.0022 123.02 50.013C124.011 49.0238 125.195 48.2469 126.498 47.7298C127.802 47.2127 129.197 46.9662 130.599 47.0056C131.981 46.9596 133.358 47.199 134.643 47.7086C135.927 48.2182 137.093 48.987 138.066 49.9669C139.034 50.9455 139.793 52.1101 140.297 53.3902C140.801 54.6702 141.038 56.039 140.995 57.4134C140.996 58.2844 140.889 59.1522 140.676 59.9971L127.451 60.0103ZM127.331 55.2801H134.027C133.871 54.5592 133.458 53.9195 132.864 53.4806C132.269 53.0416 131.535 52.8335 130.798 52.8951C130.035 52.8428 129.277 53.0501 128.647 53.4833C128.017 53.9165 127.553 54.55 127.331 55.2801Z" fill="#EF8723"/>
<path d="M150.745 52.1959C151.083 50.9354 151.9 49.8346 153.041 49.1005C154.209 48.3601 155.591 47.9762 157 48.0011V55.8541C155.469 55.6164 153.9 55.9472 152.623 56.7768C151.371 57.6014 150.745 58.9102 150.745 60.7033V68H143V48.3676H150.717L150.745 52.1959Z" fill="#EF8723"/>
<path d="M59.688 34.4H68.232V68H59.688V55.088H50.232V68H41.64V34.4H50.232V46.832H59.688V34.4Z" fill="#EF8723"/>
<path d="M27.5984 39.5743C27.5984 39.5743 23.6457 35.8377 22.3154 33.4328C21.5618 32.1237 20.9955 30.7133 20.6333 29.2436L25.8715 30.737C25.8715 30.737 30.9882 27.6469 31.3784 27.5046C31.7685 27.3624 33.2204 22.5139 33.2204 22.5139C33.2204 22.5139 36.7062 28.0735 37.2946 30.5237L38.0173 33.5298C38.0173 33.5298 41.388 35.1783 46.428 32.4566C46.428 32.4566 48.1676 31.5192 49.4788 33.8142C50.79 36.1092 49.4084 37.4021 48.238 38.0874C47.0675 38.7726 43.7992 40.8155 35.7788 39.0183C35.1276 39.5969 34.4254 40.1141 33.6809 40.5634C33.3675 40.5957 38.1197 42.645 41.7397 42.1408C45.3598 41.6365 46.607 40.6733 47.4577 40.9189C48.3083 41.1646 50.4382 42.3541 50.0161 44.2935C49.5939 46.2329 46.7094 49.3619 38.2284 47.9202C29.1334 46.3687 26.3512 43.7505 23.4027 41.3844C19.3413 38.152 15.088 30.7241 15.5997 23.0569C15.7807 19.1489 16.9552 15.3539 19.0098 12.0383C21.0645 8.72275 23.93 5.99841 27.3298 4.1282C27.3298 4.1282 23.5306 1.2902 19.8402 3.37184C16.1497 5.45348 13.9112 8.57593 11.7493 12.054C9.58752 15.532 7.48966 18.189 2.34095 15.2863C-2.80775 12.3837 2.05314 11.6596 2.66075 11.8406C3.26836 12.0216 5.67962 15.3186 7.45128 13.1659C9.22295 11.0131 14.1606 4.11527 14.1606 4.11527C14.1606 4.11527 18.1005 -0.229019 23.2108 0.0231051C28.3211 0.275229 29.8881 2.49909 29.8881 2.49909C29.8881 2.49909 35.2863 0.100679 39.6611 0.0101729C44.0359 -0.0803332 49.2549 0.410988 50.0672 2.37626C50.8795 4.34154 49.7346 6.85631 48.0973 6.97914C46.4599 7.10197 39.207 4.87811 36.4887 6.81752C36.3039 7.43485 36.2472 8.08414 36.3224 8.72462C37.4785 8.31874 38.6831 8.07088 39.9041 7.98764C42.0851 7.80016 48.0333 8.78281 49.191 10.6253C50.3422 11.2717 50.8283 14.1809 47.9758 15.6548C45.8724 14.9688 43.686 14.5773 41.4775 14.4911C37.64 14.3037 30.9179 18.9066 30.6748 21.2403C30.4318 23.5741 30.1823 25.6687 30.1823 25.6687L24.4708 28.7847L18.3115 26.3345C18.3115 26.3345 20.0576 32.3209 21.7525 34.5576C23.386 36.5724 25.3665 38.2719 27.5984 39.5743Z" fill="#6C6FC3"/>
</g>
<defs>
<clipPath id="clip0_730_2244">
<rect width="207" height="74" fill="white"/>
</clipPath>
</defs>
</svg>
