<svg width="47" height="85" viewBox="0 0 47 85" fill="none" xmlns="http://www.w3.org/2000/svg">
<g clip-path="url(#clip0_58_297)">
<path d="M26.4773 0.200196L35.9768 0.333673C36.2355 0.315425 36.4951 0.315425 36.7538 0.333673C37.3122 0.412545 37.5429 0.709831 37.3608 1.23767C37.2697 1.51374 37.2226 1.80243 37.2212 2.09313C37.2576 8.43325 37.2212 14.7673 37.3426 21.1013C37.4761 29.2373 37.4215 37.3794 37.5429 45.5153C37.6097 50.0839 37.64 54.6524 37.6825 59.2148C37.6825 60.2948 37.6826 60.3433 38.7691 60.3858C40.7127 60.5597 42.6666 60.5881 44.6145 60.4707C45.0515 60.4282 45.5007 60.4707 45.9438 60.4707C46.128 60.4525 46.3136 60.4861 46.4798 60.5675C46.646 60.649 46.7862 60.7751 46.8847 60.9318C47.1214 61.3322 46.8361 61.6174 46.5993 61.9025L42.8542 66.3983C37.9982 72.1499 33.1786 77.8772 28.4076 83.6713C28.1112 84.0821 27.722 84.4171 27.2716 84.649C26.8212 84.8809 26.3223 85.0033 25.8157 85.006C23.3877 85.0364 20.9597 84.9029 18.5317 84.7573C18.2613 84.7237 18.0014 84.632 17.7699 84.4885C17.5383 84.3451 17.3406 84.1532 17.1902 83.9261C14.9625 81.3172 13.0808 78.4657 11.0838 75.6749C7.66028 70.9304 4.27327 66.1556 0.594856 61.6053C0.429708 61.4134 0.277616 61.2107 0.139606 60.9986C0.0260392 60.8526 -0.027249 60.6687 -0.00917984 60.4847C0.00888931 60.3007 0.0968855 60.1307 0.236673 60.0096C0.483368 59.724 0.790566 59.4969 1.13598 59.3448C1.4814 59.1926 1.8564 59.1192 2.23373 59.1299C4.22469 59.1299 6.20955 59.0632 8.20051 59.1663C8.89249 59.2027 9.5845 59.318 10.2825 59.3665C11.1202 59.4272 11.2173 59.3665 11.1081 58.5535C10.9746 57.0873 10.932 55.6142 10.9806 54.1427C10.9442 51.273 11.0231 48.3972 10.8835 45.5275C10.5496 38.8537 10.5618 32.1313 10.4282 25.4332C10.3615 21.9386 10.3736 18.4379 10.2158 14.9432C10.0762 12.0371 10.1248 9.13096 10.0883 6.21875C10.1098 6.1106 10.1098 5.99929 10.0883 5.89113C9.5299 4.75052 10.3311 4.33796 11.1141 3.86472C12.8615 2.91451 14.4506 1.69872 15.8245 0.260866C15.9151 0.171146 16.0253 0.103638 16.1464 0.0636365C16.2675 0.0236353 16.3963 0.0122313 16.5225 0.0303182C19.8428 0.0303182 23.157 0.0303182 26.4713 0.0303182L26.4773 0.200196ZM7.66034 60.4889C8.96539 62.6245 22.9688 78.9754 26.9568 83.0585C27.9159 82.2698 44.2928 62.6913 44.6084 61.9511C42.2561 61.9809 39.9043 61.8614 37.5672 61.5931C36.3532 61.4233 36.3532 61.4597 36.3532 60.2766C36.426 52.3893 36.2075 44.5021 36.1772 36.6149C36.1286 25.2755 36.0072 13.93 35.9101 2.58456C35.9101 1.66237 36.0679 1.60776 34.9693 1.59563C29.1866 1.53091 23.4018 1.45608 17.6151 1.37115C17.0566 1.37115 16.7835 1.49249 16.8746 2.08706C16.8867 2.2709 16.8867 2.45533 16.8746 2.63917C16.9595 7.4261 16.9474 12.213 17.0628 17C17.2084 23.0003 17.2024 29.0068 17.2813 35.0071C17.3905 43.2584 17.4816 51.5035 17.5969 59.7548C17.6091 59.9386 17.6091 60.1231 17.5969 60.3069C17.5963 60.4085 17.5738 60.5087 17.5311 60.6008C17.4883 60.6929 17.4263 60.7748 17.3492 60.841C17.2721 60.9071 17.1818 60.9559 17.0842 60.9842C16.9866 61.0124 16.884 61.0194 16.7835 61.0046C15.1021 60.9561 13.4208 60.8469 11.7394 60.7195C10.3951 60.5446 9.04016 60.4635 7.68457 60.4768L7.66034 60.4889Z" fill="#0F1431"/>
<path d="M7.66034 60.4889C8.96539 62.6245 22.9688 78.9754 26.9568 83.0585C27.9159 82.2698 44.2928 62.6913 44.6084 61.9511C42.2561 61.9809 39.9043 61.8614 37.5672 61.5931C36.3532 61.4233 36.3532 61.4597 36.3532 60.2766C36.426 52.3893 36.2075 44.5021 36.1772 36.6149C36.1286 25.2755 36.0072 13.93 35.9101 2.58456C35.9101 1.66237 36.0679 1.60776 34.9693 1.59563C29.1866 1.53091 23.4018 1.45608 17.6151 1.37115C17.0566 1.37115 16.7835 1.49249 16.8746 2.08706C16.8867 2.2709 16.8867 2.45533 16.8746 2.63917C16.9595 7.4261 16.9474 12.213 17.0628 17C17.2084 23.0003 17.2024 29.0068 17.2813 35.0071C17.3905 43.2584 17.4816 51.5035 17.5969 59.7548C17.6091 59.9386 17.6091 60.1231 17.5969 60.3069C17.5963 60.4085 17.5738 60.5087 17.5311 60.6008C17.4883 60.6929 17.4263 60.7748 17.3492 60.841C17.2721 60.9071 17.1818 60.9559 17.0842 60.9842C16.9866 61.0124 16.884 61.0194 16.7835 61.0046C15.1021 60.9561 13.4208 60.8469 11.7394 60.7195C10.3951 60.5446 9.04016 60.4635 7.68457 60.4768L7.66034 60.4889Z" fill="#E9EDFB"/>
<path d="M32.171 40.0976L31.9707 20.8831C31.9555 20.5881 31.9555 20.2924 31.9707 19.9973C31.9707 19.6333 32.1649 19.3421 32.5777 19.336C32.9904 19.33 33.1847 19.6272 33.2151 19.9731C33.2505 20.3015 33.2647 20.6318 33.2575 20.962C33.2939 26.0098 33.2576 31.0516 33.379 36.0933C33.5064 41.2807 33.4942 46.4741 33.5428 51.6615C33.5428 54.24 33.6399 56.8125 33.7006 59.391C33.7341 59.6833 33.7341 59.9784 33.7006 60.2707C33.6952 60.3566 33.6729 60.4405 33.6347 60.5177C33.5966 60.5948 33.5436 60.6636 33.4786 60.72C33.4137 60.7765 33.3381 60.8195 33.2564 60.8465C33.1747 60.8735 33.0884 60.884 33.0026 60.8774C32.9186 60.8777 32.8355 60.8605 32.7585 60.8271C32.6815 60.7936 32.6123 60.7445 32.5552 60.6829C32.4982 60.6213 32.4546 60.5486 32.4271 60.4693C32.3996 60.39 32.3889 60.3058 32.3956 60.2222C32.3956 60.0766 32.3956 59.931 32.3956 59.7854C32.3228 53.2329 32.2459 46.6804 32.165 40.128L32.171 40.0976Z" fill="#0F1431"/>
<path d="M14.6287 64.8875C14.645 64.7938 14.6843 64.7056 14.7434 64.6311C14.8024 64.5565 14.8791 64.4979 14.9666 64.4605C15.0541 64.4231 15.1495 64.4082 15.2442 64.417C15.3389 64.4259 15.4299 64.4583 15.5088 64.5113C15.742 64.6801 15.9469 64.8849 16.1158 65.118C19.2419 68.8735 22.283 72.7019 25.5972 76.2936C25.9128 76.6334 26.0768 76.961 25.7186 77.3493C25.3605 77.7376 25.0024 77.598 24.5775 77.1248C23.3635 75.7597 22.1495 74.3825 20.9355 72.981C18.9749 70.6451 17.0445 68.279 15.1082 65.9249C14.9627 65.793 14.8452 65.6332 14.7628 65.455C14.6805 65.2767 14.6349 65.0837 14.6287 64.8875Z" fill="#0F1431"/>
<path d="M31.7097 13.0623C31.3769 13.0054 31.0637 12.8656 30.7992 12.6558C28.9297 11.4848 27.1572 10.1561 25.3848 8.87599C24.2193 8.03873 23.0296 7.24394 21.846 6.44915L21.2997 6.07906C20.9294 5.82424 20.6927 5.47235 20.9901 5.05978C21.2875 4.64722 21.6881 4.82923 22.0523 5.05978C24.0979 6.35814 26.0342 7.82031 28.0191 9.20967C29.3302 10.1319 30.5261 11.2543 32.0921 11.77C32.4381 11.8853 32.4866 12.1947 32.4138 12.5041C32.3687 12.6586 32.2768 12.7953 32.1507 12.8953C32.0245 12.9953 31.8705 13.0536 31.7097 13.0623Z" fill="#0F1431"/>
<path d="M29.7551 76.0391C29.6317 76.0276 29.5127 75.9877 29.4074 75.9224C29.302 75.8571 29.2133 75.7683 29.1481 75.663C29.0791 75.5508 29.0511 75.4182 29.0688 75.2877C29.0865 75.1572 29.1488 75.0368 29.2452 74.9471C31.7339 72.5202 33.4396 69.4867 35.7887 66.9264C36.0648 66.6313 36.3609 66.3556 36.6749 66.1012C36.7237 66.0582 36.7806 66.0253 36.8423 66.0045C36.9039 65.9836 36.9692 65.9752 37.0341 65.9797C37.0991 65.9842 37.1625 66.0016 37.2206 66.0308C37.2788 66.06 37.3306 66.1004 37.373 66.1498C37.4702 66.2381 37.5322 66.3585 37.5478 66.4889C37.5634 66.6192 37.5315 66.7509 37.458 66.8596C37.3572 67.0126 37.2434 67.1568 37.118 67.2904C35.297 69.3289 33.7067 71.5374 32.0739 73.7033C31.6126 74.31 31.1026 74.9167 30.5988 75.487C30.3931 75.7664 30.0936 75.9624 29.7551 76.0391Z" fill="#0F1431"/>
<path d="M20.468 41.5477C20.4657 41.4281 20.4964 41.3102 20.5569 41.2069C20.6173 41.1037 20.7051 41.0192 20.8106 40.9627C20.9161 40.9062 21.0352 40.8799 21.1547 40.8868C21.2742 40.8937 21.3894 40.9334 21.4877 41.0017C21.8372 41.2699 22.1678 41.5618 22.4772 41.8753C24.7948 43.8026 27.2273 45.5876 29.7612 47.2204C30.0089 47.3744 30.2462 47.5446 30.4714 47.7301C30.5651 47.8196 30.6239 47.9396 30.6373 48.0686C30.6506 48.1975 30.6176 48.327 30.5442 48.4338C30.4848 48.5391 30.3952 48.6242 30.2871 48.6782C30.1789 48.7323 30.0571 48.7528 29.9372 48.7372C29.6468 48.6871 29.3746 48.5615 29.1481 48.3732C26.3025 46.5483 23.5923 44.5207 21.0386 42.3061C20.5894 41.9542 20.4741 41.7904 20.468 41.5477Z" fill="#0F1431"/>
<path d="M21.324 51.0304C21.3247 50.9289 21.3509 50.8292 21.4002 50.7405C21.4495 50.6518 21.5202 50.5768 21.606 50.5225C21.6917 50.4682 21.7897 50.4362 21.891 50.4295C21.9923 50.4229 22.0937 50.4417 22.1859 50.4843C22.4076 50.6033 22.6119 50.7524 22.7929 50.9272C25.1278 52.8202 27.5093 54.6666 29.9373 56.4665C30.1197 56.5875 30.2833 56.7347 30.4229 56.9033C30.5068 57.0037 30.5528 57.1304 30.5528 57.2613C30.5528 57.3921 30.5068 57.5188 30.4229 57.6192C30.3511 57.7068 30.2561 57.7726 30.1488 57.809C30.0415 57.8455 29.9262 57.8512 29.8159 57.8255C29.5273 57.7659 29.2619 57.6248 29.0511 57.419L21.7185 51.7706C21.5962 51.6898 21.4962 51.5797 21.4273 51.4505C21.3584 51.3212 21.3229 51.1768 21.324 51.0304Z" fill="#0F1431"/>
<path d="M28.62 27.8906C28.3623 27.8682 28.1191 27.7616 27.928 27.5873L22.2465 23.4192C22.0984 23.3103 21.9621 23.1863 21.8399 23.0491C21.7792 22.9923 21.7309 22.9237 21.6978 22.8475C21.6648 22.7714 21.6477 22.6892 21.6477 22.6062C21.6477 22.5231 21.6648 22.441 21.6978 22.3648C21.7309 22.2886 21.7792 22.22 21.8399 22.1633C21.8948 22.088 21.9654 22.0256 22.0469 21.9804C22.1284 21.9351 22.2187 21.9081 22.3116 21.9012C22.4046 21.8943 22.4979 21.9076 22.5852 21.9403C22.6725 21.973 22.7516 22.0242 22.8171 22.0905C24.7292 23.6982 26.8597 25.0148 28.79 26.5922C28.9383 26.699 29.0693 26.8279 29.1785 26.9745C29.235 27.0693 29.2645 27.1777 29.264 27.288C29.2634 27.3984 29.2328 27.5065 29.1754 27.6007C29.1179 27.6949 29.0359 27.7717 28.938 27.8228C28.8402 27.8739 28.7302 27.8973 28.62 27.8906Z" fill="#0F1431"/>
<path d="M22.8596 32.7077C22.8596 32.0221 23.2724 31.7248 23.8126 31.9493C24.0082 32.0458 24.19 32.1683 24.3529 32.3133C25.9644 33.6344 27.6594 34.8504 29.4274 35.9536C29.5552 36.026 29.6752 36.1114 29.7855 36.2084C29.8585 36.2504 29.9219 36.3072 29.9718 36.375C30.0216 36.4429 30.0567 36.5203 30.075 36.6025C30.0932 36.6847 30.0943 36.7697 30.0779 36.8523C30.0615 36.9349 30.028 37.0131 29.9797 37.0821C29.9363 37.1641 29.8748 37.2351 29.7997 37.2896C29.7246 37.3441 29.638 37.3807 29.5465 37.3965C29.4551 37.4123 29.3612 37.407 29.2721 37.3809C29.1831 37.3547 29.1012 37.3086 29.0328 37.2459C27.5884 36.3768 26.1997 35.4183 24.8749 34.3761C24.442 33.9274 23.9156 33.5794 23.3331 33.3569C23.1885 33.325 23.0607 33.2414 22.9735 33.1218C22.8863 33.0023 22.8457 32.855 22.8596 32.7077Z" fill="#0F1431"/>
<path d="M23.5394 27.5323C23.5206 27.4139 23.5347 27.2927 23.5801 27.1817C23.6255 27.0707 23.7004 26.9743 23.7968 26.903C23.8932 26.8317 24.0074 26.7882 24.1269 26.7772C24.2463 26.7662 24.3664 26.7882 24.4742 26.8407C24.6373 26.9255 24.7884 27.0316 24.9234 27.1562L28.3165 29.9653C28.5316 30.1193 28.7345 30.2897 28.9235 30.4749C29.0278 30.5796 29.0903 30.7187 29.0992 30.8661C29.1081 31.0136 29.063 31.1592 28.9721 31.2757C28.8834 31.3948 28.7541 31.4773 28.6087 31.5074C28.4633 31.5376 28.3118 31.5135 28.183 31.4396C27.9316 31.2905 27.6922 31.1221 27.4668 30.936C26.2892 30.0745 25.2755 28.9885 23.9765 28.2786C23.8443 28.2037 23.7343 28.0953 23.6575 27.9642C23.5808 27.8332 23.54 27.6842 23.5394 27.5323Z" fill="#0F1431"/>
<path d="M28.4076 51.8554C28.159 51.8392 27.9234 51.7386 27.7399 51.5702C27.1977 51.1941 26.6574 50.8118 26.1192 50.4235C25.7446 50.0771 25.3188 49.7906 24.8567 49.5741C24.7363 49.5286 24.6279 49.4564 24.5395 49.3629C24.4512 49.2694 24.3852 49.1571 24.3466 49.0344C24.3081 48.9117 24.2979 48.7819 24.3169 48.6546C24.3358 48.5274 24.3834 48.4062 24.456 48.3001C24.7231 47.93 25.148 47.8875 25.6093 48.3001C26.5826 49.1421 27.6063 49.9242 28.6747 50.642C28.8268 50.7135 28.9476 50.8379 29.0146 50.992C29.0816 51.1461 29.0903 51.3193 29.0389 51.4792C28.9893 51.6023 28.9007 51.7057 28.7867 51.7736C28.6727 51.8416 28.5395 51.8703 28.4076 51.8554Z" fill="#0F1431"/>
<path d="M28.2558 6.26752C28.2555 6.1666 28.2803 6.06718 28.3281 5.97828C28.3759 5.88938 28.4451 5.81379 28.5295 5.75837C28.6139 5.70295 28.7107 5.66944 28.8113 5.66088C28.9119 5.65232 29.0131 5.66898 29.1056 5.70935C29.3566 5.86072 29.5943 6.03325 29.8159 6.22505C30.5503 6.76502 31.2119 7.40207 31.995 7.88137C32.2924 8.06338 32.4988 8.3364 32.2681 8.70649C32.2321 8.7796 32.1818 8.84473 32.1201 8.89797C32.0584 8.95122 31.9866 8.99151 31.909 9.01642C31.8314 9.04133 31.7496 9.05037 31.6684 9.04299C31.5873 9.0356 31.5083 9.01195 31.4365 8.97344C30.3098 8.30379 29.2771 7.48773 28.3651 6.5466C28.3074 6.46337 28.27 6.36779 28.2558 6.26752Z" fill="#0F1431"/>
<path d="M28.5776 41.8325C28.4319 41.7719 28.2255 41.693 28.0312 41.602C27.3324 41.1971 26.6109 40.8325 25.8704 40.5099C25.7778 40.4863 25.692 40.4411 25.6201 40.3781C25.5483 40.3151 25.4924 40.2361 25.4569 40.1474C25.4214 40.0587 25.4074 39.9629 25.4159 39.8677C25.4245 39.7726 25.4553 39.6808 25.5061 39.5999C25.5299 39.5095 25.5743 39.4258 25.6358 39.3553C25.6972 39.2849 25.7741 39.2296 25.8605 39.1938C25.9469 39.158 26.0404 39.1426 26.1337 39.1488C26.227 39.1551 26.3176 39.1828 26.3984 39.2298C27.2847 39.6666 28.1466 40.158 29.0085 40.6555C29.1376 40.7308 29.2344 40.851 29.2804 40.9932C29.3263 41.1354 29.3181 41.2895 29.2574 41.426C29.2015 41.5569 29.1057 41.6667 28.9835 41.7397C28.8614 41.8127 28.7193 41.8452 28.5776 41.8325Z" fill="#0F1431"/>
<path d="M30.0707 5.09639C30.0652 5.00411 30.0839 4.91199 30.1247 4.82904C30.1655 4.74609 30.2271 4.67515 30.3036 4.62317C30.3801 4.57119 30.4688 4.53994 30.561 4.5325C30.6531 4.52505 30.7456 4.54166 30.8295 4.58069C31.1206 4.7322 31.3901 4.92197 31.6308 5.14493C32.171 5.58176 32.693 6.03679 33.2333 6.47362C33.5428 6.7163 33.8402 6.98932 33.4881 7.37155C33.1361 7.75378 32.8265 7.58997 32.517 7.37155C32.0253 6.98932 31.5518 6.58889 31.0723 6.2006C30.8477 6.01252 30.6171 5.83051 30.3925 5.65456C30.3044 5.5876 30.2305 5.50374 30.1753 5.40789C30.12 5.31204 30.0845 5.20614 30.0707 5.09639Z" fill="#0F1431"/>
<path d="M18.9262 65.1181C18.7077 65.1181 18.4892 65.1181 18.2707 65.1181C18.1097 65.1181 17.9553 65.0542 17.8415 64.9404C17.7276 64.8266 17.6637 64.6723 17.6637 64.5114C17.6571 64.3428 17.7169 64.1784 17.8305 64.0535C17.944 63.9287 18.1022 63.8534 18.2707 63.844C18.8501 63.7905 19.4344 63.8545 19.9885 64.0321C20.2798 64.1049 20.3406 64.3779 20.3163 64.6388C20.3162 64.75 20.2764 64.8576 20.2041 64.9421C20.1318 65.0266 20.0316 65.0826 19.9217 65.0999C19.6 65.1484 19.2722 65.1424 18.9445 65.1606L18.9262 65.1181Z" fill="#0F1431"/>
</g>
<defs>
<clipPath id="clip0_58_297">
<rect width="47" height="85" fill="white"/>
</clipPath>
</defs>
</svg>
