<svg width="607" height="647" viewBox="0 0 607 647" fill="none" xmlns="http://www.w3.org/2000/svg">
<path d="M201.426 549.403C208.683 554.616 223.434 555.873 224.238 545C224.682 539.468 220.247 538.642 216.468 536.318C211.794 533.484 213.025 529.113 209.673 525.399C208.707 524.111 207.402 523.116 205.904 522.528C204.406 521.939 202.773 521.78 201.191 522.068C191.311 524.326 194.475 540.695 198.573 546.644C199.351 547.727 200.318 548.662 201.426 549.403Z" fill="#EEF0F8"/>
<path d="M216.793 563.42C216.735 564.524 216.314 565.577 215.596 566.417C214.879 567.256 213.904 567.835 212.823 568.064C209.245 568.582 207.838 564.802 208.393 561.904C208.56 560.511 209.195 559.215 210.194 558.23C210.691 557.776 211.322 557.496 211.993 557.433C212.663 557.37 213.336 557.527 213.91 557.88C215.366 559.424 216.365 561.342 216.793 563.42Z" fill="#EEF0F8"/>
<path d="M202.419 565.662C201.211 567.087 199.613 568.128 197.821 568.655C196.923 568.907 195.964 568.838 195.11 568.462C194.255 568.086 193.557 567.425 193.135 566.592C192.913 565.79 192.877 564.949 193.027 564.132C193.178 563.315 193.512 562.543 194.005 561.875C194.812 560.464 195.743 559.128 196.785 557.881C197.837 556.439 199.328 555.377 201.034 554.852C208.422 553.267 204.841 563.043 202.419 565.662Z" fill="#EEF0F8"/>
<path d="M193.417 549.493C193.172 551.164 192.58 552.765 191.678 554.193C190.775 555.62 189.583 556.841 188.178 557.777C187.463 558.33 186.643 558.731 185.768 558.957C184.893 559.182 183.981 559.227 183.088 559.089C175.598 557.512 184.928 545.566 189.676 545.696C191.94 545.97 193.417 549.493 193.417 549.493Z" fill="#EEF0F8"/>
<path d="M190.005 538.455C189.154 540.026 187.887 541.333 186.343 542.234C184.8 543.134 183.038 543.593 181.25 543.56C180.597 543.561 179.952 543.415 179.363 543.134C178.773 542.853 178.254 542.443 177.843 541.935C176.829 540.399 177.488 538.218 178.577 536.808C180.723 533.653 185.68 530.807 188.978 534.405C189.506 534.92 189.881 535.571 190.062 536.286C190.243 537 190.223 537.751 190.005 538.455Z" fill="#EEF0F8"/>
<path d="M203.446 442.611C210.704 447.823 225.455 449.081 226.258 438.207C226.703 432.675 222.267 431.85 218.489 429.526C213.814 426.692 215.046 422.32 211.693 418.607C210.728 417.318 209.423 416.324 207.924 415.735C206.426 415.147 204.794 414.988 203.211 415.276C193.332 417.534 196.495 433.902 200.593 439.852C201.372 440.935 202.338 441.869 203.446 442.611Z" fill="#EEF0F8"/>
<path d="M218.813 456.627C218.755 457.731 218.335 458.784 217.617 459.624C216.899 460.464 215.924 461.043 214.844 461.272C211.265 461.789 209.859 458.009 210.414 455.112C210.581 453.718 211.216 452.423 212.215 451.438C212.712 450.984 213.343 450.704 214.013 450.641C214.684 450.578 215.357 450.735 215.931 451.088C217.387 452.631 218.385 454.55 218.813 456.627Z" fill="#EEF0F8"/>
<path d="M204.439 458.869C203.232 460.295 201.634 461.335 199.841 461.863C198.943 462.114 197.985 462.046 197.13 461.669C196.276 461.293 195.578 460.632 195.155 459.799C194.934 458.998 194.897 458.157 195.048 457.34C195.198 456.523 195.533 455.751 196.025 455.082C196.833 453.672 197.763 452.335 198.806 451.088C199.858 449.647 201.348 448.584 203.054 448.06C210.442 446.474 206.862 456.25 204.439 458.869Z" fill="#EEF0F8"/>
<path d="M195.437 442.7C195.193 444.372 194.601 445.973 193.698 447.4C192.796 448.827 191.603 450.048 190.199 450.985C189.484 451.537 188.664 451.939 187.789 452.164C186.914 452.39 186.002 452.435 185.108 452.297C177.618 450.72 186.949 438.773 191.696 438.903C193.961 439.177 195.437 442.7 195.437 442.7Z" fill="#EEF0F8"/>
<path d="M192.025 431.662C191.174 433.234 189.908 434.541 188.364 435.441C186.82 436.342 185.058 436.8 183.271 436.768C182.618 436.768 181.973 436.623 181.383 436.342C180.794 436.06 180.274 435.651 179.863 435.143C178.849 433.607 179.508 431.425 180.598 430.015C182.743 426.861 187.701 424.014 190.999 427.612C191.526 428.128 191.901 428.779 192.082 429.493C192.263 430.208 192.244 430.958 192.025 431.662Z" fill="#EEF0F8"/>
<path d="M305.229 431.189C312.486 436.402 327.237 437.659 328.041 426.785C328.485 421.254 324.05 420.428 320.271 418.104C315.596 415.27 316.828 410.898 313.476 407.185C312.51 405.896 311.205 404.902 309.707 404.313C308.208 403.725 306.576 403.566 304.994 403.854C295.114 406.112 298.278 422.481 302.376 428.43C303.154 429.513 304.12 430.447 305.229 431.189Z" fill="#EEF0F8"/>
<path d="M320.596 445.205C320.537 446.309 320.117 447.363 319.399 448.202C318.681 449.042 317.707 449.621 316.626 449.85C313.047 450.368 311.641 446.587 312.196 443.69C312.363 442.296 312.998 441.001 313.997 440.016C314.494 439.562 315.125 439.282 315.796 439.219C316.466 439.156 317.139 439.313 317.713 439.666C319.169 441.21 320.167 443.128 320.596 445.205Z" fill="#EEF0F8"/>
<path d="M306.222 447.447C305.014 448.873 303.416 449.913 301.624 450.441C300.725 450.692 299.767 450.624 298.913 450.248C298.058 449.871 297.36 449.21 296.938 448.377C296.716 447.576 296.679 446.735 296.83 445.918C296.981 445.101 297.315 444.329 297.807 443.66C298.615 442.25 299.546 440.914 300.588 439.667C301.64 438.225 303.13 437.162 304.837 436.638C312.225 435.052 308.644 444.828 306.222 447.447Z" fill="#EEF0F8"/>
<path d="M297.219 431.278C296.975 432.95 296.383 434.551 295.48 435.978C294.578 437.405 293.386 438.627 291.981 439.563C291.266 440.115 290.446 440.517 289.571 440.742C288.696 440.968 287.784 441.013 286.89 440.875C279.401 439.298 288.731 427.351 293.478 427.481C295.743 427.756 297.219 431.278 297.219 431.278Z" fill="#EEF0F8"/>
<path d="M293.808 420.24C292.956 421.812 291.69 423.119 290.146 424.019C288.602 424.92 286.841 425.378 285.053 425.346C284.4 425.346 283.755 425.201 283.165 424.92C282.576 424.638 282.056 424.229 281.645 423.721C280.631 422.185 281.291 420.004 282.38 418.593C284.525 415.439 289.483 412.592 292.781 416.19C293.308 416.706 293.683 417.357 293.864 418.071C294.046 418.786 294.026 419.537 293.808 420.24Z" fill="#EEF0F8"/>
<path d="M277.234 335.302C285.728 338.073 300.168 334.806 297.642 324.199C296.391 318.793 291.914 319.348 287.61 318.277C282.296 316.991 282.147 312.452 277.827 309.928C276.517 308.991 274.972 308.439 273.366 308.331C271.76 308.224 270.156 308.567 268.735 309.32C260.002 314.463 267.973 329.106 273.679 333.536C274.749 334.332 275.953 334.93 277.234 335.302Z" fill="#EEF0F8"/>
<path d="M296.123 344.009C296.401 345.079 296.319 346.21 295.889 347.227C295.46 348.245 294.706 349.092 293.745 349.637C290.491 351.214 288.007 348.037 287.658 345.107C287.396 343.728 287.609 342.301 288.263 341.06C288.599 340.477 289.116 340.019 289.736 339.756C290.355 339.493 291.044 339.439 291.698 339.602C293.553 340.632 295.086 342.158 296.123 344.009Z" fill="#EEF0F8"/>
<path d="M283.101 350.497C282.382 352.221 281.174 353.696 279.625 354.741C278.845 355.253 277.911 355.478 276.983 355.378C276.055 355.278 275.189 354.859 274.535 354.193C274.081 353.496 273.791 352.706 273.688 351.882C273.584 351.057 273.669 350.221 273.936 349.434C274.279 347.845 274.761 346.29 275.377 344.786C275.943 343.093 277.042 341.63 278.509 340.613C285.071 336.866 284.617 347.267 283.101 350.497Z" fill="#EEF0F8"/>
<path d="M269.627 337.811C269.9 339.478 269.82 341.184 269.392 342.817C268.964 344.45 268.198 345.975 267.142 347.293C266.628 348.036 265.968 348.666 265.202 349.146C264.437 349.626 263.581 349.945 262.687 350.084C255.072 350.848 260.348 336.638 264.912 335.325C267.154 334.901 269.627 337.811 269.627 337.811Z" fill="#EEF0F8"/>
<path d="M263.034 328.324C262.699 330.08 261.887 331.709 260.689 333.034C259.49 334.36 257.95 335.33 256.236 335.84C255.614 336.038 254.955 336.095 254.308 336.005C253.661 335.916 253.042 335.683 252.496 335.323C251.065 334.166 251.033 331.887 251.644 330.214C252.734 326.558 256.598 322.344 260.83 324.775C261.489 325.106 262.043 325.613 262.432 326.24C262.821 326.866 263.029 327.587 263.034 328.324Z" fill="#EEF0F8"/>
<path d="M97.2202 619.012C101.764 626.707 114.759 633.798 119.874 624.169C122.508 619.285 118.781 616.743 116.259 613.094C113.121 608.617 116.009 605.112 114.436 600.363C114.072 598.794 113.278 597.358 112.143 596.216C111.009 595.074 109.579 594.271 108.014 593.898C98.0619 591.985 94.3651 608.242 95.7199 615.338C95.9964 616.643 96.5046 617.887 97.2202 619.012Z" fill="#EEF0F8"/>
<path d="M105.641 638.031C105.143 639.018 104.334 639.813 103.339 640.292C102.343 640.772 101.218 640.909 100.136 640.683C96.6527 639.716 96.8879 635.69 98.5627 633.261C99.277 632.053 100.38 631.123 101.691 630.624C102.329 630.408 103.019 630.406 103.658 630.619C104.297 630.831 104.85 631.246 105.233 631.8C105.944 633.799 106.086 635.957 105.641 638.031Z" fill="#EEF0F8"/>
<path d="M91.5805 634.294C89.9014 635.113 88.0195 635.421 86.1666 635.182C85.243 635.051 84.3934 634.602 83.7628 633.913C83.1322 633.225 82.7596 632.339 82.7085 631.406C82.8285 630.583 83.1335 629.799 83.6004 629.112C84.0674 628.425 84.6842 627.853 85.4042 627.439C86.7117 626.473 88.1016 625.625 89.5578 624.903C91.1015 624.007 92.8935 623.635 94.6666 623.842C102.067 625.367 94.8528 632.872 91.5805 634.294Z" fill="#EEF0F8"/>
<path d="M89.8531 615.869C88.9564 617.3 87.7693 618.527 86.3686 619.47C84.9678 620.413 83.3847 621.051 81.7217 621.342C80.8448 621.56 79.9328 621.597 79.041 621.451C78.1492 621.305 77.2962 620.979 76.5339 620.493C70.3136 616.032 83.6652 608.856 87.9583 610.887C89.9207 612.05 89.8531 615.869 89.8531 615.869Z" fill="#EEF0F8"/>
<path d="M91.1758 604.392C89.7637 605.487 88.078 606.174 86.3024 606.376C84.5268 606.578 82.7295 606.289 81.1063 605.539C80.5084 605.276 79.9768 604.883 79.5503 604.389C79.1238 603.894 78.8134 603.31 78.6418 602.679C78.3321 600.865 79.8142 599.134 81.3791 598.282C84.6133 596.258 90.2977 595.65 91.8673 600.271C92.1423 600.955 92.2233 601.702 92.1013 602.429C91.9793 603.156 91.659 603.835 91.1758 604.392Z" fill="#EEF0F8"/>
<path d="M27.0806 553.39C31.6241 561.084 44.6193 568.176 49.7342 558.547C52.3688 553.662 48.6415 551.12 46.1192 547.471C42.9816 542.995 45.8696 539.489 44.2966 534.74C43.932 533.172 43.138 531.736 42.0035 530.594C40.8691 529.452 39.4392 528.649 37.8746 528.275C27.9222 526.363 24.2254 542.619 25.5803 549.716C25.8568 551.02 26.3649 552.265 27.0806 553.39Z" fill="#EEF0F8"/>
<path d="M35.501 572.409C35.0031 573.396 34.194 574.19 33.1989 574.67C32.2038 575.149 31.0783 575.287 29.9968 575.061C26.513 574.094 26.7483 570.067 28.4231 567.639C29.1374 566.43 30.2402 565.5 31.5514 565.001C32.189 564.786 32.8794 564.784 33.5184 564.996C34.1574 565.208 34.7102 565.623 35.0932 566.177C35.8047 568.177 35.9459 570.335 35.501 572.409Z" fill="#EEF0F8"/>
<path d="M21.4409 568.672C19.7617 569.49 17.8799 569.799 16.0269 569.56C15.1034 569.428 14.2538 568.98 13.6232 568.291C12.9925 567.602 12.6199 566.716 12.5689 565.784C12.6889 564.961 12.9938 564.176 13.4608 563.489C13.9277 562.802 14.5445 562.23 15.2646 561.816C16.5721 560.851 17.962 560.002 19.4182 559.281C20.9618 558.385 22.7539 558.012 24.5269 558.22C31.9277 559.744 24.7131 567.25 21.4409 568.672Z" fill="#EEF0F8"/>
<path d="M19.7134 550.246C18.8168 551.678 17.6297 552.905 16.2289 553.848C14.8282 554.791 13.245 555.428 11.582 555.719C10.7052 555.937 9.79317 555.974 8.90134 555.828C8.00951 555.682 7.15654 555.356 6.39425 554.87C0.173998 550.41 13.5255 543.233 17.8187 545.264C19.781 546.427 19.7134 550.246 19.7134 550.246Z" fill="#EEF0F8"/>
<path d="M21.0362 538.769C19.6241 539.865 17.9383 540.551 16.1627 540.753C14.3872 540.956 12.5898 540.666 10.9666 539.916C10.3688 539.654 9.83711 539.261 9.41064 538.766C8.98417 538.271 8.67375 537.687 8.50213 537.056C8.19246 535.242 9.6746 533.511 11.2394 532.659C14.4737 530.636 20.158 530.027 21.7277 534.648C22.0027 535.333 22.0837 536.08 21.9616 536.807C21.8396 537.534 21.5194 538.213 21.0362 538.769Z" fill="#EEF0F8"/>
<path d="M121.609 523.801C128.133 529.907 142.599 533.057 144.798 522.377C145.953 516.949 141.661 515.558 138.214 512.766C133.944 509.353 135.729 505.177 132.884 501.062C132.093 499.659 130.927 498.505 129.517 497.728C128.107 496.951 126.509 496.583 124.903 496.664C114.814 497.629 115.839 514.269 119.136 520.697C119.768 521.872 120.606 522.923 121.609 523.801Z" fill="#EEF0F8"/>
<path d="M135.039 539.683C134.839 540.77 134.286 541.76 133.466 542.5C132.646 543.24 131.605 543.689 130.503 543.776C126.888 543.828 125.981 539.898 126.905 537.097C127.251 535.736 128.047 534.533 129.165 533.685C129.717 533.299 130.379 533.103 131.051 533.127C131.724 533.151 132.371 533.394 132.895 533.818C134.14 535.536 134.883 537.567 135.039 539.683Z" fill="#EEF0F8"/>
<path d="M120.496 540.052C119.115 541.309 117.396 542.135 115.55 542.427C114.627 542.56 113.686 542.369 112.887 541.886C112.088 541.402 111.481 540.657 111.17 539.776C111.053 538.953 111.125 538.114 111.38 537.323C111.635 536.533 112.066 535.81 112.641 535.211C113.624 533.916 114.719 532.711 115.913 531.609C117.142 530.315 118.757 529.454 120.517 529.154C128.048 528.535 123.236 537.767 120.496 540.052Z" fill="#EEF0F8"/>
<path d="M113.655 522.856C113.197 524.482 112.403 525.994 111.324 527.292C110.245 528.591 108.905 529.648 107.391 530.396C106.611 530.851 105.746 531.143 104.85 531.254C103.953 531.365 103.042 531.292 102.174 531.04C94.9505 528.51 105.744 517.867 110.435 518.608C112.646 519.172 113.655 522.856 113.655 522.856Z" fill="#EEF0F8"/>
<path d="M111.696 511.471C110.649 512.919 109.224 514.052 107.577 514.746C105.93 515.439 104.124 515.667 102.355 515.404C101.708 515.32 101.087 515.093 100.539 514.738C99.9903 514.383 99.5281 513.91 99.186 513.353C98.3785 511.699 99.3139 509.621 100.576 508.363C103.11 505.512 108.394 503.329 111.2 507.322C111.657 507.901 111.944 508.595 112.032 509.327C112.119 510.059 112.003 510.801 111.696 511.471Z" fill="#EEF0F8"/>
<path d="M504.901 246.283C512.159 251.496 526.91 252.753 527.713 241.88C528.158 236.348 523.722 235.522 519.944 233.198C515.269 230.364 516.501 225.993 513.148 222.279C512.183 220.99 510.878 219.996 509.379 219.407C507.881 218.819 506.249 218.66 504.666 218.948C494.787 221.206 497.95 237.575 502.048 243.524C502.827 244.607 503.793 245.542 504.901 246.283Z" fill="#EEF0F8"/>
<path d="M520.269 260.3C520.21 261.404 519.79 262.457 519.072 263.296C518.354 264.136 517.38 264.715 516.299 264.944C512.72 265.462 511.314 261.682 511.869 258.784C512.036 257.39 512.671 256.095 513.67 255.11C514.167 254.656 514.798 254.376 515.468 254.313C516.139 254.25 516.812 254.407 517.386 254.76C518.842 256.304 519.84 258.222 520.269 260.3Z" fill="#EEF0F8"/>
<path d="M505.894 262.542C504.687 263.967 503.089 265.007 501.297 265.535C500.398 265.786 499.44 265.718 498.585 265.342C497.731 264.965 497.033 264.304 496.611 263.471C496.389 262.67 496.352 261.829 496.503 261.012C496.653 260.195 496.988 259.423 497.48 258.754C498.288 257.344 499.219 256.008 500.261 254.761C501.313 253.319 502.803 252.256 504.51 251.732C511.898 250.147 508.317 259.922 505.894 262.542Z" fill="#EEF0F8"/>
<path d="M496.892 246.372C496.648 248.044 496.056 249.645 495.153 251.072C494.251 252.5 493.059 253.721 491.654 254.657C490.939 255.21 490.119 255.611 489.244 255.836C488.369 256.062 487.457 256.107 486.563 255.969C479.073 254.392 488.404 242.445 493.151 242.575C495.416 242.85 496.892 246.372 496.892 246.372Z" fill="#EEF0F8"/>
<path d="M493.481 235.334C492.629 236.906 491.363 238.213 489.819 239.114C488.275 240.014 486.514 240.473 484.726 240.44C484.073 240.441 483.428 240.295 482.838 240.014C482.249 239.733 481.729 239.323 481.318 238.815C480.304 237.279 480.964 235.098 482.053 233.688C484.198 230.533 489.156 227.687 492.454 231.284C492.981 231.8 493.356 232.451 493.537 233.166C493.718 233.88 493.699 234.631 493.481 235.334Z" fill="#EEF0F8"/>
<path d="M506.922 139.491C514.179 144.703 528.93 145.961 529.734 135.087C530.178 129.555 525.743 128.73 521.965 126.406C517.29 123.572 518.521 119.2 515.169 115.487C514.204 114.198 512.898 113.203 511.4 112.615C509.902 112.026 508.27 111.867 506.687 112.156C496.807 114.413 499.971 130.782 504.069 136.732C504.847 137.815 505.814 138.749 506.922 139.491Z" fill="#EEF0F8"/>
<path d="M522.289 153.507C522.231 154.611 521.81 155.664 521.093 156.504C520.375 157.344 519.4 157.923 518.319 158.151C514.741 158.669 513.335 154.889 513.89 151.992C514.057 150.598 514.691 149.303 515.69 148.318C516.187 147.864 516.819 147.584 517.489 147.521C518.159 147.458 518.832 147.615 519.406 147.968C520.863 149.511 521.861 151.429 522.289 153.507Z" fill="#EEF0F8"/>
<path d="M507.915 155.749C506.708 157.175 505.109 158.215 503.317 158.742C502.419 158.994 501.46 158.926 500.606 158.549C499.751 158.173 499.053 157.512 498.631 156.679C498.41 155.878 498.373 155.037 498.523 154.22C498.674 153.403 499.008 152.631 499.501 151.962C500.309 150.552 501.239 149.215 502.281 147.968C503.333 146.526 504.824 145.464 506.53 144.94C513.918 143.354 510.337 153.13 507.915 155.749Z" fill="#EEF0F8"/>
<path d="M498.913 139.58C498.669 141.252 498.076 142.853 497.174 144.28C496.271 145.707 495.079 146.928 493.674 147.865C492.959 148.417 492.14 148.818 491.264 149.044C490.389 149.269 489.477 149.315 488.584 149.177C481.094 147.599 490.424 135.653 495.172 135.783C497.436 136.057 498.913 139.58 498.913 139.58Z" fill="#EEF0F8"/>
<path d="M495.501 128.542C494.65 130.114 493.383 131.421 491.84 132.321C490.296 133.221 488.534 133.68 486.746 133.648C486.093 133.648 485.448 133.503 484.859 133.221C484.269 132.94 483.75 132.531 483.339 132.023C482.325 130.487 482.984 128.305 484.073 126.895C486.219 123.741 491.176 120.894 494.474 124.492C495.002 125.007 495.377 125.658 495.558 126.373C495.739 127.088 495.719 127.838 495.501 128.542Z" fill="#EEF0F8"/>
<path d="M608.704 128.069C615.962 133.281 630.713 134.539 631.516 123.665C631.961 118.133 627.525 117.308 623.747 114.984C619.072 112.15 620.304 107.778 616.951 104.065C615.986 102.776 614.681 101.782 613.182 101.193C611.684 100.605 610.052 100.446 608.469 100.734C598.589 102.992 601.753 119.36 605.851 125.31C606.63 126.393 607.596 127.327 608.704 128.069Z" fill="#EEF0F8"/>
<path d="M609.697 144.327C608.49 145.753 606.892 146.793 605.099 147.321C604.201 147.572 603.243 147.504 602.388 147.127C601.534 146.751 600.836 146.09 600.413 145.257C600.192 144.456 600.155 143.615 600.306 142.798C600.456 141.981 600.79 141.209 601.283 140.54C602.091 139.13 603.021 137.793 604.064 136.546C605.116 135.105 606.606 134.042 608.312 133.518C615.7 131.932 612.12 141.708 609.697 144.327Z" fill="#EEF0F8"/>
<path d="M600.695 128.158C600.451 129.83 599.858 131.431 598.956 132.858C598.054 134.285 596.861 135.506 595.456 136.443C594.742 136.995 593.922 137.397 593.047 137.622C592.172 137.848 591.259 137.893 590.366 137.755C582.876 136.178 592.206 124.231 596.954 124.361C599.219 124.635 600.695 128.158 600.695 128.158Z" fill="#EEF0F8"/>
<path d="M597.283 117.12C596.432 118.692 595.165 119.999 593.622 120.899C592.078 121.8 590.316 122.258 588.529 122.226C587.876 122.226 587.231 122.081 586.641 121.8C586.051 121.518 585.532 121.109 585.121 120.601C584.107 119.065 584.766 116.883 585.855 115.473C588.001 112.319 592.959 109.472 596.257 113.07C596.784 113.586 597.159 114.237 597.34 114.951C597.521 115.666 597.502 116.416 597.283 117.12Z" fill="#EEF0F8"/>
<path d="M580.709 32.1816C589.204 34.9528 603.644 31.686 601.118 21.0792C599.867 15.6725 595.39 16.2282 591.085 15.157C585.772 13.8712 585.622 9.3319 581.303 6.80749C579.993 5.87135 578.448 5.31855 576.842 5.21125C575.235 5.10396 573.632 5.4464 572.211 6.20009C563.478 11.3427 571.448 25.986 577.155 30.4158C578.225 31.2122 579.428 31.8102 580.709 32.1816Z" fill="#EEF0F8"/>
<path d="M599.598 40.8888C599.877 41.9585 599.795 43.0897 599.365 44.1072C598.935 45.1246 598.181 45.9716 597.22 46.5169C593.967 48.0937 591.482 44.9166 591.134 41.9872C590.871 40.6081 591.084 39.1813 591.738 37.94C592.074 37.357 592.591 36.8993 593.211 36.6362C593.831 36.3732 594.52 36.3191 595.174 36.482C597.029 37.5122 598.561 39.0381 599.598 40.8888Z" fill="#EEF0F8"/>
<path d="M586.577 47.3766C585.858 49.1006 584.649 50.576 583.101 51.6212C582.321 52.1328 581.387 52.3578 580.459 52.2578C579.53 52.1579 578.665 51.7391 578.01 51.073C577.557 50.3763 577.267 49.586 577.163 48.7617C577.059 47.9373 577.144 47.1004 577.411 46.3141C577.754 44.7253 578.237 43.17 578.852 41.6661C579.419 39.9734 580.517 38.5096 581.985 37.4933C588.546 33.7459 588.093 44.1469 586.577 47.3766Z" fill="#EEF0F8"/>
<path d="M573.102 34.691C573.376 36.3581 573.296 38.0635 572.868 39.6969C572.44 41.3302 571.673 42.855 570.618 44.1726C570.104 44.9157 569.444 45.5463 568.678 46.0262C567.912 46.506 567.057 46.8251 566.163 46.964C558.547 47.728 563.824 33.5177 568.388 32.2045C570.629 31.7805 573.102 34.691 573.102 34.691Z" fill="#EEF0F8"/>
<path d="M566.51 25.2039C566.174 26.9595 565.363 28.5888 564.164 29.9141C562.965 31.2394 561.425 32.21 559.712 32.7201C559.089 32.9184 558.431 32.9748 557.784 32.8853C557.136 32.7958 556.517 32.5626 555.972 32.2028C554.54 31.046 554.509 28.7674 555.12 27.0936C556.21 23.4377 560.073 19.224 564.306 21.6546C564.964 21.9863 565.519 22.4933 565.908 23.1196C566.297 23.7459 566.505 24.4672 566.51 25.2039Z" fill="#EEF0F8"/>
<path d="M400.696 315.892C405.239 323.586 418.235 330.678 423.349 321.049C425.984 316.165 422.257 313.623 419.734 309.974C416.597 305.497 419.485 301.992 417.912 297.243C417.547 295.674 416.753 294.238 415.619 293.096C414.484 291.954 413.054 291.151 411.49 290.777C401.537 288.865 397.841 305.122 399.196 312.218C399.472 313.523 399.98 314.767 400.696 315.892Z" fill="#EEF0F8"/>
<path d="M409.116 334.911C408.618 335.898 407.809 336.693 406.814 337.172C405.819 337.652 404.694 337.789 403.612 337.563C400.128 336.596 400.363 332.57 402.038 330.141C402.753 328.933 403.855 328.003 405.167 327.504C405.804 327.288 406.495 327.286 407.134 327.499C407.773 327.711 408.325 328.125 408.708 328.68C409.42 330.679 409.561 332.837 409.116 334.911Z" fill="#EEF0F8"/>
<path d="M395.056 331.174C393.377 331.992 391.495 332.301 389.642 332.062C388.719 331.93 387.869 331.482 387.238 330.793C386.608 330.105 386.235 329.219 386.184 328.286C386.304 327.463 386.609 326.679 387.076 325.992C387.543 325.304 388.16 324.732 388.88 324.319C390.187 323.353 391.577 322.505 393.033 321.783C394.577 320.887 396.369 320.515 398.142 320.722C405.543 322.247 398.328 329.752 395.056 331.174Z" fill="#EEF0F8"/>
<path d="M393.329 312.749C392.432 314.18 391.245 315.407 389.844 316.35C388.443 317.293 386.86 317.931 385.197 318.222C384.32 318.44 383.408 318.477 382.517 318.331C381.625 318.185 380.772 317.859 380.009 317.372C373.789 312.912 387.141 305.735 391.434 307.766C393.396 308.93 393.329 312.749 393.329 312.749Z" fill="#EEF0F8"/>
<path d="M394.651 301.271C393.239 302.367 391.554 303.054 389.778 303.256C388.002 303.458 386.205 303.169 384.582 302.419C383.984 302.156 383.452 301.763 383.026 301.268C382.599 300.774 382.289 300.189 382.117 299.559C381.808 297.745 383.29 296.014 384.855 295.161C388.089 293.138 393.773 292.53 395.343 297.151C395.618 297.835 395.699 298.582 395.577 299.309C395.455 300.036 395.135 300.715 394.651 301.271Z" fill="#EEF0F8"/>
<path d="M330.556 250.27C335.1 257.964 348.095 265.056 353.21 255.426C355.844 250.542 352.117 248 349.595 244.351C346.457 239.875 349.345 236.369 347.772 231.62C347.408 230.052 346.614 228.616 345.479 227.474C344.345 226.331 342.915 225.529 341.35 225.155C331.398 223.242 327.701 239.499 329.056 246.595C329.332 247.9 329.841 249.145 330.556 250.27Z" fill="#EEF0F8"/>
<path d="M338.977 269.289C338.479 270.276 337.67 271.07 336.674 271.55C335.679 272.029 334.554 272.167 333.472 271.941C329.989 270.974 330.224 266.947 331.899 264.519C332.613 263.31 333.716 262.38 335.027 261.881C335.665 261.666 336.355 261.664 336.994 261.876C337.633 262.088 338.186 262.503 338.569 263.057C339.28 265.057 339.421 267.214 338.977 269.289Z" fill="#EEF0F8"/>
<path d="M324.916 265.552C323.237 266.37 321.355 266.679 319.503 266.44C318.579 266.308 317.729 265.859 317.099 265.171C316.468 264.482 316.096 263.596 316.044 262.663C316.164 261.841 316.469 261.056 316.936 260.369C317.403 259.682 318.02 259.11 318.74 258.696C320.048 257.731 321.438 256.882 322.894 256.161C324.437 255.265 326.229 254.892 328.002 255.1C335.403 256.624 328.189 264.13 324.916 265.552Z" fill="#EEF0F8"/>
<path d="M323.189 247.126C322.292 248.558 321.105 249.785 319.704 250.728C318.304 251.67 316.721 252.308 315.058 252.599C314.181 252.817 313.269 252.854 312.377 252.708C311.485 252.562 310.632 252.236 309.87 251.75C303.65 247.29 317.001 240.113 321.294 242.144C323.257 243.307 323.189 247.126 323.189 247.126Z" fill="#EEF0F8"/>
<path d="M324.512 235.649C323.1 236.745 321.414 237.431 319.638 237.633C317.863 237.836 316.065 237.546 314.442 236.796C313.844 236.534 313.313 236.141 312.886 235.646C312.46 235.151 312.149 234.567 311.978 233.936C311.668 232.122 313.15 230.391 314.715 229.539C317.949 227.516 323.634 226.907 325.203 231.528C325.478 232.213 325.559 232.959 325.437 233.686C325.315 234.414 324.995 235.093 324.512 235.649Z" fill="#EEF0F8"/>
<path d="M425.085 220.681C431.609 226.787 446.074 229.936 448.274 219.257C449.428 213.829 445.136 212.438 441.69 209.646C437.419 206.233 439.205 202.057 436.359 197.942C435.568 196.539 434.402 195.385 432.993 194.608C431.583 193.831 429.985 193.463 428.378 193.544C418.29 194.508 419.315 211.149 422.611 217.577C423.244 218.751 424.081 219.803 425.085 220.681Z" fill="#EEF0F8"/>
<path d="M438.515 236.563C438.314 237.65 437.762 238.64 436.942 239.38C436.122 240.12 435.08 240.569 433.979 240.656C430.364 240.708 429.457 236.778 430.381 233.977C430.726 232.616 431.523 231.413 432.641 230.565C433.192 230.179 433.854 229.983 434.527 230.007C435.2 230.031 435.847 230.274 436.371 230.698C437.616 232.416 438.358 234.447 438.515 236.563Z" fill="#EEF0F8"/>
<path d="M423.971 236.932C422.59 238.189 420.871 239.015 419.026 239.307C418.103 239.44 417.161 239.249 416.362 238.765C415.563 238.282 414.957 237.536 414.645 236.656C414.529 235.833 414.601 234.994 414.856 234.203C415.111 233.412 415.541 232.69 416.116 232.091C417.099 230.796 418.194 229.591 419.389 228.489C420.618 227.195 422.233 226.334 423.993 226.034C431.524 225.415 426.712 234.647 423.971 236.932Z" fill="#EEF0F8"/>
<path d="M417.13 219.736C416.673 221.362 415.879 222.874 414.8 224.172C413.721 225.471 412.381 226.528 410.867 227.275C410.087 227.731 409.222 228.023 408.325 228.134C407.428 228.245 406.518 228.172 405.65 227.92C398.426 225.39 409.22 214.747 413.911 215.488C416.121 216.052 417.13 219.736 417.13 219.736Z" fill="#EEF0F8"/>
<path d="M415.171 208.351C414.124 209.799 412.7 210.932 411.053 211.626C409.406 212.319 407.6 212.547 405.831 212.284C405.184 212.2 404.563 211.973 404.014 211.618C403.466 211.263 403.004 210.79 402.662 210.233C401.854 208.579 402.789 206.501 404.051 205.243C406.586 202.392 411.87 200.209 414.676 204.202C415.132 204.781 415.42 205.475 415.507 206.207C415.595 206.939 415.479 207.681 415.171 208.351Z" fill="#EEF0F8"/>
</svg>
