<svg width="48" height="48" viewBox="0 0 48 48" fill="none" xmlns="http://www.w3.org/2000/svg">
<path d="M4 12C4 8.99 5.56 5.84 8 4C8 5.69 9.38 8 12 8C13.5913 8 15.1174 8.63214 16.2426 9.75736C17.3679 10.8826 18 12.4087 18 14C18 14.772 17.842 15.504 17.576 16.182C19.0595 17.3594 20.5204 18.5649 21.958 19.798L17.798 23.958C16.5654 22.52 15.3599 21.0591 14.182 19.576C13.4877 19.8531 12.7475 19.9969 12 20C7.58 20 4 16.42 4 12ZM28.304 25.696L30.986 23.014C32.228 23.6534 33.6031 23.9912 35 24C37.3869 24 39.6761 23.0518 41.364 21.364C43.0518 19.6761 44 17.3869 44 15C44 13.55 43.624 12.198 43.014 10.986L36 18L32 14L39.014 6.986C37.772 6.3466 36.3969 6.00881 35 6C32.6131 6 30.3239 6.94821 28.636 8.63604C26.9482 10.3239 26 12.6131 26 15C26 16.45 26.376 17.802 26.986 19.014L6 40L10 44L23.696 30.304C27.4627 34.1687 31.4544 37.8077 35.65 41.202L38.5 43.5L41.5 40.5L39.202 37.65C35.8077 33.4544 32.1687 29.4627 28.304 25.696Z" fill="white"/>
</svg>
