<svg width="32" height="33" viewBox="0 0 32 33" fill="none" xmlns="http://www.w3.org/2000/svg">
<rect y="0.190918" width="32" height="32" rx="16" fill="#454893"/>
<path d="M22.4323 19.7118L20.17 19.4452C19.904 19.4129 19.6343 19.4433 19.3813 19.5341C19.1283 19.6248 18.8986 19.7736 18.7093 19.9692L17.0704 21.6609C14.5419 20.3335 12.4868 18.212 11.2008 15.602L12.8486 13.9011C13.2316 13.5057 13.4186 12.9541 13.3563 12.3933L13.098 10.0763C13.0475 9.62783 12.839 9.21414 12.5121 8.91406C12.1853 8.61397 11.7629 8.44844 11.3255 8.44898H9.78464C8.77817 8.44898 7.94092 9.31322 8.00327 10.3522C8.47533 18.2039 14.5587 24.4743 22.1562 24.9616C23.1627 25.026 23.9999 24.1617 23.9999 23.1228V21.5322C24.0088 20.6036 23.3319 19.8221 22.4323 19.7118Z" fill="white"/>
</svg>
