<svg width="454" height="372" viewBox="0 0 454 372" fill="none" xmlns="http://www.w3.org/2000/svg">
<g clip-path="url(#clip0_76_297)">
<path d="M403.01 327.7H64.6098C64.6098 327.7 -10.4902 287.33 18.5598 158.14C33.5598 91.3897 109.03 28.1397 202.56 9.4797L204.68 9.0597C232.68 3.6797 258.05 2.0597 280.57 3.3297C333.93 6.3297 371.51 25.3297 392.12 48.3297C421.43 81.0797 371.78 151.79 393.63 188.11C415.48 224.43 483.11 277.87 403.01 327.7Z" fill="#F2B77D"/>
<path opacity="0.7" d="M403.01 327.7H64.6098C64.6098 327.7 -10.4902 287.33 18.5598 158.14C33.5598 91.3897 109.03 28.1397 202.56 9.4797L204.68 9.0597C232.68 3.6797 258.05 2.0597 280.57 3.3297C333.93 6.3297 371.51 25.3297 392.12 48.3297C421.43 81.0797 371.78 151.79 393.63 188.11C415.48 224.43 483.11 277.87 403.01 327.7Z" fill="white"/>
<path d="M132.51 97.5195C132.489 100.819 132.188 104.111 131.61 107.36" stroke="#263238" stroke-linecap="round" stroke-linejoin="round"/>
<path d="M130.33 112.85C128.046 120.944 124.028 128.445 118.556 134.832C113.083 141.219 106.287 146.34 98.6387 149.839C90.9902 153.338 82.6722 155.131 74.2614 155.095C65.8506 155.059 57.5483 153.194 49.9302 149.63" stroke="#263238" stroke-linecap="round" stroke-linejoin="round"/>
<path d="M44.8702 146.949C43.3702 146.049 41.9102 145.089 40.4902 144.069" stroke="#263238" stroke-linecap="round" stroke-linejoin="round"/>
<path d="M37.2102 141.51C35.9902 140.51 34.8202 139.41 33.6802 138.29" stroke="#263238" stroke-linecap="round" stroke-linejoin="round"/>
<path d="M26.4401 129.56C21.6823 122.513 18.5322 114.505 17.2128 106.106C15.8934 97.7057 16.437 89.1184 18.8052 80.9519C21.1733 72.7855 25.3081 65.2396 30.9167 58.8487C36.5252 52.4578 43.4703 47.3782 51.2601 43.9697" stroke="#263238" stroke-linecap="round" stroke-linejoin="round"/>
<path d="M59.1201 41.1892C60.4901 40.8192 61.8801 40.4892 63.2901 40.1892C73.4024 38.181 83.868 38.9164 93.6001 42.3193" stroke="#263238" stroke-linecap="round" stroke-linejoin="round"/>
<path d="M99.71 44.8799C113.336 51.4536 123.853 63.091 129.02 77.3099" stroke="#263238" stroke-linecap="round" stroke-linejoin="round"/>
<path d="M129.7 79.3193C130.11 80.5693 130.47 81.8393 130.79 83.1293" stroke="#263238" stroke-linecap="round" stroke-linejoin="round"/>
<path d="M85.2402 44.6299C88.2259 45.2357 91.1535 46.099 93.9902 47.2099" stroke="#263238" stroke-linecap="round" stroke-linejoin="round"/>
<path d="M98.73 49.3398C105.652 52.8526 111.727 57.8288 116.533 63.9236C121.34 70.0183 124.763 77.0856 126.566 84.6355C128.369 92.1853 128.508 100.037 126.973 107.646C125.439 115.255 122.268 122.439 117.68 128.7" stroke="#263238" stroke-linecap="round" stroke-linejoin="round"/>
<path d="M114.35 132.8C113.27 134.013 112.14 135.166 110.96 136.26" stroke="#263238" stroke-linecap="round" stroke-linejoin="round"/>
<path d="M108.06 138.77C106.92 139.69 105.73 140.57 104.51 141.39" stroke="#263238" stroke-linecap="round" stroke-linejoin="round"/>
<path d="M95.3202 146.39C88.0883 149.436 80.2753 150.856 72.434 150.549C64.5926 150.242 56.9146 148.216 49.9429 144.614C42.9712 141.011 36.8762 135.921 32.0891 129.703C27.302 123.485 23.9398 116.291 22.2402 108.63" stroke="#263238" stroke-linecap="round" stroke-linejoin="round"/>
<path d="M21.1303 101.02C21.0403 99.7198 20.9903 98.3998 20.9903 97.0698C20.9733 87.5557 23.508 78.2112 28.3303 70.0098" stroke="#263238" stroke-linecap="round" stroke-linejoin="round"/>
<path d="M31.7202 64.9297C40.0955 53.7585 52.5116 46.3103 66.3102 44.1797" stroke="#263238" stroke-linecap="round" stroke-linejoin="round"/>
<path d="M68.25 43.9191C69.46 43.7791 70.68 43.6791 71.9 43.6191" stroke="#263238" stroke-linecap="round" stroke-linejoin="round"/>
<path d="M82.4003 91.4692C83.8133 93.4736 84.4164 95.938 84.0887 98.3684C83.761 100.799 82.5267 103.015 80.6334 104.574C78.74 106.133 76.3274 106.918 73.8794 106.773C71.4313 106.627 69.1287 105.562 67.4332 103.79C65.7377 102.018 64.7746 99.6708 64.737 97.2187C64.6994 94.7666 65.59 92.391 67.2304 90.568C68.8708 88.745 71.1396 87.6094 73.582 87.389C76.0245 87.1685 78.46 87.8794 80.4003 89.3792" stroke="#263238" stroke-linecap="round" stroke-linejoin="round"/>
<path d="M73.2001 93.1593C73.6221 93.0169 74.0648 92.9459 74.5101 92.9493C75.325 92.9493 76.1216 93.191 76.7991 93.6437C77.4766 94.0964 78.0047 94.7399 78.3165 95.4927C78.6284 96.2455 78.7099 97.0739 78.551 97.8731C78.392 98.6723 77.9996 99.4064 77.4234 99.9826C76.8472 100.559 76.1131 100.951 75.3139 101.11C74.5147 101.269 73.6863 101.188 72.9335 100.876C72.1807 100.564 71.5372 100.036 71.0845 99.3583C70.6318 98.6808 70.3901 97.8842 70.3901 97.0693V96.7993" stroke="#263238" stroke-linecap="round" stroke-linejoin="round"/>
<path d="M69.8101 119.7C71.31 119.124 72.9033 118.829 74.5101 118.83H75.0901" stroke="#263238" stroke-linecap="round" stroke-linejoin="round"/>
<path d="M79.38 119.76C81.9383 120.797 84.1 122.622 85.552 124.969C87.004 127.317 87.671 130.066 87.4562 132.818C87.2415 135.571 86.1563 138.183 84.3577 140.277C82.5591 142.371 80.1405 143.839 77.4523 144.467C74.7642 145.094 71.9459 144.85 69.4057 143.769C66.8656 142.689 64.7354 140.827 63.3238 138.455C61.9122 136.083 61.2924 133.322 61.5542 130.574C61.816 127.826 62.9458 125.233 64.78 123.17" stroke="#263238" stroke-linecap="round" stroke-linejoin="round"/>
<path d="M97.5799 125.22C95.1938 123.675 93.3797 121.391 92.4154 118.717C91.4511 116.043 91.3898 113.126 92.2409 110.414C93.0919 107.702 94.8085 105.344 97.1276 103.7C99.4467 102.057 102.241 101.218 105.082 101.314C107.922 101.41 110.654 102.434 112.857 104.229C115.061 106.025 116.615 108.493 117.282 111.257C117.949 114.02 117.691 116.925 116.55 119.528C115.408 122.132 113.444 124.289 110.96 125.67" stroke="#263238" stroke-linecap="round" stroke-linejoin="round"/>
<path d="M106.94 127.09C105.54 127.348 104.107 127.368 102.7 127.15" stroke="#263238" stroke-linecap="round" stroke-linejoin="round"/>
<path d="M51.17 103.109C52.6572 103.959 53.9625 105.093 55.0114 106.447C56.0602 107.802 56.8321 109.349 57.2829 111.001C57.7338 112.654 57.8547 114.379 57.6389 116.078C57.423 117.777 56.8746 119.417 56.025 120.904C55.1753 122.392 54.0411 123.697 52.687 124.746C51.3328 125.795 49.7854 126.567 48.133 127.017C46.4806 127.468 44.7555 127.589 43.0564 127.373C41.3572 127.157 39.7172 126.609 38.23 125.759" stroke="#263238" stroke-linecap="round" stroke-linejoin="round"/>
<path d="M32.8503 120.379C31.7929 118.39 31.268 116.161 31.3267 113.909C31.3853 111.658 32.0255 109.459 33.185 107.528C34.3444 105.596 35.9838 103.997 37.9437 102.887C39.9037 101.776 42.1176 101.192 44.3703 101.189C45.1347 101.19 45.8975 101.257 46.6503 101.389" stroke="#263238" stroke-linecap="round" stroke-linejoin="round"/>
<path d="M93.3201 86.39C91.834 83.8149 91.2755 80.8081 91.7377 77.8711C92.1999 74.9341 93.6549 72.2442 95.8601 70.25" stroke="#263238" stroke-linecap="round" stroke-linejoin="round"/>
<path d="M98.8403 68.1996C100.602 67.3291 102.538 66.8678 104.503 66.8501C106.468 66.8324 108.412 67.2588 110.189 68.0974C111.967 68.936 113.532 70.1652 114.767 71.6933C116.003 73.2213 116.878 75.0087 117.326 76.9221C117.775 78.8355 117.785 80.8254 117.357 82.7434C116.929 84.6614 116.073 86.4579 114.853 87.9989C113.633 89.5398 112.082 90.7854 110.313 91.6426C108.545 92.4999 106.606 92.9466 104.64 92.9496C102.726 92.9526 100.834 92.5326 99.1003 91.7196" stroke="#263238" stroke-linecap="round" stroke-linejoin="round"/>
<path d="M52.3101 90.2598C50.3011 91.7972 47.8891 92.7185 45.3667 92.912C42.8444 93.1055 40.3201 92.5628 38.1001 91.3498" stroke="#263238" stroke-linecap="round" stroke-linejoin="round"/>
<path d="M35.4302 89.4097C33.6673 87.734 32.4099 85.5973 31.8009 83.2426C31.1919 80.8879 31.2556 78.4095 31.9849 76.0892C32.7142 73.769 34.0798 71.6998 35.9265 70.1169C37.7732 68.5341 40.0268 67.501 42.4314 67.1352C44.8359 66.7694 47.2949 67.0854 49.5287 68.0475C51.7626 69.0095 53.6818 70.5789 55.0681 72.5773C56.4545 74.5757 57.2524 76.923 57.3712 79.3523C57.49 81.7816 56.9249 84.1955 55.7402 86.3197" stroke="#263238" stroke-linecap="round" stroke-linejoin="round"/>
<path d="M67.9902 50.9597C69.9738 49.819 72.2221 49.219 74.5102 49.2197C74.968 49.2212 75.4254 49.2479 75.8802 49.2997" stroke="#263238" stroke-linecap="round" stroke-linejoin="round"/>
<path d="M80.2501 50.5498C82.6534 51.7366 84.6311 53.6372 85.9124 55.9914C87.1938 58.3456 87.7161 61.0383 87.4079 63.7009C87.0997 66.3634 85.9761 68.8656 84.1908 70.8649C82.4056 72.8641 80.046 74.2627 77.4352 74.8691C74.8243 75.4754 72.0899 75.26 69.6062 74.2522C67.1226 73.2444 65.0112 71.4936 63.561 69.2394C62.1109 66.9852 61.393 64.3379 61.5056 61.6599C61.6182 58.982 62.5558 56.4043 64.1901 54.2798" stroke="#263238" stroke-linecap="round" stroke-linejoin="round"/>
<path d="M343.81 36.23C345.05 34.54 345.81 33.46 345.81 33.46L377.71 56.77L359.81 81.28L347.81 72.53" stroke="#263238" stroke-linecap="round" stroke-linejoin="round"/>
<path d="M343.01 68.9893L327.93 57.9893L333.02 50.9893" stroke="#263238" stroke-linecap="round" stroke-linejoin="round"/>
<path d="M334.77 48.5996L341.34 39.5996" stroke="#263238" stroke-linecap="round" stroke-linejoin="round"/>
<path d="M325.28 100.42L306.79 86.91C306.79 86.91 307.69 85.69 309.07 83.79" stroke="#263238" stroke-linecap="round" stroke-linejoin="round"/>
<path d="M312.82 78.6995L324.69 62.4395L346.69 78.5295" stroke="#263238" stroke-linecap="round" stroke-linejoin="round"/>
<path d="M350.41 81.1895L356.6 85.6994L338.7 110.209L333.09 106.119" stroke="#263238" stroke-linecap="round" stroke-linejoin="round"/>
<path d="M330.68 121.19L317.56 139.19L285.66 115.89L290.9 108.71" stroke="#263238" stroke-linecap="round" stroke-linejoin="round"/>
<path d="M293.39 105.26L303.56 91.3398L327.73 108.99" stroke="#263238" stroke-linecap="round" stroke-linejoin="round"/>
<path d="M330.73 111.189L335.46 114.639L333 118.009" stroke="#263238" stroke-linecap="round" stroke-linejoin="round"/>
<path d="M292.96 127.97L314.33 143.58L310.94 148.21" stroke="#263238" stroke-linecap="round" stroke-linejoin="round"/>
<path d="M310.17 149.27L306.79 153.9" stroke="#263238" stroke-linecap="round" stroke-linejoin="round"/>
<path d="M302.99 159.099L296.43 168.099L264.51 144.789L282.42 120.279L288.32 124.589" stroke="#263238" stroke-linecap="round" stroke-linejoin="round"/>
<path d="M271.21 156.46L293.21 172.51L275.31 197.02L243.39 173.7C243.39 173.7 245.1 171.37 247.45 168.14" stroke="#263238" stroke-linecap="round" stroke-linejoin="round"/>
<path d="M250.88 163.47L261.29 149.21L266.09 152.72" stroke="#263238" stroke-linecap="round" stroke-linejoin="round"/>
<path d="M243.65 218.279L222.26 202.699L240.16 178.189L246.78 183.029" stroke="#263238" stroke-linecap="round" stroke-linejoin="round"/>
<path d="M250.87 185.979L272.06 201.449L254.16 225.96L248.09 221.529" stroke="#263238" stroke-linecap="round" stroke-linejoin="round"/>
<path d="M233.36 217.56L238.25 221.13" stroke="#263238" stroke-linecap="round" stroke-linejoin="round"/>
<path d="M241.87 223.77L250.93 230.39L233.02 254.9L201.12 231.6L219.02 207.09L229.51 214.7" stroke="#263238" stroke-linecap="round" stroke-linejoin="round"/>
<path d="M192.21 243.8L197.89 236.02L229.79 259.32L211.89 283.84L179.99 260.53L185.92 252.41" stroke="#263238" stroke-linecap="round" stroke-linejoin="round"/>
<path d="M187.19 250.7C188.19 249.33 189.19 247.93 190.19 246.55" stroke="#263238" stroke-linecap="round" stroke-linejoin="round"/>
<path d="M374.51 10.0596L378.32 12.8396" stroke="#263238" stroke-linecap="round" stroke-linejoin="round"/>
<path d="M380.03 14.0693L398.87 27.8293L390.34 39.4993" stroke="#263238" stroke-linecap="round" stroke-linejoin="round"/>
<path d="M386.71 44.4698L380.96 52.3398L356.29 34.3398" stroke="#263238" stroke-linecap="round" stroke-linejoin="round"/>
<path d="M352.51 31.5893L349.02 29.0393L364.01 8.56934" stroke="#263238" stroke-linecap="round" stroke-linejoin="round"/>
<path d="M365.11 7.0593L366.96 4.5293L370.96 7.43929" stroke="#263238" stroke-linecap="round" stroke-linejoin="round"/>
<path d="M204.75 285.399L208.66 288.259L190.76 312.769L171.97 299.049" stroke="#263238" stroke-linecap="round" stroke-linejoin="round"/>
<path d="M170.51 297.969L167.41 295.699" stroke="#263238" stroke-linecap="round" stroke-linejoin="round"/>
<path d="M162.94 292.459L158.85 289.459L176.75 264.949L200.06 281.949" stroke="#263238" stroke-linecap="round" stroke-linejoin="round"/>
<path d="M402.88 30.7593L404.38 31.8593L402.51 34.4093L399.96 32.5493L401.82 29.9893L402.17 30.2493" stroke="#263238" stroke-linecap="round" stroke-linejoin="round"/>
<path d="M400.832 36.7123L398.28 34.8486L396.417 37.4006L398.969 39.2642L400.832 36.7123Z" stroke="#263238" stroke-linecap="round" stroke-linejoin="round"/>
<path d="M397.275 41.5853L394.723 39.7217L392.86 42.2736L395.411 44.1373L397.275 41.5853Z" stroke="#263238" stroke-linecap="round" stroke-linejoin="round"/>
<path d="M393.722 46.4467L391.17 44.583L389.306 47.135L391.858 48.9986L393.722 46.4467Z" stroke="#263238" stroke-linecap="round" stroke-linejoin="round"/>
<path d="M390.165 51.3099L387.613 49.4463L385.749 51.9982L388.301 53.8619L390.165 51.3099Z" stroke="#263238" stroke-linecap="round" stroke-linejoin="round"/>
<path d="M386.616 56.1898L384.064 54.3262L382.2 56.8781L384.752 58.7418L386.616 56.1898Z" stroke="#263238" stroke-linecap="round" stroke-linejoin="round"/>
<path d="M383.059 61.0531L380.507 59.1895L378.643 61.7414L381.195 63.605L383.059 61.0531Z" stroke="#263238" stroke-linecap="round" stroke-linejoin="round"/>
<path d="M379.5 65.932L376.948 64.0684L375.084 66.6203L377.636 68.484L379.5 65.932Z" stroke="#263238" stroke-linecap="round" stroke-linejoin="round"/>
<path d="M375.943 70.7953L373.391 68.9316L371.527 71.4836L374.079 73.3472L375.943 70.7953Z" stroke="#263238" stroke-linecap="round" stroke-linejoin="round"/>
<path d="M372.385 75.6586L369.833 73.7949L367.97 76.3469L370.522 78.2105L372.385 75.6586Z" stroke="#263238" stroke-linecap="round" stroke-linejoin="round"/>
<path d="M368.826 80.5384L366.274 78.6748L364.411 81.2268L366.963 83.0904L368.826 80.5384Z" stroke="#263238" stroke-linecap="round" stroke-linejoin="round"/>
<path d="M365.275 85.3929L362.723 83.5293L360.859 86.0812L363.411 87.9449L365.275 85.3929Z" stroke="#263238" stroke-linecap="round" stroke-linejoin="round"/>
<path d="M361.726 90.2728L359.174 88.4092L357.311 90.9611L359.863 92.8248L361.726 90.2728Z" stroke="#263238" stroke-linecap="round" stroke-linejoin="round"/>
<path d="M358.169 95.1361L355.617 93.2725L353.754 95.8244L356.306 97.688L358.169 95.1361Z" stroke="#263238" stroke-linecap="round" stroke-linejoin="round"/>
<path d="M354.612 99.9994L352.06 98.1357L350.196 100.688L352.748 102.551L354.612 99.9994Z" stroke="#263238" stroke-linecap="round" stroke-linejoin="round"/>
<path d="M351.063 104.878L348.511 103.015L346.648 105.567L349.2 107.43L351.063 104.878Z" stroke="#263238" stroke-linecap="round" stroke-linejoin="round"/>
<path d="M347.496 109.742L344.944 107.878L343.08 110.43L345.632 112.294L347.496 109.742Z" stroke="#263238" stroke-linecap="round" stroke-linejoin="round"/>
<path d="M343.947 114.612L341.395 112.748L339.531 115.3L342.083 117.164L343.947 114.612Z" stroke="#263238" stroke-linecap="round" stroke-linejoin="round"/>
<path d="M340.39 119.485L337.838 117.621L335.974 120.173L338.526 122.037L340.39 119.485Z" stroke="#263238" stroke-linecap="round" stroke-linejoin="round"/>
<path d="M336.833 124.348L334.281 122.484L332.417 125.036L334.969 126.9L336.833 124.348Z" stroke="#263238" stroke-linecap="round" stroke-linejoin="round"/>
<path d="M333.279 129.219L330.728 127.355L328.864 129.907L331.416 131.771L333.279 129.219Z" stroke="#263238" stroke-linecap="round" stroke-linejoin="round"/>
<path d="M329.712 134.082L327.16 132.219L325.297 134.771L327.848 136.634L329.712 134.082Z" stroke="#263238" stroke-linecap="round" stroke-linejoin="round"/>
<path d="M326.96 139.529L324.401 137.665L322.536 140.225L325.096 142.089L326.96 139.529Z" stroke="#263238" stroke-width="1.0021" stroke-linecap="round" stroke-linejoin="round"/>
<path d="M322.606 143.826L320.054 141.962L318.191 144.514L320.743 146.378L322.606 143.826Z" stroke="#263238" stroke-linecap="round" stroke-linejoin="round"/>
<path d="M319.817 149.288L317.257 147.424L315.393 149.983L317.953 151.848L319.817 149.288Z" stroke="#263238" stroke-width="1.0021" stroke-linecap="round" stroke-linejoin="round"/>
<path d="M315.49 153.568L312.938 151.704L311.074 154.256L313.626 156.12L315.49 153.568Z" stroke="#263238" stroke-linecap="round" stroke-linejoin="round"/>
<path d="M311.933 158.441L309.381 156.577L307.517 159.129L310.069 160.993L311.933 158.441Z" stroke="#263238" stroke-linecap="round" stroke-linejoin="round"/>
<path d="M308.384 163.31L305.832 161.446L303.968 163.998L306.52 165.862L308.384 163.31Z" stroke="#263238" stroke-linecap="round" stroke-linejoin="round"/>
<path d="M304.822 168.165L302.271 166.302L300.407 168.854L302.959 170.717L304.822 168.165Z" stroke="#263238" stroke-linecap="round" stroke-linejoin="round"/>
<path d="M301.274 173.045L298.722 171.182L296.858 173.734L299.41 175.597L301.274 173.045Z" stroke="#263238" stroke-linecap="round" stroke-linejoin="round"/>
<path d="M297.717 177.909L295.165 176.045L293.301 178.597L295.853 180.461L297.717 177.909Z" stroke="#263238" stroke-linecap="round" stroke-linejoin="round"/>
<path d="M294.159 182.782L291.607 180.918L289.744 183.47L292.296 185.334L294.159 182.782Z" stroke="#263238" stroke-linecap="round" stroke-linejoin="round"/>
<path d="M290.6 187.651L288.048 185.787L286.185 188.339L288.737 190.203L290.6 187.651Z" stroke="#263238" stroke-linecap="round" stroke-linejoin="round"/>
<path d="M287.053 192.514L284.501 190.65L282.638 193.202L285.19 195.066L287.053 192.514Z" stroke="#263238" stroke-linecap="round" stroke-linejoin="round"/>
<path d="M283.494 197.394L280.942 195.53L279.079 198.082L281.631 199.946L283.494 197.394Z" stroke="#263238" stroke-linecap="round" stroke-linejoin="round"/>
<path d="M279.937 202.257L277.385 200.394L275.522 202.946L278.074 204.809L279.937 202.257Z" stroke="#263238" stroke-linecap="round" stroke-linejoin="round"/>
<path d="M276.386 207.122L273.834 205.259L271.97 207.811L274.522 209.674L276.386 207.122Z" stroke="#263238" stroke-linecap="round" stroke-linejoin="round"/>
<path d="M272.837 211.992L270.285 210.128L268.422 212.68L270.973 214.544L272.837 211.992Z" stroke="#263238" stroke-linecap="round" stroke-linejoin="round"/>
<path d="M269.27 216.865L266.718 215.001L264.854 217.553L267.406 219.417L269.27 216.865Z" stroke="#263238" stroke-linecap="round" stroke-linejoin="round"/>
<path d="M265.711 221.734L263.159 219.87L261.295 222.422L263.847 224.286L265.711 221.734Z" stroke="#263238" stroke-linecap="round" stroke-linejoin="round"/>
<path d="M262.154 226.597L259.602 224.733L257.738 227.285L260.29 229.149L262.154 226.597Z" stroke="#263238" stroke-linecap="round" stroke-linejoin="round"/>
<path d="M258.596 231.471L256.044 229.607L254.181 232.159L256.733 234.023L258.596 231.471Z" stroke="#263238" stroke-linecap="round" stroke-linejoin="round"/>
<path d="M255.048 236.34L252.496 234.477L250.632 237.029L253.184 238.892L255.048 236.34Z" stroke="#263238" stroke-linecap="round" stroke-linejoin="round"/>
<path d="M251.48 241.213L248.928 239.35L247.065 241.902L249.617 243.765L251.48 241.213Z" stroke="#263238" stroke-linecap="round" stroke-linejoin="round"/>
<path d="M247.937 246.075L245.385 244.211L243.522 246.763L246.074 248.627L247.937 246.075Z" stroke="#263238" stroke-linecap="round" stroke-linejoin="round"/>
<path d="M244.38 250.948L241.828 249.084L239.964 251.636L242.516 253.5L244.38 250.948Z" stroke="#263238" stroke-linecap="round" stroke-linejoin="round"/>
<path d="M240.821 255.817L238.269 253.953L236.405 256.505L238.957 258.369L240.821 255.817Z" stroke="#263238" stroke-linecap="round" stroke-linejoin="round"/>
<path d="M237.264 260.68L234.712 258.816L232.848 261.368L235.4 263.232L237.264 260.68Z" stroke="#263238" stroke-linecap="round" stroke-linejoin="round"/>
<path d="M233.707 265.554L231.155 263.69L229.291 266.242L231.843 268.106L233.707 265.554Z" stroke="#263238" stroke-linecap="round" stroke-linejoin="round"/>
<path d="M230.158 270.423L227.606 268.56L225.742 271.112L228.294 272.975L230.158 270.423Z" stroke="#263238" stroke-linecap="round" stroke-linejoin="round"/>
<path d="M226.591 275.296L224.039 273.433L222.175 275.985L224.727 277.848L226.591 275.296Z" stroke="#263238" stroke-linecap="round" stroke-linejoin="round"/>
<path d="M223.051 280.165L220.5 278.302L218.636 280.854L221.188 282.717L223.051 280.165Z" stroke="#263238" stroke-linecap="round" stroke-linejoin="round"/>
<path d="M219.501 285.021L216.949 283.157L215.085 285.709L217.637 287.573L219.501 285.021Z" stroke="#263238" stroke-linecap="round" stroke-linejoin="round"/>
<path d="M215.933 289.895L213.381 288.031L211.518 290.583L214.07 292.447L215.933 289.895Z" stroke="#263238" stroke-linecap="round" stroke-linejoin="round"/>
<path d="M212.384 294.764L209.833 292.9L207.969 295.452L210.521 297.316L212.384 294.764Z" stroke="#263238" stroke-linecap="round" stroke-linejoin="round"/>
<path d="M208.827 299.637L206.275 297.773L204.412 300.325L206.964 302.189L208.827 299.637Z" stroke="#263238" stroke-linecap="round" stroke-linejoin="round"/>
<path d="M205.268 304.506L202.716 302.643L200.853 305.195L203.405 307.058L205.268 304.506Z" stroke="#263238" stroke-linecap="round" stroke-linejoin="round"/>
<path d="M201.701 309.379L199.149 307.516L197.285 310.068L199.837 311.931L201.701 309.379Z" stroke="#263238" stroke-linecap="round" stroke-linejoin="round"/>
<path d="M197.43 315.22L196.27 316.8L193.72 314.93L195.58 312.38L198.14 314.24L197.57 315.02" stroke="#263238" stroke-linecap="round" stroke-linejoin="round"/>
<path d="M364.011 2.34898L361.459 0.485352L359.596 3.0373L362.148 4.90092L364.011 2.34898Z" stroke="#263238" stroke-linecap="round" stroke-linejoin="round"/>
<path d="M360.454 7.22203L357.902 5.3584L356.039 7.91034L358.591 9.77397L360.454 7.22203Z" stroke="#263238" stroke-linecap="round" stroke-linejoin="round"/>
<path d="M356.905 12.0912L354.354 10.2275L352.49 12.7795L355.042 14.6431L356.905 12.0912Z" stroke="#263238" stroke-linecap="round" stroke-linejoin="round"/>
<path d="M353.348 16.9554L350.796 15.0918L348.933 17.6437L351.485 19.5074L353.348 16.9554Z" stroke="#263238" stroke-linecap="round" stroke-linejoin="round"/>
<path d="M349.795 21.8265L347.243 19.9629L345.38 22.5148L347.931 24.3785L349.795 21.8265Z" stroke="#263238" stroke-linecap="round" stroke-linejoin="round"/>
<path d="M346.238 26.6898L343.686 24.8262L341.822 27.3781L344.374 29.2417L346.238 26.6898Z" stroke="#263238" stroke-linecap="round" stroke-linejoin="round"/>
<path d="M342.671 31.5629L340.119 29.6992L338.255 32.2512L340.807 34.1148L342.671 31.5629Z" stroke="#263238" stroke-linecap="round" stroke-linejoin="round"/>
<path d="M339.122 36.4418L336.57 34.5781L334.706 37.1301L337.258 38.9937L339.122 36.4418Z" stroke="#263238" stroke-linecap="round" stroke-linejoin="round"/>
<path d="M335.565 41.3051L333.013 39.4414L331.149 41.9934L333.701 43.857L335.565 41.3051Z" stroke="#263238" stroke-linecap="round" stroke-linejoin="round"/>
<path d="M332.006 46.1752L329.454 44.3115L327.59 46.8635L330.142 48.7271L332.006 46.1752Z" stroke="#263238" stroke-linecap="round" stroke-linejoin="round"/>
<path d="M328.448 51.0482L325.896 49.1846L324.033 51.7365L326.585 53.6001L328.448 51.0482Z" stroke="#263238" stroke-linecap="round" stroke-linejoin="round"/>
<path d="M324.891 55.9115L322.339 54.0479L320.476 56.5998L323.028 58.4634L324.891 55.9115Z" stroke="#263238" stroke-linecap="round" stroke-linejoin="round"/>
<path d="M321.348 60.7826L318.796 58.9189L316.933 61.4709L319.485 63.3345L321.348 60.7826Z" stroke="#263238" stroke-linecap="round" stroke-linejoin="round"/>
<path d="M317.781 65.6459L315.229 63.7822L313.365 66.3342L315.917 68.1978L317.781 65.6459Z" stroke="#263238" stroke-linecap="round" stroke-linejoin="round"/>
<path d="M314.232 70.515L311.68 68.6514L309.817 71.2033L312.368 73.0669L314.232 70.515Z" stroke="#263238" stroke-linecap="round" stroke-linejoin="round"/>
<path d="M310.675 75.389L308.123 73.5254L306.259 76.0773L308.811 77.941L310.675 75.389Z" stroke="#263238" stroke-linecap="round" stroke-linejoin="round"/>
<path d="M307.108 80.2523L304.556 78.3887L302.693 80.9406L305.244 82.8043L307.108 80.2523Z" stroke="#263238" stroke-linecap="round" stroke-linejoin="round"/>
<path d="M303.559 85.1312L301.007 83.2676L299.143 85.8195L301.695 87.6832L303.559 85.1312Z" stroke="#263238" stroke-linecap="round" stroke-linejoin="round"/>
<path d="M300.747 90.4376L298.188 88.5732L296.323 91.1328L298.883 92.9972L300.747 90.4376Z" stroke="#263238" stroke-width="1.0021" stroke-linecap="round" stroke-linejoin="round"/>
<path d="M296.453 94.8636L293.901 93L292.037 95.552L294.589 97.4156L296.453 94.8636Z" stroke="#263238" stroke-linecap="round" stroke-linejoin="round"/>
<path d="M292.902 99.7289L290.35 97.8652L288.486 100.417L291.038 102.281L292.902 99.7289Z" stroke="#263238" stroke-linecap="round" stroke-linejoin="round"/>
<path d="M289.352 104.598L286.8 102.734L284.937 105.286L287.489 107.15L289.352 104.598Z" stroke="#263238" stroke-linecap="round" stroke-linejoin="round"/>
<path d="M285.785 109.472L283.233 107.608L281.37 110.16L283.922 112.024L285.785 109.472Z" stroke="#263238" stroke-linecap="round" stroke-linejoin="round"/>
<path d="M282.228 114.335L279.676 112.472L277.813 115.024L280.365 116.887L282.228 114.335Z" stroke="#263238" stroke-linecap="round" stroke-linejoin="round"/>
<path d="M278.669 119.214L276.117 117.351L274.254 119.903L276.805 121.766L278.669 119.214Z" stroke="#263238" stroke-linecap="round" stroke-linejoin="round"/>
<path d="M275.112 124.078L272.56 122.214L270.696 124.766L273.248 126.629L275.112 124.078Z" stroke="#263238" stroke-linecap="round" stroke-linejoin="round"/>
<path d="M271.563 128.947L269.011 127.083L267.148 129.635L269.7 131.499L271.563 128.947Z" stroke="#263238" stroke-linecap="round" stroke-linejoin="round"/>
<path d="M267.996 133.821L265.444 131.957L263.58 134.509L266.132 136.373L267.996 133.821Z" stroke="#263238" stroke-linecap="round" stroke-linejoin="round"/>
<path d="M264.445 138.675L261.893 136.812L260.029 139.363L262.581 141.227L264.445 138.675Z" stroke="#263238" stroke-linecap="round" stroke-linejoin="round"/>
<path d="M260.896 143.555L258.344 141.691L256.48 144.243L259.032 146.107L260.896 143.555Z" stroke="#263238" stroke-linecap="round" stroke-linejoin="round"/>
<path d="M257.339 148.418L254.787 146.555L252.923 149.107L255.475 150.97L257.339 148.418Z" stroke="#263238" stroke-linecap="round" stroke-linejoin="round"/>
<path d="M253.779 153.297L251.228 151.434L249.364 153.986L251.916 155.849L253.779 153.297Z" stroke="#263238" stroke-linecap="round" stroke-linejoin="round"/>
<path d="M250.222 158.161L247.67 156.297L245.807 158.849L248.359 160.712L250.222 158.161Z" stroke="#263238" stroke-linecap="round" stroke-linejoin="round"/>
<path d="M246.665 163.024L244.113 161.16L242.25 163.712L244.802 165.576L246.665 163.024Z" stroke="#263238" stroke-linecap="round" stroke-linejoin="round"/>
<path d="M243.106 167.904L240.554 166.04L238.691 168.592L241.243 170.456L243.106 167.904Z" stroke="#263238" stroke-linecap="round" stroke-linejoin="round"/>
<path d="M239.549 172.767L236.997 170.903L235.133 173.455L237.685 175.319L239.549 172.767Z" stroke="#263238" stroke-linecap="round" stroke-linejoin="round"/>
<path d="M236.006 177.638L233.454 175.774L231.59 178.326L234.142 180.19L236.006 177.638Z" stroke="#263238" stroke-linecap="round" stroke-linejoin="round"/>
<path d="M232.449 182.501L229.897 180.638L228.033 183.19L230.585 185.053L232.449 182.501Z" stroke="#263238" stroke-linecap="round" stroke-linejoin="round"/>
<path d="M228.892 187.365L226.34 185.501L224.476 188.053L227.028 189.917L228.892 187.365Z" stroke="#263238" stroke-linecap="round" stroke-linejoin="round"/>
<path d="M225.343 192.244L222.791 190.38L220.927 192.932L223.479 194.795L225.343 192.244Z" stroke="#263238" stroke-linecap="round" stroke-linejoin="round"/>
<path d="M221.776 197.108L219.224 195.244L217.36 197.796L219.912 199.66L221.776 197.108Z" stroke="#263238" stroke-linecap="round" stroke-linejoin="round"/>
<path d="M218.227 201.987L215.675 200.123L213.811 202.675L216.363 204.539L218.227 201.987Z" stroke="#263238" stroke-linecap="round" stroke-linejoin="round"/>
<path d="M214.659 206.85L212.107 204.986L210.244 207.538L212.796 209.402L214.659 206.85Z" stroke="#263238" stroke-linecap="round" stroke-linejoin="round"/>
<path d="M211.111 211.729L208.559 209.865L206.695 212.417L209.247 214.281L211.111 211.729Z" stroke="#263238" stroke-linecap="round" stroke-linejoin="round"/>
<path d="M207.559 216.584L205.007 214.721L203.144 217.273L205.696 219.136L207.559 216.584Z" stroke="#263238" stroke-linecap="round" stroke-linejoin="round"/>
<path d="M203.992 221.448L201.44 219.584L199.577 222.136L202.129 224L203.992 221.448Z" stroke="#263238" stroke-linecap="round" stroke-linejoin="round"/>
<path d="M200.443 226.328L197.891 224.464L196.027 227.016L198.579 228.879L200.443 226.328Z" stroke="#263238" stroke-linecap="round" stroke-linejoin="round"/>
<path d="M196.886 231.191L194.334 229.327L192.47 231.879L195.022 233.743L196.886 231.191Z" stroke="#263238" stroke-linecap="round" stroke-linejoin="round"/>
<path d="M193.337 236.07L190.785 234.206L188.922 236.758L191.473 238.622L193.337 236.07Z" stroke="#263238" stroke-linecap="round" stroke-linejoin="round"/>
<path d="M189.77 240.933L187.218 239.069L185.354 241.621L187.906 243.485L189.77 240.933Z" stroke="#263238" stroke-linecap="round" stroke-linejoin="round"/>
<path d="M186.213 245.806L183.661 243.942L181.797 246.494L184.349 248.358L186.213 245.806Z" stroke="#263238" stroke-linecap="round" stroke-linejoin="round"/>
<path d="M182.664 250.676L180.112 248.812L178.248 251.364L180.8 253.228L182.664 250.676Z" stroke="#263238" stroke-linecap="round" stroke-linejoin="round"/>
<path d="M179.102 255.531L176.55 253.667L174.687 256.219L177.239 258.083L179.102 255.531Z" stroke="#263238" stroke-linecap="round" stroke-linejoin="round"/>
<path d="M175.553 260.411L173.001 258.547L171.138 261.099L173.69 262.962L175.553 260.411Z" stroke="#263238" stroke-linecap="round" stroke-linejoin="round"/>
<path d="M171.996 265.274L169.444 263.41L167.581 265.962L170.133 267.826L171.996 265.274Z" stroke="#263238" stroke-linecap="round" stroke-linejoin="round"/>
<path d="M168.439 270.147L165.887 268.283L164.024 270.835L166.576 272.699L168.439 270.147Z" stroke="#263238" stroke-linecap="round" stroke-linejoin="round"/>
<path d="M164.89 275.016L162.338 273.152L160.475 275.704L163.027 277.568L164.89 275.016Z" stroke="#263238" stroke-linecap="round" stroke-linejoin="round"/>
<path d="M161.333 279.89L158.781 278.026L156.918 280.578L159.47 282.442L161.333 279.89Z" stroke="#263238" stroke-linecap="round" stroke-linejoin="round"/>
<path d="M157.784 284.759L155.232 282.896L153.368 285.447L155.92 287.311L157.784 284.759Z" stroke="#263238" stroke-linecap="round" stroke-linejoin="round"/>
<path d="M216.01 49.55L208.34 44.96V53.16" stroke="#263238" stroke-linecap="round" stroke-linejoin="round"/>
<path d="M208.34 57.9102V62.7002" stroke="#263238" stroke-linecap="round" stroke-linejoin="round"/>
<path d="M208.34 62.7002V69.6302L216.12 64.9702" stroke="#263238" stroke-linecap="round" stroke-linejoin="round"/>
<path d="M220 62.6102L228.93 57.2702L219.19 51.4502" stroke="#263238" stroke-linecap="round" stroke-linejoin="round"/>
<path d="M7.66016 235.24V230.97H12.5102V236.03" stroke="#263238" stroke-linecap="round" stroke-linejoin="round"/>
<path d="M12.5101 239.7V252.61H10.8301" stroke="#263238" stroke-linecap="round" stroke-linejoin="round"/>
<path d="M9.77015 252.63H7.66016V244.47" stroke="#263238" stroke-linecap="round" stroke-linejoin="round"/>
<path d="M7.66016 240.78V237.35" stroke="#263238" stroke-linecap="round" stroke-linejoin="round"/>
<path d="M18.2803 233.39V230.97H23.1203V235.5" stroke="#263238" stroke-linecap="round" stroke-linejoin="round"/>
<path d="M23.1201 240.78V245" stroke="#263238" stroke-linecap="round" stroke-linejoin="round"/>
<path d="M23.1203 247.11V252.63H18.2803V235.24" stroke="#263238" stroke-linecap="round" stroke-linejoin="round"/>
<path d="M419.41 224.55H422.97" stroke="#263238" stroke-linecap="round" stroke-linejoin="round"/>
<path d="M426.85 224.55H433.59V245.83H428.15" stroke="#263238" stroke-linecap="round" stroke-linejoin="round"/>
<path d="M423.62 245.83H412.3V236.83" stroke="#263238" stroke-linecap="round" stroke-linejoin="round"/>
<path d="M412.3 234.53V224.53H416.51" stroke="#263238" stroke-linecap="round" stroke-linejoin="round"/>
<path d="M0.5 327.7H452.52" stroke="#263238" stroke-linecap="round" stroke-linejoin="round"/>
<path d="M347.09 357.7C317.14 357.7 317.14 369.37 168.34 369.37C74.4202 369.37 39.2402 365.37 42.5002 357.37C43.0802 355.96 51.9002 351.6 42.7002 349.54C37.6102 348.39 18.5702 347.48 14.1502 343.94C9.05021 339.84 24.1502 335.43 50.6502 335.43" stroke="#263238" stroke-width="2" stroke-linecap="round" stroke-linejoin="round"/>
<path d="M387.01 102.53H66.0201C64.1091 102.53 62.5601 104.079 62.5601 105.99V322.51C62.5601 324.421 64.1091 325.97 66.0201 325.97H387.01C388.921 325.97 390.47 324.421 390.47 322.51V105.99C390.47 104.079 388.921 102.53 387.01 102.53Z" fill="#263238"/>
<path d="M386.41 112.33H66.6201V311.04H386.41V112.33Z" fill="white" stroke="#263238" stroke-linecap="round" stroke-linejoin="round"/>
<path d="M235.22 316.03H217.8C217.231 316.03 216.77 316.491 216.77 317.06V318.65C216.77 319.219 217.231 319.68 217.8 319.68H235.22C235.789 319.68 236.25 319.219 236.25 318.65V317.06C236.25 316.491 235.789 316.03 235.22 316.03Z" fill="white"/>
<path d="M226.51 109.81C227.952 109.81 229.12 108.641 229.12 107.2C229.12 105.758 227.952 104.59 226.51 104.59C225.069 104.59 223.9 105.758 223.9 107.2C223.9 108.641 225.069 109.81 226.51 109.81Z" fill="white"/>
<path d="M282.1 282.9V293.33L289.82 288.12L282.1 282.9Z" stroke="#263238" stroke-linecap="round" stroke-linejoin="round"/>
<path d="M290.26 282.9V293.33L297.98 288.12L290.26 282.9Z" stroke="#263238" stroke-linecap="round" stroke-linejoin="round"/>
<path d="M222.5 293.33V282.9L214.77 288.12L222.5 293.33Z" stroke="#263238" stroke-linecap="round" stroke-linejoin="round"/>
<path d="M214.35 282.9V293.33" stroke="#263238" stroke-linecap="round" stroke-linejoin="round"/>
<path d="M212.14 282.9V293.33" stroke="#263238" stroke-linecap="round" stroke-linejoin="round"/>
<path d="M309.1 282.9V293.33L316.83 288.12L309.1 282.9Z" stroke="#263238" stroke-linecap="round" stroke-linejoin="round"/>
<path d="M317.25 293.33V282.9" stroke="#263238" stroke-linecap="round" stroke-linejoin="round"/>
<path d="M319.46 293.33V282.9" stroke="#263238" stroke-linecap="round" stroke-linejoin="round"/>
<path d="M249.5 293.33V282.9L241.78 288.12L249.5 293.33Z" stroke="#263238" stroke-linecap="round" stroke-linejoin="round"/>
<path d="M241.34 293.33V282.9L233.62 288.12L241.34 293.33Z" stroke="#263238" stroke-linecap="round" stroke-linejoin="round"/>
<path d="M261.94 282.9V293.33L269.66 288.12L261.94 282.9Z" stroke="#263238" stroke-linecap="round" stroke-linejoin="round"/>
<path opacity="0.5" d="M384.55 113.82H68.4702V120.67H384.55V113.82Z" fill="#F2B77D"/>
<path d="M68.4702 120.67H384.55" stroke="#263238" stroke-linecap="round" stroke-linejoin="round"/>
<path d="M74.2803 117.08H84.5203" stroke="#263238" stroke-linecap="round" stroke-linejoin="round"/>
<path d="M95.71 117.08H104.92" stroke="#263238" stroke-linecap="round" stroke-linejoin="round"/>
<path d="M116.86 117.08H125.83" stroke="#263238" stroke-linecap="round" stroke-linejoin="round"/>
<path d="M145.54 120.67H140.81V309.51H145.54V120.67Z" fill="#263238"/>
<path d="M144.21 187.13H142.14C141.406 187.13 140.81 187.725 140.81 188.46V198.87C140.81 199.604 141.406 200.2 142.14 200.2H144.21C144.945 200.2 145.54 199.604 145.54 198.87V188.46C145.54 187.725 144.945 187.13 144.21 187.13Z" fill="#F2B77D" stroke="#263238" stroke-linecap="round" stroke-linejoin="round"/>
<path d="M376.1 129.811H155.5V275.061H376.1V129.811Z" fill="#263238"/>
<path d="M253.49 190.13V214.75L278.11 202.44L253.49 190.13Z" fill="#F2B77D" stroke="#263238" stroke-linecap="round" stroke-linejoin="round"/>
<path opacity="0.5" d="M99.1101 127.9H75.5601V143.41H99.1101V127.9Z" fill="black"/>
<path d="M84.73 133.05V138.25L89.93 135.65L84.73 133.05Z" fill="#263238"/>
<g opacity="0.5">
<path d="M74.9401 127.9H73.3101V129.26H74.9401V127.9Z" fill="black"/>
<path d="M74.9401 130.261H73.3101V131.621H74.9401V130.261Z" fill="black"/>
<path d="M74.9401 132.62H73.3101V133.98H74.9401V132.62Z" fill="black"/>
<path d="M74.9401 134.971H73.3101V136.331H74.9401V134.971Z" fill="black"/>
<path d="M74.9401 137.33H73.3101V138.69H74.9401V137.33Z" fill="black"/>
<path d="M74.9401 139.69H73.3101V141.05H74.9401V139.69Z" fill="black"/>
<path d="M74.9401 142.051H73.3101V143.411H74.9401V142.051Z" fill="black"/>
<path d="M101.35 127.9H99.7202V129.26H101.35V127.9Z" fill="black"/>
<path d="M101.35 130.261H99.7202V131.621H101.35V130.261Z" fill="black"/>
<path d="M101.35 132.62H99.7202V133.98H101.35V132.62Z" fill="black"/>
<path d="M101.35 134.971H99.7202V136.331H101.35V134.971Z" fill="black"/>
<path d="M101.35 137.33H99.7202V138.69H101.35V137.33Z" fill="black"/>
<path d="M101.35 139.69H99.7202V141.05H101.35V139.69Z" fill="black"/>
<path d="M101.35 142.051H99.7202V143.411H101.35V142.051Z" fill="black"/>
</g>
<path d="M80.8604 147.11H93.8004" stroke="#263238" stroke-linecap="round" stroke-linejoin="round"/>
<path opacity="0.5" d="M132.15 127.9H108.6V143.41H132.15V127.9Z" fill="black"/>
<path d="M117.77 133.05V138.25L122.97 135.65L117.77 133.05Z" fill="#263238"/>
<g opacity="0.5">
<path d="M107.98 127.9H106.35V129.26H107.98V127.9Z" fill="black"/>
<path d="M107.98 130.261H106.35V131.621H107.98V130.261Z" fill="black"/>
<path d="M107.98 132.62H106.35V133.98H107.98V132.62Z" fill="black"/>
<path d="M107.98 134.971H106.35V136.331H107.98V134.971Z" fill="black"/>
<path d="M107.98 137.33H106.35V138.69H107.98V137.33Z" fill="black"/>
<path d="M107.98 139.69H106.35V141.05H107.98V139.69Z" fill="black"/>
<path d="M107.98 142.051H106.35V143.411H107.98V142.051Z" fill="black"/>
<path d="M134.39 127.9H132.76V129.26H134.39V127.9Z" fill="black"/>
<path d="M134.39 130.261H132.76V131.621H134.39V130.261Z" fill="black"/>
<path d="M134.39 132.62H132.76V133.98H134.39V132.62Z" fill="black"/>
<path d="M134.39 134.971H132.76V136.331H134.39V134.971Z" fill="black"/>
<path d="M134.39 137.33H132.76V138.69H134.39V137.33Z" fill="black"/>
<path d="M134.39 139.69H132.76V141.05H134.39V139.69Z" fill="black"/>
<path d="M134.39 142.051H132.76V143.411H134.39V142.051Z" fill="black"/>
</g>
<path d="M113.91 147.11H126.84" stroke="#263238" stroke-linecap="round" stroke-linejoin="round"/>
<path opacity="0.5" d="M99.1101 154.271H75.5601V169.781H99.1101V154.271Z" fill="black"/>
<path d="M84.73 159.42V164.62L89.93 162.02L84.73 159.42Z" fill="#263238"/>
<g opacity="0.5">
<path d="M74.9401 154.271H73.3101V155.631H74.9401V154.271Z" fill="black"/>
<path d="M74.9401 156.62H73.3101V157.98H74.9401V156.62Z" fill="black"/>
<path d="M74.9401 158.98H73.3101V160.34H74.9401V158.98Z" fill="black"/>
<path d="M74.9401 161.341H73.3101V162.701H74.9401V161.341Z" fill="black"/>
<path d="M74.9401 163.7H73.3101V165.06H74.9401V163.7Z" fill="black"/>
<path d="M74.9401 166.051H73.3101V167.411H74.9401V166.051Z" fill="black"/>
<path d="M74.9401 168.41H73.3101V169.77H74.9401V168.41Z" fill="black"/>
<path d="M101.35 154.271H99.7202V155.631H101.35V154.271Z" fill="black"/>
<path d="M101.35 156.62H99.7202V157.98H101.35V156.62Z" fill="black"/>
<path d="M101.35 158.98H99.7202V160.34H101.35V158.98Z" fill="black"/>
<path d="M101.35 161.341H99.7202V162.701H101.35V161.341Z" fill="black"/>
<path d="M101.35 163.7H99.7202V165.06H101.35V163.7Z" fill="black"/>
<path d="M101.35 166.051H99.7202V167.411H101.35V166.051Z" fill="black"/>
<path d="M101.35 168.41H99.7202V169.77H101.35V168.41Z" fill="black"/>
</g>
<path d="M80.8604 173.471H93.8004" stroke="#263238" stroke-linecap="round" stroke-linejoin="round"/>
<path opacity="0.5" d="M132.15 154.271H108.6V169.781H132.15V154.271Z" fill="black"/>
<path d="M117.77 159.42V164.62L122.97 162.02L117.77 159.42Z" fill="#263238"/>
<g opacity="0.5">
<path d="M107.98 154.271H106.35V155.631H107.98V154.271Z" fill="black"/>
<path d="M107.98 156.62H106.35V157.98H107.98V156.62Z" fill="black"/>
<path d="M107.98 158.98H106.35V160.34H107.98V158.98Z" fill="black"/>
<path d="M107.98 161.341H106.35V162.701H107.98V161.341Z" fill="black"/>
<path d="M107.98 163.7H106.35V165.06H107.98V163.7Z" fill="black"/>
<path d="M107.98 166.051H106.35V167.411H107.98V166.051Z" fill="black"/>
<path d="M107.98 168.41H106.35V169.77H107.98V168.41Z" fill="black"/>
<path d="M134.39 154.271H132.76V155.631H134.39V154.271Z" fill="black"/>
<path d="M134.39 156.62H132.76V157.98H134.39V156.62Z" fill="black"/>
<path d="M134.39 158.98H132.76V160.34H134.39V158.98Z" fill="black"/>
<path d="M134.39 161.341H132.76V162.701H134.39V161.341Z" fill="black"/>
<path d="M134.39 163.7H132.76V165.06H134.39V163.7Z" fill="black"/>
<path d="M134.39 166.051H132.76V167.411H134.39V166.051Z" fill="black"/>
<path d="M134.39 168.41H132.76V169.77H134.39V168.41Z" fill="black"/>
</g>
<path d="M113.91 173.471H126.84" stroke="#263238" stroke-linecap="round" stroke-linejoin="round"/>
<path opacity="0.5" d="M99.1101 180.63H75.5601V196.14H99.1101V180.63Z" fill="black"/>
<path d="M84.73 185.78V190.99L89.93 188.39L84.73 185.78Z" fill="#263238"/>
<g opacity="0.5">
<path d="M74.9401 180.63H73.3101V181.99H74.9401V180.63Z" fill="black"/>
<path d="M74.9401 182.99H73.3101V184.35H74.9401V182.99Z" fill="black"/>
<path d="M74.9401 185.35H73.3101V186.71H74.9401V185.35Z" fill="black"/>
<path d="M74.9401 187.71H73.3101V189.07H74.9401V187.71Z" fill="black"/>
<path d="M74.9401 190.06H73.3101V191.42H74.9401V190.06Z" fill="black"/>
<path d="M74.9401 192.42H73.3101V193.78H74.9401V192.42Z" fill="black"/>
<path d="M74.9401 194.78H73.3101V196.14H74.9401V194.78Z" fill="black"/>
<path d="M101.35 180.63H99.7202V181.99H101.35V180.63Z" fill="black"/>
<path d="M101.35 182.99H99.7202V184.35H101.35V182.99Z" fill="black"/>
<path d="M101.35 185.35H99.7202V186.71H101.35V185.35Z" fill="black"/>
<path d="M101.35 187.71H99.7202V189.07H101.35V187.71Z" fill="black"/>
<path d="M101.35 190.06H99.7202V191.42H101.35V190.06Z" fill="black"/>
<path d="M101.35 192.42H99.7202V193.78H101.35V192.42Z" fill="black"/>
<path d="M101.35 194.78H99.7202V196.14H101.35V194.78Z" fill="black"/>
</g>
<path d="M80.8604 199.84H93.8004" stroke="#263238" stroke-linecap="round" stroke-linejoin="round"/>
<path opacity="0.5" d="M132.15 180.63H108.6V196.14H132.15V180.63Z" fill="black"/>
<path d="M117.77 185.78V190.99L122.97 188.39L117.77 185.78Z" fill="#263238"/>
<g opacity="0.5">
<path d="M107.98 180.63H106.35V181.99H107.98V180.63Z" fill="black"/>
<path d="M107.98 182.99H106.35V184.35H107.98V182.99Z" fill="black"/>
<path d="M107.98 185.35H106.35V186.71H107.98V185.35Z" fill="black"/>
<path d="M107.98 187.71H106.35V189.07H107.98V187.71Z" fill="black"/>
<path d="M107.98 190.06H106.35V191.42H107.98V190.06Z" fill="black"/>
<path d="M107.98 192.42H106.35V193.78H107.98V192.42Z" fill="black"/>
<path d="M107.98 194.78H106.35V196.14H107.98V194.78Z" fill="black"/>
<path d="M134.39 180.63H132.76V181.99H134.39V180.63Z" fill="black"/>
<path d="M134.39 182.99H132.76V184.35H134.39V182.99Z" fill="black"/>
<path d="M134.39 185.35H132.76V186.71H134.39V185.35Z" fill="black"/>
<path d="M134.39 187.71H132.76V189.07H134.39V187.71Z" fill="black"/>
<path d="M134.39 190.06H132.76V191.42H134.39V190.06Z" fill="black"/>
<path d="M134.39 192.42H132.76V193.78H134.39V192.42Z" fill="black"/>
<path d="M134.39 194.78H132.76V196.14H134.39V194.78Z" fill="black"/>
</g>
<path d="M113.91 199.84H126.84" stroke="#263238" stroke-linecap="round" stroke-linejoin="round"/>
<path opacity="0.5" d="M99.1101 207H75.5601V222.51H99.1101V207Z" fill="black"/>
<path d="M84.73 212.15V217.35L89.93 214.75L84.73 212.15Z" fill="#263238"/>
<g opacity="0.5">
<path d="M74.9401 207H73.3101V208.36H74.9401V207Z" fill="black"/>
<path d="M74.9401 209.36H73.3101V210.72H74.9401V209.36Z" fill="black"/>
<path d="M74.9401 211.71H73.3101V213.07H74.9401V211.71Z" fill="black"/>
<path d="M74.9401 214.07H73.3101V215.43H74.9401V214.07Z" fill="black"/>
<path d="M74.9401 216.43H73.3101V217.79H74.9401V216.43Z" fill="black"/>
<path d="M74.9401 218.79H73.3101V220.15H74.9401V218.79Z" fill="black"/>
<path d="M74.9401 221.15H73.3101V222.51H74.9401V221.15Z" fill="black"/>
<path d="M101.35 207H99.7202V208.36H101.35V207Z" fill="black"/>
<path d="M101.35 209.36H99.7202V210.72H101.35V209.36Z" fill="black"/>
<path d="M101.35 211.71H99.7202V213.07H101.35V211.71Z" fill="black"/>
<path d="M101.35 214.07H99.7202V215.43H101.35V214.07Z" fill="black"/>
<path d="M101.35 216.43H99.7202V217.79H101.35V216.43Z" fill="black"/>
<path d="M101.35 218.79H99.7202V220.15H101.35V218.79Z" fill="black"/>
<path d="M101.35 221.15H99.7202V222.51H101.35V221.15Z" fill="black"/>
</g>
<path d="M80.8604 226.21H93.8004" stroke="#263238" stroke-linecap="round" stroke-linejoin="round"/>
<path opacity="0.5" d="M132.15 207H108.6V222.51H132.15V207Z" fill="black"/>
<path d="M117.77 212.15V217.35L122.97 214.75L117.77 212.15Z" fill="#263238"/>
<g opacity="0.5">
<path d="M107.98 207H106.35V208.36H107.98V207Z" fill="black"/>
<path d="M107.98 209.36H106.35V210.72H107.98V209.36Z" fill="black"/>
<path d="M107.98 211.71H106.35V213.07H107.98V211.71Z" fill="black"/>
<path d="M107.98 214.07H106.35V215.43H107.98V214.07Z" fill="black"/>
<path d="M107.98 216.43H106.35V217.79H107.98V216.43Z" fill="black"/>
<path d="M107.98 218.79H106.35V220.15H107.98V218.79Z" fill="black"/>
<path d="M107.98 221.15H106.35V222.51H107.98V221.15Z" fill="black"/>
<path d="M134.39 207H132.76V208.36H134.39V207Z" fill="black"/>
<path d="M134.39 209.36H132.76V210.72H134.39V209.36Z" fill="black"/>
<path d="M134.39 211.71H132.76V213.07H134.39V211.71Z" fill="black"/>
<path d="M134.39 214.07H132.76V215.43H134.39V214.07Z" fill="black"/>
<path d="M134.39 216.43H132.76V217.79H134.39V216.43Z" fill="black"/>
<path d="M134.39 218.79H132.76V220.15H134.39V218.79Z" fill="black"/>
<path d="M134.39 221.15H132.76V222.51H134.39V221.15Z" fill="black"/>
</g>
<path d="M113.91 226.21H126.84" stroke="#263238" stroke-linecap="round" stroke-linejoin="round"/>
<path opacity="0.5" d="M99.1101 233.37H75.5601V248.88H99.1101V233.37Z" fill="black"/>
<path d="M84.73 238.521V243.721L89.93 241.12L84.73 238.521Z" fill="#263238"/>
<g opacity="0.5">
<path d="M74.9401 233.37H73.3101V234.73H74.9401V233.37Z" fill="black"/>
<path d="M74.9401 235.72H73.3101V237.08H74.9401V235.72Z" fill="black"/>
<path d="M74.9401 238.08H73.3101V239.44H74.9401V238.08Z" fill="black"/>
<path d="M74.9401 240.44H73.3101V241.8H74.9401V240.44Z" fill="black"/>
<path d="M74.9401 242.8H73.3101V244.16H74.9401V242.8Z" fill="black"/>
<path d="M74.9401 245.15H73.3101V246.51H74.9401V245.15Z" fill="black"/>
<path d="M74.9401 247.51H73.3101V248.87H74.9401V247.51Z" fill="black"/>
<path d="M101.35 233.37H99.7202V234.73H101.35V233.37Z" fill="black"/>
<path d="M101.35 235.72H99.7202V237.08H101.35V235.72Z" fill="black"/>
<path d="M101.35 238.08H99.7202V239.44H101.35V238.08Z" fill="black"/>
<path d="M101.35 240.44H99.7202V241.8H101.35V240.44Z" fill="black"/>
<path d="M101.35 242.8H99.7202V244.16H101.35V242.8Z" fill="black"/>
<path d="M101.35 245.15H99.7202V246.51H101.35V245.15Z" fill="black"/>
<path d="M101.35 247.51H99.7202V248.87H101.35V247.51Z" fill="black"/>
</g>
<path d="M80.8604 252.57H93.8004" stroke="#263238" stroke-linecap="round" stroke-linejoin="round"/>
<path opacity="0.5" d="M132.15 233.37H108.6V248.88H132.15V233.37Z" fill="black"/>
<path d="M117.77 238.521V243.721L122.97 241.12L117.77 238.521Z" fill="#263238"/>
<g opacity="0.5">
<path d="M107.98 233.37H106.35V234.73H107.98V233.37Z" fill="black"/>
<path d="M107.98 235.72H106.35V237.08H107.98V235.72Z" fill="black"/>
<path d="M107.98 238.08H106.35V239.44H107.98V238.08Z" fill="black"/>
<path d="M107.98 240.44H106.35V241.8H107.98V240.44Z" fill="black"/>
<path d="M107.98 242.8H106.35V244.16H107.98V242.8Z" fill="black"/>
<path d="M107.98 245.15H106.35V246.51H107.98V245.15Z" fill="black"/>
<path d="M107.98 247.51H106.35V248.87H107.98V247.51Z" fill="black"/>
<path d="M134.39 233.37H132.76V234.73H134.39V233.37Z" fill="black"/>
<path d="M134.39 235.72H132.76V237.08H134.39V235.72Z" fill="black"/>
<path d="M134.39 238.08H132.76V239.44H134.39V238.08Z" fill="black"/>
<path d="M134.39 240.44H132.76V241.8H134.39V240.44Z" fill="black"/>
<path d="M134.39 242.8H132.76V244.16H134.39V242.8Z" fill="black"/>
<path d="M134.39 245.15H132.76V246.51H134.39V245.15Z" fill="black"/>
<path d="M134.39 247.51H132.76V248.87H134.39V247.51Z" fill="black"/>
</g>
<path d="M113.91 252.57H126.84" stroke="#263238" stroke-linecap="round" stroke-linejoin="round"/>
<path opacity="0.5" d="M99.1101 259.73H75.5601V275.24H99.1101V259.73Z" fill="black"/>
<path d="M84.73 264.88V270.09L89.93 267.49L84.73 264.88Z" fill="#263238"/>
<g opacity="0.5">
<path d="M74.9401 259.73H73.3101V261.09H74.9401V259.73Z" fill="black"/>
<path d="M74.9401 262.091H73.3101V263.451H74.9401V262.091Z" fill="black"/>
<path d="M74.9401 264.45H73.3101V265.81H74.9401V264.45Z" fill="black"/>
<path d="M74.9401 266.811H73.3101V268.171H74.9401V266.811Z" fill="black"/>
<path d="M74.9401 269.16H73.3101V270.52H74.9401V269.16Z" fill="black"/>
<path d="M74.9401 271.521H73.3101V272.881H74.9401V271.521Z" fill="black"/>
<path d="M74.9401 273.881H73.3101V275.241H74.9401V273.881Z" fill="black"/>
<path d="M101.35 259.73H99.7202V261.09H101.35V259.73Z" fill="black"/>
<path d="M101.35 262.091H99.7202V263.451H101.35V262.091Z" fill="black"/>
<path d="M101.35 264.45H99.7202V265.81H101.35V264.45Z" fill="black"/>
<path d="M101.35 266.811H99.7202V268.171H101.35V266.811Z" fill="black"/>
<path d="M101.35 269.16H99.7202V270.52H101.35V269.16Z" fill="black"/>
<path d="M101.35 271.521H99.7202V272.881H101.35V271.521Z" fill="black"/>
<path d="M101.35 273.881H99.7202V275.241H101.35V273.881Z" fill="black"/>
</g>
<path d="M80.8604 278.94H93.8004" stroke="#263238" stroke-linecap="round" stroke-linejoin="round"/>
<path opacity="0.5" d="M132.15 259.73H108.6V275.24H132.15V259.73Z" fill="black"/>
<path d="M117.77 264.88V270.09L122.97 267.49L117.77 264.88Z" fill="#263238"/>
<g opacity="0.5">
<path d="M107.98 259.73H106.35V261.09H107.98V259.73Z" fill="black"/>
<path d="M107.98 262.091H106.35V263.451H107.98V262.091Z" fill="black"/>
<path d="M107.98 264.45H106.35V265.81H107.98V264.45Z" fill="black"/>
<path d="M107.98 266.811H106.35V268.171H107.98V266.811Z" fill="black"/>
<path d="M107.98 269.16H106.35V270.52H107.98V269.16Z" fill="black"/>
<path d="M107.98 271.521H106.35V272.881H107.98V271.521Z" fill="black"/>
<path d="M107.98 273.881H106.35V275.241H107.98V273.881Z" fill="black"/>
<path d="M134.39 259.73H132.76V261.09H134.39V259.73Z" fill="black"/>
<path d="M134.39 262.091H132.76V263.451H134.39V262.091Z" fill="black"/>
<path d="M134.39 264.45H132.76V265.81H134.39V264.45Z" fill="black"/>
<path d="M134.39 266.811H132.76V268.171H134.39V266.811Z" fill="black"/>
<path d="M134.39 269.16H132.76V270.52H134.39V269.16Z" fill="black"/>
<path d="M134.39 271.521H132.76V272.881H134.39V271.521Z" fill="black"/>
<path d="M134.39 273.881H132.76V275.241H134.39V273.881Z" fill="black"/>
</g>
<path d="M113.91 278.94H126.84" stroke="#263238" stroke-linecap="round" stroke-linejoin="round"/>
<path opacity="0.5" d="M99.1101 286.101H75.5601V301.611H99.1101V286.101Z" fill="black"/>
<path d="M84.73 291.25V296.45L89.93 293.85L84.73 291.25Z" fill="#263238"/>
<g opacity="0.5">
<path d="M74.9401 286.101H73.3101V287.461H74.9401V286.101Z" fill="black"/>
<path d="M74.9401 288.461H73.3101V289.821H74.9401V288.461Z" fill="black"/>
<path d="M74.9401 290.811H73.3101V292.171H74.9401V290.811Z" fill="black"/>
<path d="M74.9401 293.171H73.3101V294.531H74.9401V293.171Z" fill="black"/>
<path d="M74.9401 295.53H73.3101V296.89H74.9401V295.53Z" fill="black"/>
<path d="M74.9401 297.891H73.3101V299.251H74.9401V297.891Z" fill="black"/>
<path d="M74.9401 300.251H73.3101V301.611H74.9401V300.251Z" fill="black"/>
<path d="M101.35 286.101H99.7202V287.461H101.35V286.101Z" fill="black"/>
<path d="M101.35 288.461H99.7202V289.821H101.35V288.461Z" fill="black"/>
<path d="M101.35 290.811H99.7202V292.171H101.35V290.811Z" fill="black"/>
<path d="M101.35 293.171H99.7202V294.531H101.35V293.171Z" fill="black"/>
<path d="M101.35 295.53H99.7202V296.89H101.35V295.53Z" fill="black"/>
<path d="M101.35 297.891H99.7202V299.251H101.35V297.891Z" fill="black"/>
<path d="M101.35 300.251H99.7202V301.611H101.35V300.251Z" fill="black"/>
</g>
<path d="M80.8604 305.311H93.8004" stroke="#263238" stroke-linecap="round" stroke-linejoin="round"/>
<path opacity="0.5" d="M132.15 286.101H108.6V301.611H132.15V286.101Z" fill="black"/>
<path d="M117.77 291.25V296.45L122.97 293.85L117.77 291.25Z" fill="#263238"/>
<g opacity="0.5">
<path d="M107.98 286.101H106.35V287.461H107.98V286.101Z" fill="black"/>
<path d="M107.98 288.461H106.35V289.821H107.98V288.461Z" fill="black"/>
<path d="M107.98 290.811H106.35V292.171H107.98V290.811Z" fill="black"/>
<path d="M107.98 293.171H106.35V294.531H107.98V293.171Z" fill="black"/>
<path d="M107.98 295.53H106.35V296.89H107.98V295.53Z" fill="black"/>
<path d="M107.98 297.891H106.35V299.251H107.98V297.891Z" fill="black"/>
<path d="M107.98 300.251H106.35V301.611H107.98V300.251Z" fill="black"/>
<path d="M134.39 286.101H132.76V287.461H134.39V286.101Z" fill="black"/>
<path d="M134.39 288.461H132.76V289.821H134.39V288.461Z" fill="black"/>
<path d="M134.39 290.811H132.76V292.171H134.39V290.811Z" fill="black"/>
<path d="M134.39 293.171H132.76V294.531H134.39V293.171Z" fill="black"/>
<path d="M134.39 295.53H132.76V296.89H134.39V295.53Z" fill="black"/>
<path d="M134.39 297.891H132.76V299.251H134.39V297.891Z" fill="black"/>
<path d="M134.39 300.251H132.76V301.611H134.39V300.251Z" fill="black"/>
</g>
<path d="M113.91 305.311H126.84" stroke="#263238" stroke-linecap="round" stroke-linejoin="round"/>
<path d="M391.97 337.83H61.0501C51.5101 337.83 23.1201 333.83 23.1201 333.83H429.9C429.9 333.83 401.51 337.83 391.97 337.83Z" fill="#999999" stroke="#263238" stroke-linecap="round" stroke-linejoin="round"/>
<path d="M429.9 333.801H23.1202C22.8478 333.794 22.5871 333.689 22.3868 333.504C22.1866 333.319 22.0606 333.068 22.0324 332.797C22.0042 332.526 22.0757 332.254 22.2336 332.032C22.3915 331.81 22.6249 331.653 22.8902 331.591L61.0502 323.431H391.97L430.13 331.591C430.395 331.653 430.629 331.81 430.787 332.032C430.945 332.254 431.016 332.526 430.988 332.797C430.96 333.068 430.834 333.319 430.634 333.504C430.433 333.689 430.173 333.794 429.9 333.801Z" fill="#BFBFBF" stroke="#263238" stroke-linecap="round" stroke-linejoin="round"/>
<path d="M407.68 328.62H45.3403L61.8303 324.74H391.19L407.68 328.62Z" stroke="#263238" stroke-linecap="round" stroke-linejoin="round"/>
<path d="M448.58 302.1C448.599 303.955 448.284 305.797 447.65 307.54C446.65 310.15 445.01 311.85 443.12 311.85H354.22L351.64 298.48L352.64 298.07L362.7 293.87C365.106 292.857 367.69 292.334 370.3 292.33H443.16C444.65 292.33 446 293.4 446.99 295.13C448.096 297.283 448.643 299.68 448.58 302.1Z" fill="#F2B77D"/>
<mask id="mask0_76_297" style="mask-type:luminance" maskUnits="userSpaceOnUse" x="351" y="292" width="98" height="20">
<path d="M448.58 302.1C448.599 303.955 448.284 305.797 447.65 307.54C446.65 310.15 445.01 311.85 443.12 311.85H354.22L351.64 298.48L352.64 298.07L362.7 293.87C365.106 292.857 367.69 292.334 370.3 292.33H443.16C444.65 292.33 446 293.4 446.99 295.13C448.096 297.283 448.643 299.68 448.58 302.1Z" fill="white"/>
</mask>
<g mask="url(#mask0_76_297)">
<path opacity="0.4" d="M446.95 295.13H380.7C379.605 295.131 378.524 295.37 377.53 295.83L366.64 300.89L352.64 298.07L362.7 293.87C365.106 292.857 367.69 292.334 370.3 292.33H443.16C444.61 292.33 445.96 293.4 446.95 295.13Z" fill="white"/>
<path opacity="0.5" d="M447.65 307.54C446.65 310.15 445.01 311.85 443.12 311.85H384.32C376.22 306.64 369.32 302.09 369.32 302.09L372.68 300.24C373.744 299.657 374.937 299.351 376.15 299.35H428.54C428.974 299.354 429.403 299.444 429.801 299.616C430.199 299.787 430.56 300.037 430.86 300.35L436.48 305.97C436.983 306.476 437.581 306.879 438.24 307.153C438.899 307.428 439.606 307.57 440.32 307.57L447.65 307.54Z" fill="black" fill-opacity="0.7"/>
</g>
<path d="M448.58 302.1C448.599 303.955 448.284 305.797 447.65 307.54C446.65 310.15 445.01 311.85 443.12 311.85H354.22L351.64 298.48L352.64 298.07L362.7 293.87C365.106 292.857 367.69 292.334 370.3 292.33H443.16C444.65 292.33 446 293.4 446.99 295.13C448.096 297.283 448.643 299.68 448.58 302.1Z" stroke="#263238" stroke-linecap="round" stroke-linejoin="round"/>
<path d="M435.36 292.33C438.36 292.33 440.83 296.7 440.83 302.1C440.83 307.5 438.38 311.86 435.36 311.86" stroke="#263238" stroke-linecap="round" stroke-linejoin="round"/>
<path d="M363.73 296.87H324.94V351.47H363.73C371.8 351.47 378.35 339.25 378.35 324.17C378.35 309.09 371.8 296.87 363.73 296.87Z" fill="#F2B77D"/>
<mask id="mask1_76_297" style="mask-type:luminance" maskUnits="userSpaceOnUse" x="324" y="296" width="55" height="56">
<path d="M363.73 296.87H324.94V351.47H363.73C371.8 351.47 378.35 339.25 378.35 324.17C378.35 309.09 371.8 296.87 363.73 296.87Z" fill="white"/>
</mask>
<g mask="url(#mask1_76_297)">
<path opacity="0.3" d="M363.73 296.87H324.94V351.47H363.73C371.8 351.47 378.35 339.25 378.35 324.17C378.35 309.09 371.8 296.87 363.73 296.87Z" fill="black" fill-opacity="0.7"/>
</g>
<path d="M363.73 296.87H324.94V351.47H363.73C371.8 351.47 378.35 339.25 378.35 324.17C378.35 309.09 371.8 296.87 363.73 296.87Z" stroke="#263238" stroke-linecap="round" stroke-linejoin="round"/>
<path d="M324.94 351.47C333.015 351.47 339.56 339.248 339.56 324.17C339.56 309.093 333.015 296.87 324.94 296.87C316.866 296.87 310.32 309.093 310.32 324.17C310.32 339.248 316.866 351.47 324.94 351.47Z" fill="#F2B77D" stroke="#263238" stroke-linecap="round" stroke-linejoin="round"/>
<path d="M322.51 349.8C330.093 349.8 336.24 338.325 336.24 324.17C336.24 310.015 330.093 298.54 322.51 298.54C314.927 298.54 308.78 310.015 308.78 324.17C308.78 338.325 314.927 349.8 322.51 349.8Z" fill="#F2B77D"/>
<mask id="mask2_76_297" style="mask-type:luminance" maskUnits="userSpaceOnUse" x="308" y="298" width="29" height="52">
<path d="M322.51 349.8C330.093 349.8 336.24 338.325 336.24 324.17C336.24 310.015 330.093 298.54 322.51 298.54C314.927 298.54 308.78 310.015 308.78 324.17C308.78 338.325 314.927 349.8 322.51 349.8Z" fill="white"/>
</mask>
<g mask="url(#mask2_76_297)">
<path opacity="0.3" d="M322.51 349.8C330.093 349.8 336.24 338.325 336.24 324.17C336.24 310.015 330.093 298.54 322.51 298.54C314.927 298.54 308.78 310.015 308.78 324.17C308.78 338.325 314.927 349.8 322.51 349.8Z" fill="black" fill-opacity="0.7"/>
</g>
<path d="M322.51 349.8C330.093 349.8 336.24 338.325 336.24 324.17C336.24 310.015 330.093 298.54 322.51 298.54C314.927 298.54 308.78 310.015 308.78 324.17C308.78 338.325 314.927 349.8 322.51 349.8Z" stroke="#263238" stroke-linecap="round" stroke-linejoin="round"/>
<path d="M319.67 348.23C326.165 348.23 331.43 337.458 331.43 324.17C331.43 310.882 326.165 300.11 319.67 300.11C313.175 300.11 307.91 310.882 307.91 324.17C307.91 337.458 313.175 348.23 319.67 348.23Z" fill="#F2B77D"/>
<mask id="mask3_76_297" style="mask-type:luminance" maskUnits="userSpaceOnUse" x="307" y="300" width="25" height="49">
<path d="M319.67 348.23C326.165 348.23 331.43 337.458 331.43 324.17C331.43 310.882 326.165 300.11 319.67 300.11C313.175 300.11 307.91 310.882 307.91 324.17C307.91 337.458 313.175 348.23 319.67 348.23Z" fill="white"/>
</mask>
<g mask="url(#mask3_76_297)">
<path opacity="0.4" d="M319.67 348.23C326.165 348.23 331.43 337.458 331.43 324.17C331.43 310.882 326.165 300.11 319.67 300.11C313.175 300.11 307.91 310.882 307.91 324.17C307.91 337.458 313.175 348.23 319.67 348.23Z" fill="white"/>
</g>
<path d="M319.67 348.23C326.165 348.23 331.43 337.458 331.43 324.17C331.43 310.882 326.165 300.11 319.67 300.11C313.175 300.11 307.91 310.882 307.91 324.17C307.91 337.458 313.175 348.23 319.67 348.23Z" stroke="#263238" stroke-linecap="round" stroke-linejoin="round"/>
<path d="M329.45 324.17C329.463 327.535 329.091 330.89 328.34 334.17C326.99 339.89 324.52 344.11 321.59 345.41C320.988 345.687 320.334 345.834 319.67 345.84C314.26 345.84 309.88 336.12 309.88 324.13C309.88 312.14 314.26 302.42 319.67 302.42C320.334 302.426 320.988 302.573 321.59 302.85C324.52 304.15 326.99 308.38 328.34 314.1C329.097 317.403 329.469 320.782 329.45 324.17Z" fill="#263238" stroke="#263238" stroke-linecap="round" stroke-linejoin="round"/>
<path d="M329.45 324.18C329.45 334.7 326.07 343.47 321.59 345.45C317.11 343.45 313.72 334.7 313.72 324.18C313.72 313.66 317.11 304.87 321.59 302.89C326.07 304.87 329.45 313.7 329.45 324.18Z" fill="#757575" stroke="#263238" stroke-linecap="round" stroke-linejoin="round"/>
<path d="M325.42 334.21H319.6C318.949 334.21 318.325 333.952 317.864 333.493C317.403 333.034 317.143 332.41 317.14 331.76V316.59C317.14 316.267 317.204 315.948 317.328 315.65C317.451 315.352 317.633 315.081 317.861 314.854C318.09 314.626 318.361 314.446 318.659 314.323C318.958 314.201 319.278 314.138 319.6 314.14H325.42C325.098 314.138 324.778 314.201 324.479 314.323C324.181 314.446 323.91 314.626 323.681 314.854C323.453 315.081 323.271 315.352 323.148 315.65C323.024 315.948 322.96 316.267 322.96 316.59V331.76C322.963 332.41 323.223 333.034 323.684 333.493C324.145 333.952 324.769 334.21 325.42 334.21Z" fill="#263238" stroke="#263238" stroke-linecap="round" stroke-linejoin="round"/>
<path d="M325.42 314.14H328.34" stroke="#263238" stroke-linecap="round" stroke-linejoin="round"/>
<path d="M325.42 334.21H328.34" stroke="#263238" stroke-linecap="round" stroke-linejoin="round"/>
<path d="M431.19 304.93V360.42C431.19 363.319 430.039 366.099 427.989 368.149C425.939 370.199 423.159 371.35 420.26 371.35H344.57C341.671 371.35 338.89 370.199 336.838 368.149C334.787 366.1 333.633 363.32 333.63 360.42V351.42H338.51C346.59 351.42 353.13 339.21 353.13 324.13C353.13 314.79 350.62 306.54 346.79 301.62H427.93C428.363 301.62 428.791 301.706 429.19 301.873C429.588 302.04 429.95 302.285 430.253 302.593C430.557 302.901 430.796 303.266 430.957 303.667C431.118 304.069 431.197 304.498 431.19 304.93Z" fill="#F2B77D"/>
<mask id="mask4_76_297" style="mask-type:luminance" maskUnits="userSpaceOnUse" x="333" y="301" width="99" height="71">
<path d="M431.19 304.93V360.42C431.19 363.319 430.039 366.099 427.989 368.149C425.939 370.199 423.159 371.35 420.26 371.35H344.57C341.671 371.35 338.89 370.199 336.838 368.149C334.787 366.1 333.633 363.32 333.63 360.42V351.42H338.51C346.59 351.42 353.13 339.21 353.13 324.13C353.13 314.79 350.62 306.54 346.79 301.62H427.93C428.363 301.62 428.791 301.706 429.19 301.873C429.588 302.04 429.95 302.285 430.253 302.593C430.557 302.901 430.796 303.266 430.957 303.667C431.118 304.069 431.197 304.498 431.19 304.93Z" fill="white"/>
</mask>
<g mask="url(#mask4_76_297)">
<path opacity="0.5" d="M353.13 324.18V341.45C353.133 345.731 352.03 349.941 349.927 353.671C347.825 357.401 344.795 360.525 341.13 362.74L335.32 366.25C334.213 364.507 333.627 362.484 333.63 360.42V351.42H338.51C346.59 351.47 353.13 339.26 353.13 324.18Z" fill="black" fill-opacity="0.7"/>
<path opacity="0.3" d="M431.19 304.93V360.42C431.19 363.319 430.039 366.099 427.989 368.149C425.939 370.198 423.159 371.35 420.26 371.35H344.57C342.139 371.358 339.775 370.548 337.86 369.05H350.25C352.637 369.05 354.926 368.102 356.614 366.414C358.302 364.726 359.25 362.437 359.25 360.05V307.62C359.252 307.124 359.155 306.633 358.966 306.174C358.777 305.716 358.5 305.299 358.15 304.948C357.799 304.597 357.383 304.318 356.925 304.128C356.467 303.938 355.976 303.84 355.48 303.84H348.31C347.862 303.087 347.368 302.362 346.83 301.67H427.97C428.828 301.68 429.647 302.029 430.25 302.639C430.852 303.249 431.19 304.072 431.19 304.93Z" fill="black" fill-opacity="0.7"/>
</g>
<path d="M431.19 304.93V360.42C431.19 363.319 430.039 366.099 427.989 368.149C425.939 370.199 423.159 371.35 420.26 371.35H344.57C341.671 371.35 338.89 370.199 336.838 368.149C334.787 366.1 333.633 363.32 333.63 360.42V351.42H338.51C346.59 351.42 353.13 339.21 353.13 324.13C353.13 314.79 350.62 306.54 346.79 301.62H427.93C428.363 301.62 428.791 301.706 429.19 301.873C429.588 302.04 429.95 302.285 430.253 302.593C430.557 302.901 430.796 303.266 430.957 303.667C431.118 304.069 431.197 304.498 431.19 304.93Z" stroke="#263238" stroke-linecap="round" stroke-linejoin="round"/>
<path d="M440.99 332.43C440.988 341.048 439.405 349.593 436.32 357.64C436.115 358.158 435.809 358.631 435.42 359.03C435.234 359.209 435.033 359.373 434.82 359.52C434.148 359.989 433.349 360.24 432.53 360.24H368.51C367.754 360.241 367.005 360.094 366.307 359.805C365.608 359.517 364.973 359.094 364.438 358.56C363.903 358.025 363.478 357.391 363.189 356.693C362.899 355.995 362.75 355.246 362.75 354.49V310.37C362.753 308.844 363.361 307.382 364.441 306.304C365.521 305.226 366.984 304.62 368.51 304.62H432.51C433.048 304.62 433.581 304.727 434.077 304.934C434.573 305.142 435.023 305.447 435.4 305.83C435.791 306.231 436.097 306.708 436.3 307.23C439.393 315.272 440.983 323.814 440.99 332.43Z" fill="#F2B77D"/>
<mask id="mask5_76_297" style="mask-type:luminance" maskUnits="userSpaceOnUse" x="362" y="304" width="79" height="57">
<path d="M440.99 332.43C440.988 341.048 439.405 349.593 436.32 357.64C436.115 358.158 435.809 358.631 435.42 359.03C435.234 359.209 435.033 359.373 434.82 359.52C434.148 359.989 433.349 360.24 432.53 360.24H368.51C367.754 360.241 367.005 360.094 366.307 359.805C365.608 359.517 364.973 359.094 364.438 358.56C363.903 358.025 363.478 357.391 363.189 356.693C362.899 355.995 362.75 355.246 362.75 354.49V310.37C362.753 308.844 363.361 307.382 364.441 306.304C365.521 305.226 366.984 304.62 368.51 304.62H432.51C433.048 304.62 433.581 304.727 434.077 304.934C434.573 305.142 435.023 305.447 435.4 305.83C435.791 306.231 436.097 306.708 436.3 307.23C439.393 315.272 440.983 323.814 440.99 332.43Z" fill="white"/>
</mask>
<g mask="url(#mask5_76_297)">
<path opacity="0.4" d="M440.99 332.43C440.987 341.048 439.404 349.593 436.32 357.64C436.115 358.159 435.809 358.631 435.42 359.03H374.51C372.918 359.03 371.392 358.398 370.267 357.273C369.142 356.148 368.51 354.622 368.51 353.03V311.82C368.51 310.229 369.142 308.703 370.267 307.578C371.392 306.452 372.918 305.82 374.51 305.82H435.38C435.771 306.222 436.077 306.698 436.28 307.22C439.381 315.264 440.977 323.809 440.99 332.43Z" fill="white"/>
</g>
<path d="M440.99 332.43C440.988 341.048 439.405 349.593 436.32 357.64C436.115 358.158 435.809 358.631 435.42 359.03C435.234 359.209 435.033 359.373 434.82 359.52C434.148 359.989 433.349 360.24 432.53 360.24H368.51C367.754 360.241 367.005 360.094 366.307 359.805C365.608 359.517 364.973 359.094 364.438 358.56C363.903 358.025 363.478 357.391 363.189 356.693C362.899 355.995 362.75 355.246 362.75 354.49V310.37C362.753 308.844 363.361 307.382 364.441 306.304C365.521 305.226 366.984 304.62 368.51 304.62H432.51C433.048 304.62 433.581 304.727 434.077 304.934C434.573 305.142 435.023 305.447 435.4 305.83C435.791 306.231 436.097 306.708 436.3 307.23C439.393 315.272 440.983 323.814 440.99 332.43Z" stroke="#263238" stroke-linecap="round" stroke-linejoin="round"/>
<path d="M384.51 305.83H374.36C372.851 305.83 371.404 306.43 370.336 307.497C369.269 308.564 368.67 310.011 368.67 311.52V353.34C368.67 354.849 369.269 356.296 370.336 357.364C371.404 358.431 372.851 359.03 374.36 359.03H384.51" stroke="#263238" stroke-linecap="round" stroke-linejoin="round"/>
<path d="M376.15 324.59H362.52C361.443 324.59 360.57 325.463 360.57 326.54V338.17C360.57 339.247 361.443 340.12 362.52 340.12H376.15C377.227 340.12 378.1 339.247 378.1 338.17V326.54C378.1 325.463 377.227 324.59 376.15 324.59Z" fill="#757575" stroke="#263238" stroke-linecap="round" stroke-linejoin="round"/>
<path opacity="0.4" d="M375.85 326.16H369.85C369.503 326.16 369.169 326.298 368.924 326.544C368.678 326.79 368.54 327.123 368.54 327.47V337.25C368.54 337.598 368.678 337.931 368.924 338.177C369.169 338.422 369.503 338.56 369.85 338.56H375.85C376.031 338.562 376.21 338.527 376.377 338.459C376.545 338.391 376.697 338.29 376.825 338.162C376.954 338.035 377.055 337.884 377.125 337.717C377.194 337.55 377.23 337.371 377.23 337.19V327.53C377.23 327.349 377.194 327.17 377.125 327.004C377.055 326.837 376.954 326.685 376.825 326.558C376.697 326.431 376.545 326.33 376.377 326.262C376.21 326.193 376.031 326.159 375.85 326.16Z" fill="white"/>
<path d="M374.32 326.16H369.87C369.523 326.16 369.189 326.298 368.944 326.544C368.698 326.79 368.56 327.123 368.56 327.47V337.25C368.56 337.598 368.698 337.931 368.944 338.176C369.189 338.422 369.523 338.56 369.87 338.56H374.32" stroke="#263238" stroke-linecap="round" stroke-linejoin="round"/>
<path d="M418.73 318.35L421.64 309.99H423.85L424.63 318.35H425.63L425.79 320.12H424.79L425 322.37H423L422.8 320.12H418.93L418.73 318.35ZM422.6 318.35L422.18 313.78L420.63 318.35H422.6Z" fill="#263238"/>
<path d="M429.08 317.44L428.56 318.57L428.91 322.37H426.91L425.76 309.99H427.76L428.26 315.35L430.38 309.99H432.38L430.07 315.51L433.53 322.37H431.51L429.08 317.44Z" fill="#263238"/>
<path d="M346.81 369.05H350.26C352.638 369.037 354.915 368.083 356.592 366.396C358.269 364.71 359.21 362.428 359.21 360.05V307.61C359.21 306.61 358.813 305.651 358.106 304.944C357.399 304.237 356.44 303.84 355.44 303.84H353.01" stroke="#263238" stroke-linecap="round" stroke-linejoin="round"/>
<path opacity="0.2" d="M436.58 318.79H372.26V312.79C372.26 311.872 372.625 310.992 373.274 310.343C373.923 309.695 374.803 309.33 375.72 309.33H432.61C433.15 309.33 433.676 309.498 434.117 309.809C434.557 310.121 434.89 310.561 435.07 311.07C435.99 313.544 436.5 316.152 436.58 318.79Z" fill="white"/>
<path opacity="0.2" d="M332.88 298.54H364.98L367.66 300.12H334.42L332.88 298.54Z" fill="white"/>
</g>
<defs>
<clipPath id="clip0_76_297">
<rect width="453.02" height="371.85" fill="white"/>
</clipPath>
</defs>
</svg>
