<svg xmlns="http://www.w3.org/2000/svg" width="454" height="372" fill="none"><g clip-path="url(#a)"><path fill="#F2B77D" d="M403.01 327.7H64.61s-75.1-40.37-46.05-169.56c15-66.75 90.47-130 184-148.66l2.12-.42c28-5.38 53.37-7 75.89-5.73 53.36 3 90.94 22 111.55 45 29.31 32.75-20.34 103.46 1.51 139.78 21.85 36.32 89.48 89.76 9.38 139.59Z"/><path fill="#fff" d="M403.01 327.7H64.61s-75.1-40.37-46.05-169.56c15-66.75 90.47-130 184-148.66l2.12-.42c28-5.38 53.37-7 75.89-5.73 53.36 3 90.94 22 111.55 45 29.31 32.75-20.34 103.46 1.51 139.78 21.85 36.32 89.48 89.76 9.38 139.59Z" opacity=".7"/><path stroke="#263238" stroke-linecap="round" stroke-linejoin="round" d="M132.51 97.52a58.302 58.302 0 0 1-.9 9.84M130.33 112.85a57.997 57.997 0 0 1-56.069 42.245 58.005 58.005 0 0 1-24.33-5.465M44.87 146.949c-1.5-.9-2.96-1.86-4.38-2.88M37.21 141.51c-1.22-1-2.39-2.1-3.53-3.22M26.44 129.56a58.004 58.004 0 0 1 4.477-70.711 58 58 0 0 1 20.343-14.88M59.12 41.19c1.37-.37 2.76-.7 4.17-1a57.75 57.75 0 0 1 30.31 2.13M99.71 44.88a58 58 0 0 1 29.31 32.43M129.7 79.32c.41 1.25.77 2.52 1.09 3.81M85.24 44.63a52.774 52.774 0 0 1 8.75 2.58"/><path stroke="#263238" stroke-linecap="round" stroke-linejoin="round" d="M98.73 49.34a53.51 53.51 0 0 1 27.836 35.295 53.51 53.51 0 0 1-8.886 44.064M114.35 132.8a50.583 50.583 0 0 1-3.39 3.46M108.06 138.77c-1.14.92-2.33 1.8-3.55 2.62M95.32 146.39a53.562 53.562 0 0 1-73.08-37.76M21.13 101.02c-.09-1.3-.14-2.62-.14-3.95a53.2 53.2 0 0 1 7.34-27.06M31.72 64.93a53.42 53.42 0 0 1 34.59-20.75M68.25 43.92c1.21-.14 2.43-.24 3.65-.3M82.4 91.47a9.72 9.72 0 1 1-2-2.09"/><path stroke="#263238" stroke-linecap="round" stroke-linejoin="round" d="M73.2 93.16a4.001 4.001 0 0 1 1.31-.21 4.12 4.12 0 1 1-4.12 4.12v-.27M69.81 119.7c1.5-.576 3.093-.871 4.7-.87h.58M79.38 119.76a13.002 13.002 0 0 1 8.076 13.058 12.998 12.998 0 0 1-18.05 10.951 12.996 12.996 0 0 1-7.852-13.195 12.998 12.998 0 0 1 3.226-7.404M97.58 125.22a13.002 13.002 0 0 1 7.502-23.906 12.998 12.998 0 0 1 5.878 24.356M106.94 127.09a12.68 12.68 0 0 1-4.24.06M51.17 103.109a13.05 13.05 0 0 1 6.113 7.892 13.045 13.045 0 0 1-9.15 16.016 13.037 13.037 0 0 1-9.903-1.258M32.85 120.379a13.059 13.059 0 0 1 13.8-18.99M93.32 86.39a13 13 0 0 1 2.54-16.14M98.84 68.2a13.049 13.049 0 1 1 .26 23.52M52.31 90.26a13.07 13.07 0 0 1-14.21 1.09M35.43 89.41a13 13 0 1 1 20.31-3.09M67.99 50.96a13.071 13.071 0 0 1 6.52-1.74c.458.001.915.028 1.37.08M80.25 50.55a13 13 0 1 1-16.06 3.73M343.81 36.23c1.24-1.69 2-2.77 2-2.77l31.9 23.31-17.9 24.51-12-8.75M343.01 68.99l-15.08-11 5.09-7M334.77 48.6l6.57-9M325.28 100.42l-18.49-13.51s.9-1.22 2.28-3.12M312.82 78.7l11.87-16.26 22 16.09M350.41 81.19l6.19 4.51-17.9 24.509-5.61-4.09M330.68 121.19l-13.12 18-31.9-23.3 5.24-7.18M293.39 105.26l10.17-13.92 24.17 17.65M330.73 111.189l4.73 3.45-2.46 3.37M292.96 127.97l21.37 15.61-3.39 4.63M310.17 149.27l-3.38 4.63M302.99 159.099l-6.56 9-31.92-23.31 17.91-24.51 5.9 4.31M271.21 156.46l22 16.05-17.9 24.51-31.92-23.32s1.71-2.33 4.06-5.56M250.88 163.47l10.41-14.26 4.8 3.51M243.65 218.279l-21.39-15.58 17.9-24.51 6.62 4.84M250.87 185.979l21.19 15.47-17.9 24.511-6.07-4.431M233.36 217.56l4.89 3.57M241.87 223.77l9.06 6.62-17.91 24.51-31.9-23.3 17.9-24.51 10.49 7.61M192.21 243.8l5.68-7.78 31.9 23.3-17.9 24.52-31.9-23.31 5.93-8.12"/><path stroke="#263238" stroke-linecap="round" stroke-linejoin="round" d="M187.19 250.7c1-1.37 2-2.77 3-4.15M374.51 10.06l3.81 2.78M380.03 14.07l18.84 13.76-8.53 11.67M386.71 44.47l-5.75 7.87-24.67-18M352.51 31.59l-3.49-2.55 14.99-20.47M365.11 7.06l1.85-2.53 4 2.91M204.75 285.399l3.91 2.86-17.9 24.51-18.79-13.72M170.51 297.969l-3.1-2.27M162.94 292.459l-4.09-3 17.9-24.51 23.31 17M402.88 30.76l1.5 1.1-1.87 2.55-2.55-1.86 1.86-2.56.35.26M400.832 36.712l-2.552-1.863-1.863 2.552 2.552 1.863 1.863-2.552ZM397.275 41.585l-2.552-1.863-1.863 2.552 2.551 1.863 1.864-2.552ZM393.722 46.447l-2.552-1.864-1.864 2.552 2.552 1.864 1.864-2.552ZM390.165 51.31l-2.552-1.864-1.864 2.552 2.552 1.864 1.864-2.552ZM386.616 56.19l-2.552-1.864-1.864 2.552 2.552 1.864 1.864-2.552ZM383.059 61.053l-2.552-1.863-1.864 2.551 2.552 1.864 1.864-2.552ZM379.5 65.932l-2.552-1.864-1.864 2.552 2.552 1.864 1.864-2.552ZM375.943 70.795l-2.552-1.863-1.864 2.552 2.552 1.863 1.864-2.552ZM372.385 75.659l-2.552-1.864-1.863 2.552 2.552 1.864 1.863-2.552ZM368.826 80.538l-2.552-1.863-1.863 2.552 2.552 1.863 1.863-2.552ZM365.275 85.393l-2.552-1.864-1.864 2.552 2.552 1.864 1.864-2.552ZM361.726 90.273l-2.552-1.864-1.863 2.552 2.552 1.864 1.863-2.552ZM358.169 95.136l-2.552-1.864-1.863 2.552 2.552 1.864 1.863-2.552ZM354.612 100l-2.552-1.864-1.864 2.552 2.552 1.863 1.864-2.552ZM351.063 104.878l-2.552-1.863-1.863 2.552 2.552 1.863 1.863-2.552ZM347.496 109.742l-2.552-1.864-1.864 2.552 2.552 1.864 1.864-2.552ZM343.947 114.612l-2.552-1.864-1.864 2.552 2.552 1.864 1.864-2.552ZM340.39 119.485l-2.552-1.864-1.864 2.552 2.552 1.864 1.864-2.552ZM336.833 124.348l-2.552-1.864-1.864 2.552 2.552 1.864 1.864-2.552ZM333.279 129.219l-2.551-1.864-1.864 2.552 2.552 1.864 1.863-2.552ZM329.712 134.082l-2.552-1.863-1.863 2.552 2.551 1.863 1.864-2.552Z"/><path stroke="#263238" stroke-linecap="round" stroke-linejoin="round" stroke-width="1.002" d="m326.96 139.529-2.559-1.864-1.865 2.56 2.56 1.864 1.864-2.56Z"/><path stroke="#263238" stroke-linecap="round" stroke-linejoin="round" d="m322.606 143.826-2.552-1.864-1.863 2.552 2.552 1.864 1.863-2.552Z"/><path stroke="#263238" stroke-linecap="round" stroke-linejoin="round" stroke-width="1.002" d="m319.817 149.288-2.56-1.864-1.864 2.559 2.56 1.865 1.864-2.56Z"/><path stroke="#263238" stroke-linecap="round" stroke-linejoin="round" d="m315.49 153.568-2.552-1.864-1.864 2.552 2.552 1.864 1.864-2.552ZM311.933 158.441l-2.552-1.864-1.864 2.552 2.552 1.864 1.864-2.552ZM308.384 163.31l-2.552-1.864-1.864 2.552 2.552 1.864 1.864-2.552ZM304.822 168.165l-2.551-1.863-1.864 2.552 2.552 1.863 1.863-2.552ZM301.274 173.045l-2.552-1.863-1.864 2.552 2.552 1.863 1.864-2.552ZM297.717 177.909l-2.552-1.864-1.864 2.552 2.552 1.864 1.864-2.552ZM294.159 182.782l-2.552-1.864-1.863 2.552 2.552 1.864 1.863-2.552ZM290.6 187.651l-2.552-1.864-1.863 2.552 2.552 1.864 1.863-2.552ZM287.053 192.514l-2.552-1.864-1.863 2.552 2.552 1.864 1.863-2.552ZM283.494 197.394l-2.552-1.864-1.863 2.552 2.552 1.864 1.863-2.552ZM279.937 202.257l-2.552-1.863-1.863 2.552 2.552 1.863 1.863-2.552ZM276.386 207.122l-2.552-1.863-1.864 2.552 2.552 1.863 1.864-2.552ZM272.837 211.992l-2.552-1.864-1.863 2.552 2.551 1.864 1.864-2.552ZM269.27 216.865l-2.552-1.864-1.864 2.552 2.552 1.864 1.864-2.552ZM265.711 221.734l-2.552-1.864-1.864 2.552 2.552 1.864 1.864-2.552ZM262.154 226.597l-2.552-1.864-1.864 2.552 2.552 1.864 1.864-2.552ZM258.596 231.471l-2.552-1.864-1.863 2.552 2.552 1.864 1.863-2.552ZM255.048 236.34l-2.552-1.863-1.864 2.552 2.552 1.863 1.864-2.552ZM251.48 241.213l-2.552-1.863-1.863 2.552 2.552 1.863 1.863-2.552ZM247.937 246.075l-2.552-1.864-1.863 2.552 2.552 1.864 1.863-2.552ZM244.38 250.948l-2.552-1.864-1.864 2.552 2.552 1.864 1.864-2.552ZM240.821 255.817l-2.552-1.864-1.864 2.552 2.552 1.864 1.864-2.552ZM237.264 260.68l-2.552-1.864-1.864 2.552 2.552 1.864 1.864-2.552ZM233.707 265.554l-2.552-1.864-1.864 2.552 2.552 1.864 1.864-2.552ZM230.158 270.423l-2.552-1.863-1.864 2.552 2.552 1.863 1.864-2.552ZM226.591 275.296l-2.552-1.863-1.864 2.552 2.552 1.863 1.864-2.552ZM223.051 280.165l-2.551-1.863-1.864 2.552 2.552 1.863 1.863-2.552ZM219.501 285.021l-2.552-1.864-1.864 2.552 2.552 1.864 1.864-2.552ZM215.933 289.895l-2.552-1.864-1.863 2.552 2.552 1.864 1.863-2.552ZM212.384 294.764l-2.551-1.864-1.864 2.552 2.552 1.864 1.863-2.552ZM208.827 299.637l-2.552-1.864-1.863 2.552 2.552 1.864 1.863-2.552ZM205.268 304.506l-2.552-1.863-1.863 2.552 2.552 1.863 1.863-2.552ZM201.701 309.379l-2.552-1.863-1.864 2.552 2.552 1.863 1.864-2.552ZM197.43 315.22l-1.16 1.58-2.55-1.87 1.86-2.55 2.56 1.86-.57.78M364.011 2.349 361.459.485l-1.863 2.552 2.552 1.864 1.863-2.552ZM360.454 7.222l-2.552-1.864-1.863 2.552 2.552 1.864 1.863-2.552ZM356.905 12.091l-2.551-1.864-1.864 2.553 2.552 1.863 1.863-2.552ZM353.348 16.955l-2.552-1.863-1.863 2.552 2.552 1.863 1.863-2.552ZM349.795 21.826l-2.552-1.863-1.863 2.552 2.551 1.863 1.864-2.552ZM346.238 26.69l-2.552-1.864-1.864 2.552 2.552 1.864 1.864-2.552ZM342.671 31.563l-2.552-1.864-1.864 2.552 2.552 1.864 1.864-2.552ZM339.122 36.442l-2.552-1.864-1.864 2.552 2.552 1.864 1.864-2.552ZM335.565 41.305l-2.552-1.864-1.864 2.552 2.552 1.864 1.864-2.552ZM332.006 46.175l-2.552-1.863-1.864 2.552 2.552 1.863 1.864-2.552ZM328.448 51.048l-2.552-1.863-1.863 2.551 2.552 1.864 1.863-2.552ZM324.891 55.911l-2.552-1.863-1.863 2.552 2.552 1.863 1.863-2.552ZM321.348 60.783l-2.552-1.864-1.863 2.552 2.552 1.864 1.863-2.552ZM317.781 65.646l-2.552-1.864-1.864 2.552 2.552 1.864 1.864-2.552ZM314.232 70.515l-2.552-1.864-1.863 2.552 2.551 1.864 1.864-2.552ZM310.675 75.389l-2.552-1.864-1.864 2.552 2.552 1.864 1.864-2.552ZM307.108 80.252l-2.552-1.863-1.863 2.552 2.551 1.863 1.864-2.552ZM303.559 85.131l-2.552-1.863-1.864 2.552 2.552 1.863 1.864-2.552Z"/><path stroke="#263238" stroke-linecap="round" stroke-linejoin="round" stroke-width="1.002" d="m300.747 90.438-2.559-1.865-1.865 2.56 2.56 1.864 1.864-2.56Z"/><path stroke="#263238" stroke-linecap="round" stroke-linejoin="round" d="M296.453 94.864 293.901 93l-1.864 2.552 2.552 1.864 1.864-2.552ZM292.902 99.729l-2.552-1.864-1.864 2.552 2.552 1.864 1.864-2.552ZM289.352 104.598l-2.552-1.864-1.863 2.552 2.552 1.864 1.863-2.552ZM285.785 109.472l-2.552-1.864-1.863 2.552 2.552 1.864 1.863-2.552ZM282.228 114.335l-2.552-1.863-1.863 2.552 2.552 1.863 1.863-2.552ZM278.669 119.214l-2.552-1.863-1.863 2.552 2.551 1.863 1.864-2.552ZM275.112 124.078l-2.552-1.864-1.864 2.552 2.552 1.863 1.864-2.551ZM271.563 128.947l-2.552-1.864-1.863 2.552 2.552 1.864 1.863-2.552ZM267.996 133.821l-2.552-1.864-1.864 2.552 2.552 1.864 1.864-2.552ZM264.445 138.675l-2.552-1.863-1.864 2.551 2.552 1.864 1.864-2.552ZM260.896 143.555l-2.552-1.864-1.864 2.552 2.552 1.864 1.864-2.552ZM257.339 148.418l-2.552-1.863-1.864 2.552 2.552 1.863 1.864-2.552ZM253.779 153.297l-2.551-1.863-1.864 2.552 2.552 1.863 1.863-2.552ZM250.222 158.161l-2.552-1.864-1.863 2.552 2.552 1.863 1.863-2.551ZM246.665 163.024l-2.552-1.864-1.863 2.552 2.552 1.864 1.863-2.552ZM243.106 167.904l-2.552-1.864-1.863 2.552 2.552 1.864 1.863-2.552ZM239.549 172.767l-2.552-1.864-1.864 2.552 2.552 1.864 1.864-2.552ZM236.006 177.638l-2.552-1.864-1.864 2.552 2.552 1.864 1.864-2.552ZM232.449 182.501l-2.552-1.863-1.864 2.552 2.552 1.863 1.864-2.552ZM228.892 187.365l-2.552-1.864-1.864 2.552 2.552 1.864 1.864-2.552ZM225.343 192.244l-2.552-1.864-1.864 2.552 2.552 1.863 1.864-2.551ZM221.776 197.108l-2.552-1.864-1.864 2.552 2.552 1.864 1.864-2.552ZM218.227 201.987l-2.552-1.864-1.864 2.552 2.552 1.864 1.864-2.552ZM214.659 206.85l-2.552-1.864-1.863 2.552 2.552 1.864 1.863-2.552ZM211.111 211.729l-2.552-1.864-1.864 2.552 2.552 1.864 1.864-2.552ZM207.559 216.584l-2.552-1.863-1.863 2.552 2.552 1.863 1.863-2.552ZM203.992 221.448l-2.552-1.864-1.863 2.552 2.552 1.864 1.863-2.552ZM200.443 226.328l-2.552-1.864-1.864 2.552 2.552 1.863 1.864-2.551ZM196.886 231.191l-2.552-1.864-1.864 2.552 2.552 1.864 1.864-2.552ZM193.337 236.07l-2.552-1.864-1.863 2.552 2.551 1.864 1.864-2.552ZM189.77 240.933l-2.552-1.864-1.864 2.552 2.552 1.864 1.864-2.552ZM186.213 245.806l-2.552-1.864-1.864 2.552 2.552 1.864 1.864-2.552ZM182.664 250.676l-2.552-1.864-1.864 2.552 2.552 1.864 1.864-2.552ZM179.102 255.531l-2.552-1.864-1.863 2.552 2.552 1.864 1.863-2.552ZM175.553 260.411l-2.552-1.864-1.863 2.552 2.552 1.863 1.863-2.551ZM171.996 265.274l-2.552-1.864-1.863 2.552 2.552 1.864 1.863-2.552ZM168.439 270.147l-2.552-1.864-1.863 2.552 2.552 1.864 1.863-2.552ZM164.89 275.016l-2.552-1.864-1.863 2.552 2.552 1.864 1.863-2.552ZM161.333 279.89l-2.552-1.864-1.863 2.552 2.552 1.864 1.863-2.552ZM157.784 284.759l-2.552-1.863-1.864 2.551 2.552 1.864 1.864-2.552ZM216.01 49.55l-7.67-4.59v8.2M208.34 57.91v4.79M208.34 62.7v6.93l7.78-4.66M220 62.61l8.93-5.34-9.74-5.82M7.66 235.24v-4.27h4.85v5.06M12.51 239.7v12.91h-1.68M9.77 252.63H7.66v-8.16M7.66 240.78v-3.43M18.28 233.39v-2.42h4.84v4.53M23.12 240.78V245M23.12 247.11v5.52h-4.84v-17.39M419.41 224.55h3.56M426.85 224.55h6.74v21.28h-5.44M423.62 245.83H412.3v-9M412.3 234.53v-10h4.21M.5 327.7h452.02"/><path stroke="#263238" stroke-linecap="round" stroke-linejoin="round" stroke-width="2" d="M347.09 357.7c-29.95 0-29.95 11.67-178.75 11.67-93.92 0-129.1-4-125.84-12 .58-1.41 9.4-5.77.2-7.83-5.09-1.15-24.13-2.06-28.55-5.6-5.1-4.1 10-8.51 36.5-8.51"/><path fill="#263238" d="M387.01 102.53H66.02a3.46 3.46 0 0 0-3.46 3.46v216.52a3.46 3.46 0 0 0 3.46 3.46h320.99a3.46 3.46 0 0 0 3.46-3.46V105.99a3.46 3.46 0 0 0-3.46-3.46Z"/><path fill="#fff" stroke="#263238" stroke-linecap="round" stroke-linejoin="round" d="M386.41 112.33H66.62v198.71h319.79V112.33Z"/><path fill="#fff" d="M235.22 316.03H217.8a1.03 1.03 0 0 0-1.03 1.03v1.59c0 .569.461 1.03 1.03 1.03h17.42a1.03 1.03 0 0 0 1.03-1.03v-1.59a1.03 1.03 0 0 0-1.03-1.03ZM226.51 109.81a2.61 2.61 0 1 0 0-5.22 2.61 2.61 0 0 0 0 5.22Z"/><path stroke="#263238" stroke-linecap="round" stroke-linejoin="round" d="M282.1 282.9v10.43l7.72-5.21-7.72-5.22ZM290.26 282.9v10.43l7.72-5.21-7.72-5.22ZM222.5 293.33V282.9l-7.73 5.22 7.73 5.21ZM214.35 282.9v10.43M212.14 282.9v10.43M309.1 282.9v10.43l7.73-5.21-7.73-5.22ZM317.25 293.33V282.9M319.46 293.33V282.9M249.5 293.33V282.9l-7.72 5.22 7.72 5.21ZM241.34 293.33V282.9l-7.72 5.22 7.72 5.21ZM261.94 282.9v10.43l7.72-5.21-7.72-5.22Z"/><path fill="#F2B77D" d="M384.55 113.82H68.47v6.85h316.08v-6.85Z" opacity=".5"/><path stroke="#263238" stroke-linecap="round" stroke-linejoin="round" d="M68.47 120.67h316.08M74.28 117.08h10.24M95.71 117.08h9.21M116.86 117.08h8.97"/><path fill="#263238" d="M145.54 120.67h-4.73v188.84h4.73V120.67Z"/><path fill="#F2B77D" stroke="#263238" stroke-linecap="round" stroke-linejoin="round" d="M144.21 187.13h-2.07a1.33 1.33 0 0 0-1.33 1.33v10.41c0 .734.596 1.33 1.33 1.33h2.07a1.33 1.33 0 0 0 1.33-1.33v-10.41a1.33 1.33 0 0 0-1.33-1.33Z"/><path fill="#263238" d="M376.1 129.811H155.5v145.25h220.6v-145.25Z"/><path fill="#F2B77D" stroke="#263238" stroke-linecap="round" stroke-linejoin="round" d="M253.49 190.13v24.62l24.62-12.31-24.62-12.31Z"/><path fill="#000" d="M99.11 127.9H75.56v15.51h23.55V127.9Z" opacity=".5"/><path fill="#263238" d="M84.73 133.05v5.2l5.2-2.6-5.2-2.6Z"/><g fill="#000" opacity=".5"><path d="M74.94 127.9h-1.63v1.36h1.63v-1.36ZM74.94 130.261h-1.63v1.36h1.63v-1.36ZM74.94 132.62h-1.63v1.36h1.63v-1.36ZM74.94 134.971h-1.63v1.36h1.63v-1.36ZM74.94 137.33h-1.63v1.36h1.63v-1.36ZM74.94 139.69h-1.63v1.36h1.63v-1.36ZM74.94 142.051h-1.63v1.36h1.63v-1.36ZM101.35 127.9h-1.63v1.36h1.63v-1.36ZM101.35 130.261h-1.63v1.36h1.63v-1.36ZM101.35 132.62h-1.63v1.36h1.63v-1.36ZM101.35 134.971h-1.63v1.36h1.63v-1.36ZM101.35 137.33h-1.63v1.36h1.63v-1.36ZM101.35 139.69h-1.63v1.36h1.63v-1.36ZM101.35 142.051h-1.63v1.36h1.63v-1.36Z"/></g><path stroke="#263238" stroke-linecap="round" stroke-linejoin="round" d="M80.86 147.11H93.8"/><path fill="#000" d="M132.15 127.9H108.6v15.51h23.55V127.9Z" opacity=".5"/><path fill="#263238" d="M117.77 133.05v5.2l5.2-2.6-5.2-2.6Z"/><g fill="#000" opacity=".5"><path d="M107.98 127.9h-1.63v1.36h1.63v-1.36ZM107.98 130.261h-1.63v1.36h1.63v-1.36ZM107.98 132.62h-1.63v1.36h1.63v-1.36ZM107.98 134.971h-1.63v1.36h1.63v-1.36ZM107.98 137.33h-1.63v1.36h1.63v-1.36ZM107.98 139.69h-1.63v1.36h1.63v-1.36ZM107.98 142.051h-1.63v1.36h1.63v-1.36ZM134.39 127.9h-1.63v1.36h1.63v-1.36ZM134.39 130.261h-1.63v1.36h1.63v-1.36ZM134.39 132.62h-1.63v1.36h1.63v-1.36ZM134.39 134.971h-1.63v1.36h1.63v-1.36ZM134.39 137.33h-1.63v1.36h1.63v-1.36ZM134.39 139.69h-1.63v1.36h1.63v-1.36ZM134.39 142.051h-1.63v1.36h1.63v-1.36Z"/></g><path stroke="#263238" stroke-linecap="round" stroke-linejoin="round" d="M113.91 147.11h12.93"/><path fill="#000" d="M99.11 154.271H75.56v15.51h23.55v-15.51Z" opacity=".5"/><path fill="#263238" d="M84.73 159.42v5.2l5.2-2.6-5.2-2.6Z"/><g fill="#000" opacity=".5"><path d="M74.94 154.271h-1.63v1.36h1.63v-1.36ZM74.94 156.62h-1.63v1.36h1.63v-1.36ZM74.94 158.98h-1.63v1.36h1.63v-1.36ZM74.94 161.341h-1.63v1.36h1.63v-1.36ZM74.94 163.7h-1.63v1.36h1.63v-1.36ZM74.94 166.051h-1.63v1.36h1.63v-1.36ZM74.94 168.41h-1.63v1.36h1.63v-1.36ZM101.35 154.271h-1.63v1.36h1.63v-1.36ZM101.35 156.62h-1.63v1.36h1.63v-1.36ZM101.35 158.98h-1.63v1.36h1.63v-1.36ZM101.35 161.341h-1.63v1.36h1.63v-1.36ZM101.35 163.7h-1.63v1.36h1.63v-1.36ZM101.35 166.051h-1.63v1.36h1.63v-1.36ZM101.35 168.41h-1.63v1.36h1.63v-1.36Z"/></g><path stroke="#263238" stroke-linecap="round" stroke-linejoin="round" d="M80.86 173.471H93.8"/><path fill="#000" d="M132.15 154.271H108.6v15.51h23.55v-15.51Z" opacity=".5"/><path fill="#263238" d="M117.77 159.42v5.2l5.2-2.6-5.2-2.6Z"/><g fill="#000" opacity=".5"><path d="M107.98 154.271h-1.63v1.36h1.63v-1.36ZM107.98 156.62h-1.63v1.36h1.63v-1.36ZM107.98 158.98h-1.63v1.36h1.63v-1.36ZM107.98 161.341h-1.63v1.36h1.63v-1.36ZM107.98 163.7h-1.63v1.36h1.63v-1.36ZM107.98 166.051h-1.63v1.36h1.63v-1.36ZM107.98 168.41h-1.63v1.36h1.63v-1.36ZM134.39 154.271h-1.63v1.36h1.63v-1.36ZM134.39 156.62h-1.63v1.36h1.63v-1.36ZM134.39 158.98h-1.63v1.36h1.63v-1.36ZM134.39 161.341h-1.63v1.36h1.63v-1.36ZM134.39 163.7h-1.63v1.36h1.63v-1.36ZM134.39 166.051h-1.63v1.36h1.63v-1.36ZM134.39 168.41h-1.63v1.36h1.63v-1.36Z"/></g><path stroke="#263238" stroke-linecap="round" stroke-linejoin="round" d="M113.91 173.471h12.93"/><path fill="#000" d="M99.11 180.63H75.56v15.51h23.55v-15.51Z" opacity=".5"/><path fill="#263238" d="M84.73 185.78v5.21l5.2-2.6-5.2-2.61Z"/><g fill="#000" opacity=".5"><path d="M74.94 180.63h-1.63v1.36h1.63v-1.36ZM74.94 182.99h-1.63v1.36h1.63v-1.36ZM74.94 185.35h-1.63v1.36h1.63v-1.36ZM74.94 187.71h-1.63v1.36h1.63v-1.36ZM74.94 190.06h-1.63v1.36h1.63v-1.36ZM74.94 192.42h-1.63v1.36h1.63v-1.36ZM74.94 194.78h-1.63v1.36h1.63v-1.36ZM101.35 180.63h-1.63v1.36h1.63v-1.36ZM101.35 182.99h-1.63v1.36h1.63v-1.36ZM101.35 185.35h-1.63v1.36h1.63v-1.36ZM101.35 187.71h-1.63v1.36h1.63v-1.36ZM101.35 190.06h-1.63v1.36h1.63v-1.36ZM101.35 192.42h-1.63v1.36h1.63v-1.36ZM101.35 194.78h-1.63v1.36h1.63v-1.36Z"/></g><path stroke="#263238" stroke-linecap="round" stroke-linejoin="round" d="M80.86 199.84H93.8"/><path fill="#000" d="M132.15 180.63H108.6v15.51h23.55v-15.51Z" opacity=".5"/><path fill="#263238" d="M117.77 185.78v5.21l5.2-2.6-5.2-2.61Z"/><g fill="#000" opacity=".5"><path d="M107.98 180.63h-1.63v1.36h1.63v-1.36ZM107.98 182.99h-1.63v1.36h1.63v-1.36ZM107.98 185.35h-1.63v1.36h1.63v-1.36ZM107.98 187.71h-1.63v1.36h1.63v-1.36ZM107.98 190.06h-1.63v1.36h1.63v-1.36ZM107.98 192.42h-1.63v1.36h1.63v-1.36ZM107.98 194.78h-1.63v1.36h1.63v-1.36ZM134.39 180.63h-1.63v1.36h1.63v-1.36ZM134.39 182.99h-1.63v1.36h1.63v-1.36ZM134.39 185.35h-1.63v1.36h1.63v-1.36ZM134.39 187.71h-1.63v1.36h1.63v-1.36ZM134.39 190.06h-1.63v1.36h1.63v-1.36ZM134.39 192.42h-1.63v1.36h1.63v-1.36ZM134.39 194.78h-1.63v1.36h1.63v-1.36Z"/></g><path stroke="#263238" stroke-linecap="round" stroke-linejoin="round" d="M113.91 199.84h12.93"/><path fill="#000" d="M99.11 207H75.56v15.51h23.55V207Z" opacity=".5"/><path fill="#263238" d="M84.73 212.15v5.2l5.2-2.6-5.2-2.6Z"/><g fill="#000" opacity=".5"><path d="M74.94 207h-1.63v1.36h1.63V207ZM74.94 209.36h-1.63v1.36h1.63v-1.36ZM74.94 211.71h-1.63v1.36h1.63v-1.36ZM74.94 214.07h-1.63v1.36h1.63v-1.36ZM74.94 216.43h-1.63v1.36h1.63v-1.36ZM74.94 218.79h-1.63v1.36h1.63v-1.36ZM74.94 221.15h-1.63v1.36h1.63v-1.36ZM101.35 207h-1.63v1.36h1.63V207ZM101.35 209.36h-1.63v1.36h1.63v-1.36ZM101.35 211.71h-1.63v1.36h1.63v-1.36ZM101.35 214.07h-1.63v1.36h1.63v-1.36ZM101.35 216.43h-1.63v1.36h1.63v-1.36ZM101.35 218.79h-1.63v1.36h1.63v-1.36ZM101.35 221.15h-1.63v1.36h1.63v-1.36Z"/></g><path stroke="#263238" stroke-linecap="round" stroke-linejoin="round" d="M80.86 226.21H93.8"/><path fill="#000" d="M132.15 207H108.6v15.51h23.55V207Z" opacity=".5"/><path fill="#263238" d="M117.77 212.15v5.2l5.2-2.6-5.2-2.6Z"/><g fill="#000" opacity=".5"><path d="M107.98 207h-1.63v1.36h1.63V207ZM107.98 209.36h-1.63v1.36h1.63v-1.36ZM107.98 211.71h-1.63v1.36h1.63v-1.36ZM107.98 214.07h-1.63v1.36h1.63v-1.36ZM107.98 216.43h-1.63v1.36h1.63v-1.36ZM107.98 218.79h-1.63v1.36h1.63v-1.36ZM107.98 221.15h-1.63v1.36h1.63v-1.36ZM134.39 207h-1.63v1.36h1.63V207ZM134.39 209.36h-1.63v1.36h1.63v-1.36ZM134.39 211.71h-1.63v1.36h1.63v-1.36ZM134.39 214.07h-1.63v1.36h1.63v-1.36ZM134.39 216.43h-1.63v1.36h1.63v-1.36ZM134.39 218.79h-1.63v1.36h1.63v-1.36ZM134.39 221.15h-1.63v1.36h1.63v-1.36Z"/></g><path stroke="#263238" stroke-linecap="round" stroke-linejoin="round" d="M113.91 226.21h12.93"/><path fill="#000" d="M99.11 233.37H75.56v15.51h23.55v-15.51Z" opacity=".5"/><path fill="#263238" d="M84.73 238.521v5.2l5.2-2.601-5.2-2.599Z"/><g fill="#000" opacity=".5"><path d="M74.94 233.37h-1.63v1.36h1.63v-1.36ZM74.94 235.72h-1.63v1.36h1.63v-1.36ZM74.94 238.08h-1.63v1.36h1.63v-1.36ZM74.94 240.44h-1.63v1.36h1.63v-1.36ZM74.94 242.8h-1.63v1.36h1.63v-1.36ZM74.94 245.15h-1.63v1.36h1.63v-1.36ZM74.94 247.51h-1.63v1.36h1.63v-1.36ZM101.35 233.37h-1.63v1.36h1.63v-1.36ZM101.35 235.72h-1.63v1.36h1.63v-1.36ZM101.35 238.08h-1.63v1.36h1.63v-1.36ZM101.35 240.44h-1.63v1.36h1.63v-1.36ZM101.35 242.8h-1.63v1.36h1.63v-1.36ZM101.35 245.15h-1.63v1.36h1.63v-1.36ZM101.35 247.51h-1.63v1.36h1.63v-1.36Z"/></g><path stroke="#263238" stroke-linecap="round" stroke-linejoin="round" d="M80.86 252.57H93.8"/><path fill="#000" d="M132.15 233.37H108.6v15.51h23.55v-15.51Z" opacity=".5"/><path fill="#263238" d="M117.77 238.521v5.2l5.2-2.601-5.2-2.599Z"/><g fill="#000" opacity=".5"><path d="M107.98 233.37h-1.63v1.36h1.63v-1.36ZM107.98 235.72h-1.63v1.36h1.63v-1.36ZM107.98 238.08h-1.63v1.36h1.63v-1.36ZM107.98 240.44h-1.63v1.36h1.63v-1.36ZM107.98 242.8h-1.63v1.36h1.63v-1.36ZM107.98 245.15h-1.63v1.36h1.63v-1.36ZM107.98 247.51h-1.63v1.36h1.63v-1.36ZM134.39 233.37h-1.63v1.36h1.63v-1.36ZM134.39 235.72h-1.63v1.36h1.63v-1.36ZM134.39 238.08h-1.63v1.36h1.63v-1.36ZM134.39 240.44h-1.63v1.36h1.63v-1.36ZM134.39 242.8h-1.63v1.36h1.63v-1.36ZM134.39 245.15h-1.63v1.36h1.63v-1.36ZM134.39 247.51h-1.63v1.36h1.63v-1.36Z"/></g><path stroke="#263238" stroke-linecap="round" stroke-linejoin="round" d="M113.91 252.57h12.93"/><path fill="#000" d="M99.11 259.73H75.56v15.51h23.55v-15.51Z" opacity=".5"/><path fill="#263238" d="M84.73 264.88v5.21l5.2-2.6-5.2-2.61Z"/><g fill="#000" opacity=".5"><path d="M74.94 259.73h-1.63v1.36h1.63v-1.36ZM74.94 262.091h-1.63v1.36h1.63v-1.36ZM74.94 264.45h-1.63v1.36h1.63v-1.36ZM74.94 266.811h-1.63v1.36h1.63v-1.36ZM74.94 269.16h-1.63v1.36h1.63v-1.36ZM74.94 271.521h-1.63v1.36h1.63v-1.36ZM74.94 273.881h-1.63v1.36h1.63v-1.36ZM101.35 259.73h-1.63v1.36h1.63v-1.36ZM101.35 262.091h-1.63v1.36h1.63v-1.36ZM101.35 264.45h-1.63v1.36h1.63v-1.36ZM101.35 266.811h-1.63v1.36h1.63v-1.36ZM101.35 269.16h-1.63v1.36h1.63v-1.36ZM101.35 271.521h-1.63v1.36h1.63v-1.36ZM101.35 273.881h-1.63v1.36h1.63v-1.36Z"/></g><path stroke="#263238" stroke-linecap="round" stroke-linejoin="round" d="M80.86 278.94H93.8"/><path fill="#000" d="M132.15 259.73H108.6v15.51h23.55v-15.51Z" opacity=".5"/><path fill="#263238" d="M117.77 264.88v5.21l5.2-2.6-5.2-2.61Z"/><g fill="#000" opacity=".5"><path d="M107.98 259.73h-1.63v1.36h1.63v-1.36ZM107.98 262.091h-1.63v1.36h1.63v-1.36ZM107.98 264.45h-1.63v1.36h1.63v-1.36ZM107.98 266.811h-1.63v1.36h1.63v-1.36ZM107.98 269.16h-1.63v1.36h1.63v-1.36ZM107.98 271.521h-1.63v1.36h1.63v-1.36ZM107.98 273.881h-1.63v1.36h1.63v-1.36ZM134.39 259.73h-1.63v1.36h1.63v-1.36ZM134.39 262.091h-1.63v1.36h1.63v-1.36ZM134.39 264.45h-1.63v1.36h1.63v-1.36ZM134.39 266.811h-1.63v1.36h1.63v-1.36ZM134.39 269.16h-1.63v1.36h1.63v-1.36ZM134.39 271.521h-1.63v1.36h1.63v-1.36ZM134.39 273.881h-1.63v1.36h1.63v-1.36Z"/></g><path stroke="#263238" stroke-linecap="round" stroke-linejoin="round" d="M113.91 278.94h12.93"/><path fill="#000" d="M99.11 286.101H75.56v15.51h23.55v-15.51Z" opacity=".5"/><path fill="#263238" d="M84.73 291.25v5.2l5.2-2.6-5.2-2.6Z"/><g fill="#000" opacity=".5"><path d="M74.94 286.101h-1.63v1.36h1.63v-1.36ZM74.94 288.461h-1.63v1.36h1.63v-1.36ZM74.94 290.811h-1.63v1.36h1.63v-1.36ZM74.94 293.171h-1.63v1.36h1.63v-1.36ZM74.94 295.53h-1.63v1.36h1.63v-1.36ZM74.94 297.891h-1.63v1.36h1.63v-1.36ZM74.94 300.251h-1.63v1.36h1.63v-1.36ZM101.35 286.101h-1.63v1.36h1.63v-1.36ZM101.35 288.461h-1.63v1.36h1.63v-1.36ZM101.35 290.811h-1.63v1.36h1.63v-1.36ZM101.35 293.171h-1.63v1.36h1.63v-1.36ZM101.35 295.53h-1.63v1.36h1.63v-1.36ZM101.35 297.891h-1.63v1.36h1.63v-1.36ZM101.35 300.251h-1.63v1.36h1.63v-1.36Z"/></g><path stroke="#263238" stroke-linecap="round" stroke-linejoin="round" d="M80.86 305.311H93.8"/><path fill="#000" d="M132.15 286.101H108.6v15.51h23.55v-15.51Z" opacity=".5"/><path fill="#263238" d="M117.77 291.25v5.2l5.2-2.6-5.2-2.6Z"/><g fill="#000" opacity=".5"><path d="M107.98 286.101h-1.63v1.36h1.63v-1.36ZM107.98 288.461h-1.63v1.36h1.63v-1.36ZM107.98 290.811h-1.63v1.36h1.63v-1.36ZM107.98 293.171h-1.63v1.36h1.63v-1.36ZM107.98 295.53h-1.63v1.36h1.63v-1.36ZM107.98 297.891h-1.63v1.36h1.63v-1.36ZM107.98 300.251h-1.63v1.36h1.63v-1.36ZM134.39 286.101h-1.63v1.36h1.63v-1.36ZM134.39 288.461h-1.63v1.36h1.63v-1.36ZM134.39 290.811h-1.63v1.36h1.63v-1.36ZM134.39 293.171h-1.63v1.36h1.63v-1.36ZM134.39 295.53h-1.63v1.36h1.63v-1.36ZM134.39 297.891h-1.63v1.36h1.63v-1.36ZM134.39 300.251h-1.63v1.36h1.63v-1.36Z"/></g><path stroke="#263238" stroke-linecap="round" stroke-linejoin="round" d="M113.91 305.311h12.93"/><path fill="#999" stroke="#263238" stroke-linecap="round" stroke-linejoin="round" d="M391.97 337.83H61.05c-9.54 0-37.93-4-37.93-4H429.9s-28.39 4-37.93 4Z"/><path fill="#BFBFBF" stroke="#263238" stroke-linecap="round" stroke-linejoin="round" d="M429.9 333.801H23.12a1.123 1.123 0 0 1-1.088-1.004 1.12 1.12 0 0 1 .858-1.206l38.16-8.16h330.92l38.16 8.16a1.12 1.12 0 0 1-.23 2.21Z"/><path stroke="#263238" stroke-linecap="round" stroke-linejoin="round" d="M407.68 328.62H45.34l16.49-3.88h329.36l16.49 3.88Z"/><path fill="#F2B77D" d="M448.58 302.1a15.448 15.448 0 0 1-.93 5.44c-1 2.61-2.64 4.31-4.53 4.31h-88.9l-2.58-13.37 1-.41 10.06-4.2a19.664 19.664 0 0 1 7.6-1.54h72.86c1.49 0 2.84 1.07 3.83 2.8a14.432 14.432 0 0 1 1.59 6.97Z"/><mask id="b" width="98" height="20" x="351" y="292" maskUnits="userSpaceOnUse" style="mask-type:luminance"><path fill="#fff" d="M448.58 302.1a15.448 15.448 0 0 1-.93 5.44c-1 2.61-2.64 4.31-4.53 4.31h-88.9l-2.58-13.37 1-.41 10.06-4.2a19.664 19.664 0 0 1 7.6-1.54h72.86c1.49 0 2.84 1.07 3.83 2.8a14.432 14.432 0 0 1 1.59 6.97Z"/></mask><g mask="url(#b)"><path fill="#fff" d="M446.95 295.13H380.7a7.563 7.563 0 0 0-3.17.7l-10.89 5.06-14-2.82 10.06-4.2a19.664 19.664 0 0 1 7.6-1.54h72.86c1.45 0 2.8 1.07 3.79 2.8Z" opacity=".4"/><path fill="#000" fill-opacity=".7" d="M447.65 307.54c-1 2.61-2.64 4.31-4.53 4.31h-58.8c-8.1-5.21-15-9.76-15-9.76l3.36-1.85a7.233 7.233 0 0 1 3.47-.89h52.39a3.254 3.254 0 0 1 2.32 1l5.62 5.62a5.414 5.414 0 0 0 3.84 1.6l7.33-.03Z" opacity=".5"/></g><path stroke="#263238" stroke-linecap="round" stroke-linejoin="round" d="M448.58 302.1a15.448 15.448 0 0 1-.93 5.44c-1 2.61-2.64 4.31-4.53 4.31h-88.9l-2.58-13.37 1-.41 10.06-4.2a19.664 19.664 0 0 1 7.6-1.54h72.86c1.49 0 2.84 1.07 3.83 2.8a14.432 14.432 0 0 1 1.59 6.97Z"/><path stroke="#263238" stroke-linecap="round" stroke-linejoin="round" d="M435.36 292.33c3 0 5.47 4.37 5.47 9.77 0 5.4-2.45 9.76-5.47 9.76"/><path fill="#F2B77D" d="M363.73 296.87h-38.79v54.6h38.79c8.07 0 14.62-12.22 14.62-27.3s-6.55-27.3-14.62-27.3Z"/><mask id="c" width="55" height="56" x="324" y="296" maskUnits="userSpaceOnUse" style="mask-type:luminance"><path fill="#fff" d="M363.73 296.87h-38.79v54.6h38.79c8.07 0 14.62-12.22 14.62-27.3s-6.55-27.3-14.62-27.3Z"/></mask><g mask="url(#c)"><path fill="#000" fill-opacity=".7" d="M363.73 296.87h-38.79v54.6h38.79c8.07 0 14.62-12.22 14.62-27.3s-6.55-27.3-14.62-27.3Z" opacity=".3"/></g><path stroke="#263238" stroke-linecap="round" stroke-linejoin="round" d="M363.73 296.87h-38.79v54.6h38.79c8.07 0 14.62-12.22 14.62-27.3s-6.55-27.3-14.62-27.3Z"/><path fill="#F2B77D" stroke="#263238" stroke-linecap="round" stroke-linejoin="round" d="M324.94 351.47c8.075 0 14.62-12.222 14.62-27.3 0-15.077-6.545-27.3-14.62-27.3-8.074 0-14.62 12.223-14.62 27.3 0 15.078 6.546 27.3 14.62 27.3Z"/><path fill="#F2B77D" d="M322.51 349.8c7.583 0 13.73-11.475 13.73-25.63s-6.147-25.63-13.73-25.63-13.73 11.475-13.73 25.63 6.147 25.63 13.73 25.63Z"/><mask id="d" width="29" height="52" x="308" y="298" maskUnits="userSpaceOnUse" style="mask-type:luminance"><path fill="#fff" d="M322.51 349.8c7.583 0 13.73-11.475 13.73-25.63s-6.147-25.63-13.73-25.63-13.73 11.475-13.73 25.63 6.147 25.63 13.73 25.63Z"/></mask><g mask="url(#d)"><path fill="#000" fill-opacity=".7" d="M322.51 349.8c7.583 0 13.73-11.475 13.73-25.63s-6.147-25.63-13.73-25.63-13.73 11.475-13.73 25.63 6.147 25.63 13.73 25.63Z" opacity=".3"/></g><path stroke="#263238" stroke-linecap="round" stroke-linejoin="round" d="M322.51 349.8c7.583 0 13.73-11.475 13.73-25.63s-6.147-25.63-13.73-25.63-13.73 11.475-13.73 25.63 6.147 25.63 13.73 25.63Z"/><path fill="#F2B77D" d="M319.67 348.23c6.495 0 11.76-10.772 11.76-24.06 0-13.288-5.265-24.06-11.76-24.06s-11.76 10.772-11.76 24.06c0 13.288 5.265 24.06 11.76 24.06Z"/><mask id="e" width="25" height="49" x="307" y="300" maskUnits="userSpaceOnUse" style="mask-type:luminance"><path fill="#fff" d="M319.67 348.23c6.495 0 11.76-10.772 11.76-24.06 0-13.288-5.265-24.06-11.76-24.06s-11.76 10.772-11.76 24.06c0 13.288 5.265 24.06 11.76 24.06Z"/></mask><g mask="url(#e)"><path fill="#fff" d="M319.67 348.23c6.495 0 11.76-10.772 11.76-24.06 0-13.288-5.265-24.06-11.76-24.06s-11.76 10.772-11.76 24.06c0 13.288 5.265 24.06 11.76 24.06Z" opacity=".4"/></g><path stroke="#263238" stroke-linecap="round" stroke-linejoin="round" d="M319.67 348.23c6.495 0 11.76-10.772 11.76-24.06 0-13.288-5.265-24.06-11.76-24.06s-11.76 10.772-11.76 24.06c0 13.288 5.265 24.06 11.76 24.06Z"/><path fill="#263238" stroke="#263238" stroke-linecap="round" stroke-linejoin="round" d="M329.45 324.17a44.04 44.04 0 0 1-1.11 10c-1.35 5.72-3.82 9.94-6.75 11.24a4.694 4.694 0 0 1-1.92.43c-5.41 0-9.79-9.72-9.79-21.71s4.38-21.71 9.79-21.71a4.694 4.694 0 0 1 1.92.43c2.93 1.3 5.4 5.53 6.75 11.25a43.972 43.972 0 0 1 1.11 10.07Z"/><path fill="#757575" stroke="#263238" stroke-linecap="round" stroke-linejoin="round" d="M329.45 324.18c0 10.52-3.38 19.29-7.86 21.27-4.48-2-7.87-10.75-7.87-21.27s3.39-19.31 7.87-21.29c4.48 1.98 7.86 10.81 7.86 21.29Z"/><path fill="#263238" stroke="#263238" stroke-linecap="round" stroke-linejoin="round" d="M325.42 334.21h-5.82a2.46 2.46 0 0 1-2.46-2.45v-15.17a2.445 2.445 0 0 1 .721-1.736 2.453 2.453 0 0 1 1.739-.714h5.82a2.453 2.453 0 0 0-1.739.714 2.445 2.445 0 0 0-.721 1.736v15.17a2.463 2.463 0 0 0 2.46 2.45Z"/><path stroke="#263238" stroke-linecap="round" stroke-linejoin="round" d="M325.42 314.14h2.92M325.42 334.21h2.92"/><path fill="#F2B77D" d="M431.19 304.93v55.49a10.93 10.93 0 0 1-10.93 10.93h-75.69a10.94 10.94 0 0 1-10.94-10.93v-9h4.88c8.08 0 14.62-12.21 14.62-27.29 0-9.34-2.51-17.59-6.34-22.51h81.14a3.262 3.262 0 0 1 3.26 3.31Z"/><mask id="f" width="99" height="71" x="333" y="301" maskUnits="userSpaceOnUse" style="mask-type:luminance"><path fill="#fff" d="M431.19 304.93v55.49a10.93 10.93 0 0 1-10.93 10.93h-75.69a10.94 10.94 0 0 1-10.94-10.93v-9h4.88c8.08 0 14.62-12.21 14.62-27.29 0-9.34-2.51-17.59-6.34-22.51h81.14a3.262 3.262 0 0 1 3.26 3.31Z"/></mask><g fill="#000" fill-opacity=".7" mask="url(#f)"><path d="M353.13 324.18v17.27a24.854 24.854 0 0 1-12 21.29l-5.81 3.51a10.846 10.846 0 0 1-1.69-5.83v-9h4.88c8.08.05 14.62-12.16 14.62-27.24Z" opacity=".5"/><path d="M431.19 304.93v55.49a10.93 10.93 0 0 1-10.93 10.93h-75.69a10.834 10.834 0 0 1-6.71-2.3h12.39a9 9 0 0 0 9-9v-52.43a3.757 3.757 0 0 0-1.1-2.672 3.783 3.783 0 0 0-2.67-1.108h-7.17a21.173 21.173 0 0 0-1.48-2.17h81.14a3.26 3.26 0 0 1 3.22 3.26Z" opacity=".3"/></g><path stroke="#263238" stroke-linecap="round" stroke-linejoin="round" d="M431.19 304.93v55.49a10.93 10.93 0 0 1-10.93 10.93h-75.69a10.94 10.94 0 0 1-10.94-10.93v-9h4.88c8.08 0 14.62-12.21 14.62-27.29 0-9.34-2.51-17.59-6.34-22.51h81.14a3.262 3.262 0 0 1 3.26 3.31Z"/><path fill="#F2B77D" d="M440.99 332.43a70.472 70.472 0 0 1-4.67 25.21 4.212 4.212 0 0 1-.9 1.39 4.786 4.786 0 0 1-.6.49 4 4 0 0 1-2.29.72h-64.02a5.741 5.741 0 0 1-5.321-3.547 5.743 5.743 0 0 1-.439-2.203v-44.12a5.76 5.76 0 0 1 5.76-5.75h64a4.061 4.061 0 0 1 3.79 2.61 70.361 70.361 0 0 1 4.69 25.2Z"/><mask id="g" width="79" height="57" x="362" y="304" maskUnits="userSpaceOnUse" style="mask-type:luminance"><path fill="#fff" d="M440.99 332.43a70.472 70.472 0 0 1-4.67 25.21 4.212 4.212 0 0 1-.9 1.39 4.786 4.786 0 0 1-.6.49 4 4 0 0 1-2.29.72h-64.02a5.741 5.741 0 0 1-5.321-3.547 5.743 5.743 0 0 1-.439-2.203v-44.12a5.76 5.76 0 0 1 5.76-5.75h64a4.061 4.061 0 0 1 3.79 2.61 70.361 70.361 0 0 1 4.69 25.2Z"/></mask><g mask="url(#g)"><path fill="#fff" d="M440.99 332.43a70.516 70.516 0 0 1-4.67 25.21 4.202 4.202 0 0 1-.9 1.39h-60.91a6 6 0 0 1-6-6v-41.21a6 6 0 0 1 6-6h60.87c.391.402.697.878.9 1.4a70.38 70.38 0 0 1 4.71 25.21Z" opacity=".4"/></g><path stroke="#263238" stroke-linecap="round" stroke-linejoin="round" d="M440.99 332.43a70.472 70.472 0 0 1-4.67 25.21 4.212 4.212 0 0 1-.9 1.39 4.786 4.786 0 0 1-.6.49 4 4 0 0 1-2.29.72h-64.02a5.741 5.741 0 0 1-5.321-3.547 5.743 5.743 0 0 1-.439-2.203v-44.12a5.76 5.76 0 0 1 5.76-5.75h64a4.061 4.061 0 0 1 3.79 2.61 70.361 70.361 0 0 1 4.69 25.2Z"/><path stroke="#263238" stroke-linecap="round" stroke-linejoin="round" d="M384.51 305.83h-10.15a5.694 5.694 0 0 0-5.69 5.69v41.82c0 1.509.599 2.956 1.666 4.024a5.693 5.693 0 0 0 4.024 1.666h10.15"/><path fill="#757575" stroke="#263238" stroke-linecap="round" stroke-linejoin="round" d="M376.15 324.59h-13.63a1.95 1.95 0 0 0-1.95 1.95v11.63a1.95 1.95 0 0 0 1.95 1.95h13.63a1.95 1.95 0 0 0 1.95-1.95v-11.63a1.95 1.95 0 0 0-1.95-1.95Z"/><path fill="#fff" d="M375.85 326.16h-6a1.308 1.308 0 0 0-1.31 1.31v9.78a1.31 1.31 0 0 0 1.31 1.31h6a1.358 1.358 0 0 0 .975-.398 1.36 1.36 0 0 0 .405-.972v-9.66a1.372 1.372 0 0 0-1.38-1.37Z" opacity=".4"/><path stroke="#263238" stroke-linecap="round" stroke-linejoin="round" d="M374.32 326.16h-4.45a1.308 1.308 0 0 0-1.31 1.31v9.78a1.308 1.308 0 0 0 1.31 1.31h4.45"/><path fill="#263238" d="m418.73 318.35 2.91-8.36h2.21l.78 8.36h1l.16 1.77h-1l.21 2.25h-2l-.2-2.25h-3.87l-.2-1.77Zm3.87 0-.42-4.57-1.55 4.57h1.97ZM429.08 317.44l-.52 1.13.35 3.8h-2l-1.15-12.38h2l.5 5.36 2.12-5.36h2l-2.31 5.52 3.46 6.86h-2.02l-2.43-4.93Z"/><path stroke="#263238" stroke-linecap="round" stroke-linejoin="round" d="M346.81 369.05h3.45a8.998 8.998 0 0 0 8.95-9v-52.44a3.77 3.77 0 0 0-3.77-3.77h-2.43"/><path fill="#fff" d="M436.58 318.79h-64.32v-6a3.46 3.46 0 0 1 3.46-3.46h56.89a2.614 2.614 0 0 1 2.46 1.74 24.26 24.26 0 0 1 1.51 7.72ZM332.88 298.54h32.1l2.68 1.58h-33.24l-1.54-1.58Z" opacity=".2"/></g><defs><clipPath id="a"><path fill="#fff" d="M0 0h453.02v371.85H0z"/></clipPath></defs></svg>