<svg width="48" height="48" viewBox="0 0 48 48" fill="none" xmlns="http://www.w3.org/2000/svg">
<path d="M44 38H4C2.9 38 2 38.9 2 40C2 41.1 2.9 42 4 42H44C45.1 42 46 41.1 46 40C46 38.9 45.1 38 44 38ZM8 36H40C42.2 36 43.98 34.2 43.98 32L44 10C44 7.8 42.2 6 40 6H8C5.8 6 4 7.8 4 10V32C4 34.2 5.8 36 8 36ZM17.18 16.1C17.7562 15.2417 18.5155 14.5217 19.4032 13.992C20.291 13.4623 21.2852 13.1359 22.3142 13.0365C23.3432 12.937 24.3814 13.0669 25.3542 13.4168C26.327 13.7667 27.2101 14.3279 27.94 15.06C30.3 17.42 30.62 21.06 28.88 23.78L32 26.88C32.58 27.46 32.58 28.42 32 29C31.42 29.58 30.46 29.58 29.88 29L26.78 25.9C23.64 27.9 19.26 27.18 17.04 23.68C15.58 21.4 15.66 18.34 17.18 16.1Z" fill="white"/>
<path d="M23 24C25.2091 24 27 22.2091 27 20C27 17.7909 25.2091 16 23 16C20.7909 16 19 17.7909 19 20C19 22.2091 20.7909 24 23 24Z" fill="white"/>
</svg>
