<svg width="1477" height="1477" viewBox="0 0 1477 1477" fill="none" xmlns="http://www.w3.org/2000/svg">
<g filter="url(#filter0_i_1011_319)">
<mask id="path-1-inside-1_1011_319" fill="white">
<path d="M1477 738.5C1477 1146.36 1146.36 1477 738.5 1477C330.638 1477 0 1146.36 0 738.5C0 330.638 330.638 0 738.5 0C1146.36 0 1477 330.638 1477 738.5Z"/>
</mask>
<path d="M1472 738.5C1472 1143.6 1143.6 1472 738.5 1472V1482C1149.12 1482 1482 1149.12 1482 738.5H1472ZM738.5 1472C333.399 1472 5 1143.6 5 738.5H-5C-5 1149.12 327.876 1482 738.5 1482V1472ZM5 738.5C5 333.399 333.399 5 738.5 5V-5C327.876 -5 -5 327.876 -5 738.5H5ZM738.5 5C1143.6 5 1472 333.399 1472 738.5H1482C1482 327.876 1149.12 -5 738.5 -5V5Z" fill="#EEF0F8" mask="url(#path-1-inside-1_1011_319)"/>
</g>
<defs>
<filter id="filter0_i_1011_319" x="0" y="0" width="1477" height="1478" filterUnits="userSpaceOnUse" color-interpolation-filters="sRGB">
<feFlood flood-opacity="0" result="BackgroundImageFix"/>
<feBlend mode="normal" in="SourceGraphic" in2="BackgroundImageFix" result="shape"/>
<feColorMatrix in="SourceAlpha" type="matrix" values="0 0 0 0 0 0 0 0 0 0 0 0 0 0 0 0 0 0 127 0" result="hardAlpha"/>
<feOffset dy="1"/>
<feGaussianBlur stdDeviation="0.5"/>
<feComposite in2="hardAlpha" operator="arithmetic" k2="-1" k3="1"/>
<feColorMatrix type="matrix" values="0 0 0 0 0.561094 0 0 0 0 0.56636 0 0 0 0 0.7125 0 0 0 0.5 0"/>
<feBlend mode="normal" in2="shape" result="effect1_innerShadow_1011_319"/>
</filter>
</defs>
</svg>
