<svg width="42" height="42" viewBox="0 0 42 42" fill="none" xmlns="http://www.w3.org/2000/svg">
<path d="M21 0C16.8466 0 12.7865 1.23163 9.33303 3.53913C5.8796 5.84665 3.18798 9.1264 1.59854 12.9637C0.00909932 16.8009 -0.406771 21.0233 0.403519 25.097C1.21381 29.1706 3.21386 32.9123 6.15076 35.8493C9.08766 38.7862 12.8295 40.7862 16.9031 41.5965C20.9767 42.4067 25.1991 41.9909 29.0363 40.4014C32.8736 38.8121 36.1534 36.1204 38.4608 32.6669C40.7684 29.2135 42 25.1535 42 21C42 15.4305 39.7875 10.089 35.8493 6.15077C31.9109 2.21249 26.5696 0 21 0ZM32.2199 22.32L15.72 31.32C15.492 31.4517 15.2333 31.521 14.97 31.521C14.7067 31.521 14.448 31.4517 14.22 31.32C13.9945 31.1828 13.8091 30.9885 13.6827 30.7568C13.5563 30.5249 13.4932 30.264 13.5 30.0001V12C13.5001 11.7397 13.5678 11.4839 13.6967 11.2577C13.8256 11.0315 14.0111 10.8428 14.235 10.71C14.463 10.5784 14.7217 10.509 14.985 10.509C15.2483 10.509 15.507 10.5784 15.735 10.71L32.235 19.7101C32.4732 19.8385 32.672 20.0291 32.8108 20.2615C32.9494 20.4939 33.0225 20.7594 33.0225 21.0299C33.0225 21.3007 32.9494 21.5661 32.8108 21.7985C32.672 22.0309 32.4732 22.2215 32.235 22.35L32.2199 22.32Z" fill="#EF8723"/>
</svg>
