<svg width="42" height="42" viewBox="0 0 42 42" fill="none" xmlns="http://www.w3.org/2000/svg">
<g clip-path="url(#clip0_1042_395)">
<path d="M21 0C9.408 0 0 9.408 0 21C0 32.592 9.408 42 21 42C32.592 42 42 32.592 42 21C42 9.408 32.592 0 21 0ZM16.8 29.4C15.645 29.4 14.7 28.455 14.7 27.3V14.7C14.7 13.545 15.645 12.6 16.8 12.6C17.955 12.6 18.9 13.545 18.9 14.7V27.3C18.9 28.455 17.955 29.4 16.8 29.4ZM25.2 29.4C24.045 29.4 23.1 28.455 23.1 27.3V14.7C23.1 13.545 24.045 12.6 25.2 12.6C26.355 12.6 27.3 13.545 27.3 14.7V27.3C27.3 28.455 26.355 29.4 25.2 29.4Z" fill="#EF8723"/>
</g>
<defs>
<clipPath id="clip0_1042_395">
<rect width="42" height="42" fill="white"/>
</clipPath>
</defs>
</svg>
